<?xml version="1.0" encoding="utf-8"?>
<!-- Generator: Adobe Illustrator 19.2.1, SVG Export Plug-In . SVG Version: 6.00 Build 0)  -->
<svg version="1.1" id="Layer_1" xmlns="http://www.w3.org/2000/svg" xmlns:xlink="http://www.w3.org/1999/xlink" x="0px" y="0px"
	 width="205px" height="51.9px" viewBox="0 0 205 51.9" style="enable-background:new 0 0 205 51.9;" xml:space="preserve">
<style type="text/css">
	.st0{fill:#444547;}
</style>
<g id="Layer_2">
	<g id="Layer_1-2">
		<path class="st0" d="M132.5,36.8c-2.9,2.5-6.7,3.9-10.5,3.8c-6.3,0-10.8-3.3-12.2-9.8h34.7c0.1-1.3,0.2-2.6,0.2-3.7
			C144.6,12.9,137,0,120.4,0c-10.1-0.1-19.1,6.1-22.7,15.5C96.7,5.9,90.7,0,80.9,0c-7.2,0-11.3,3.8-14.6,8V0.9L52.2,9.2v7.2
			C48.4,6.8,38.9,0,27.1,0C11.5,0,0,11.6,0,26v0.2c0,14.3,11.4,25.7,26.9,25.7c12,0,21.5-6.9,25.3-16.6v15.5h14.1V23
			c0-6.7,3.4-10.1,8.8-10.1s8.6,3.4,8.6,10.1v27.8h14.1V37c3.9,9.2,12.8,14.9,23.9,14.9c8.9,0,15.5-3.4,20.1-9 M40,26.1
			c0,7.4-4.8,13.6-12.9,13.6c-7.8,0-13.1-6.4-13.1-13.8v-0.2c0-7.4,4.8-13.6,12.9-13.6c7.8,0,13.1,6.4,13.1,13.8V26.1z M109.6,21.9
			c1.1-6.4,4.9-10.6,10.8-10.6s9.7,4.3,10.5,10.6H109.6z"/>
		<path class="st0" d="M24.6,21.7l6.6,4.3c0.2,0.1,0.3,0.4,0.1,0.6c0,0.1-0.1,0.1-0.1,0.1l-6.5,3.8c-0.2,0.2-0.5,0.1-0.6-0.1
			c-0.1,0-0.1-0.1-0.1-0.2V22c0-0.2,0.1-0.4,0.3-0.4C24.4,21.6,24.5,21.6,24.6,21.7z"/>
		<path class="st0" d="M202.5,15.7h-10.7c-0.4,0-0.8,0.3-0.9,0.7l-5.1,19.8l-5.1-19.8c-0.1-0.3-0.5-0.7-0.9-0.7h-31.4
			c-0.3,0-0.7,0.3-0.7,0.7v7.3c0,0.4,0.3,0.7,0.7,0.7h8v14.2c2.5,1.6,4.3,4.3,4.3,7.5c0,1-0.2,1.9-0.4,2.8h5.5
			c0.4,0,0.7-0.3,0.7-0.7V24.4h5.1l8.3,23.8c0.1,0.3,0.5,0.7,0.9,0.7h10.5c0.4,0,0.7-0.3,0.9-0.7L203,16.4
			C203.1,16,202.8,15.7,202.5,15.7z"/>
		<path class="st0" d="M156.5,46.5c0,3-2.4,5.4-5.4,5.4s-5.4-2.4-5.4-5.4s2.4-5.4,5.4-5.4C154.1,40.9,156.5,43.5,156.5,46.5z"/>
	</g>
</g>
</svg>
