<?xml version="1.0" encoding="utf-8"?>
<!-- Generator: Adobe Illustrator 19.2.1, SVG Export Plug-In . SVG Version: 6.00 Build 0)  -->
<svg version="1.1" id="Layer_1" xmlns="http://www.w3.org/2000/svg" xmlns:xlink="http://www.w3.org/1999/xlink" x="0px" y="0px"
	 width="102.3px" height="38px" viewBox="0 0 102.3 38" style="enable-background:new 0 0 102.3 38;" xml:space="preserve">
<style type="text/css">
	.st0{fill:#FFFFFF;}
</style>
<g id="Layer_2">
	<g id="Layer_1-2">
		<path class="st0" d="M92.4,25.7c-2,1.7-4.7,2.7-7.3,2.7c-4.4,0-7.5-2.3-8.5-6.8h24.2c0.1-0.9,0.1-1.8,0.1-2.6C100.9,9,95.6,0,84,0
			c-7-0.1-13.3,4.3-15.8,10.8C67.5,4.1,63.3,0,56.4,0c-5,0-7.9,2.7-10.2,5.6v-5l-9.8,5.8v5C33.8,4.7,27.1,0,18.9,0C8,0,0,8.1,0,18.1
			v0.1c0,10,8,17.9,18.8,17.9c8.4,0,15-4.8,17.6-11.6v10.8h9.8V16c0-4.7,2.4-7,6.1-7s6,2.4,6,7v19.4h9.8v-9.6
			c2.7,6.4,8.9,10.4,16.7,10.4c6.2,0,10.8-2.4,14-6.3 M27.9,18.2c0,5.2-3.3,9.5-9,9.5c-5.4,0-9.1-4.5-9.1-9.6v-0.1
			c0-5.2,3.3-9.5,9-9.5c5.4,0,9.1,4.5,9.1,9.6V18.2z M76.5,15.3c0.8-4.5,3.4-7.4,7.5-7.4s6.8,3,7.3,7.4H76.5z"/>
		<path class="st0" d="M17.2,15.1l4.6,3c0.1,0.1,0.2,0.3,0.1,0.4c0,0.1-0.1,0.1-0.1,0.1l-4.5,2.7c-0.1,0.1-0.3,0.1-0.4-0.1
			c-0.1,0-0.1-0.1-0.1-0.1v-5.7c0-0.1,0.1-0.3,0.2-0.3C17,15.1,17.1,15.1,17.2,15.1z"/>
	</g>
</g>
</svg>
