<?xml version="1.0" encoding="utf-8"?>
<!-- Generator: Adobe Illustrator 19.2.1, SVG Export Plug-In . SVG Version: 6.00 Build 0)  -->
<svg version="1.1" id="Layer_1" xmlns="http://www.w3.org/2000/svg" xmlns:xlink="http://www.w3.org/1999/xlink" x="0px" y="0px"
	 width="102.3px" height="38px" viewBox="0 0 102.3 38" style="enable-background:new 0 0 102.3 38;" xml:space="preserve">
<style type="text/css">
	.st0{fill:#FFFFFF;}
</style>
<g id="Layer_2">
	<g id="Layer_1-2">
		<path class="st0" d="M93.7,26.1c-2,1.7-4.8,2.7-7.4,2.7c-4.5,0-7.6-2.3-8.6-6.9h24.5c0.1-0.9,0.1-1.8,0.1-2.6
			C102.3,9.1,96.9,0,85.2,0c-7.1-0.1-13.5,4.4-16,10.9C68.4,4.2,64.2,0,57.2,0c-5.1,0-8,2.7-10.3,5.7V0.6l-9.9,5.9v5.1
			C34.3,4.8,27.5,0,19.2,0C8.1,0,0,8.2,0,18.4v0.1c0,10.1,8.1,18.1,19.1,18.1c8.5,0,15.2-4.9,17.8-11.8v10.9h9.9V16.2
			c0-4.8,2.4-7.1,6.2-7.1s6.1,2.4,6.1,7.1v19.7H69v-9.7c2.7,6.5,9,10.5,16.9,10.5c6.3,0,10.9-2.4,14.2-6.4 M28.3,18.5
			c0,5.3-3.3,9.6-9.1,9.6c-5.5,0-9.2-4.6-9.2-9.7v-0.1c0-5.3,3.3-9.6,9.1-9.6c5.5,0,9.2,4.6,9.2,9.7V18.5z M77.6,15.5
			C78.4,10.9,81,8,85.2,8s6.9,3,7.4,7.5H77.6z"/>
		<path class="st0" d="M17.4,15.3l4.7,3c0.1,0.1,0.2,0.3,0.1,0.4c0,0.1-0.1,0.1-0.1,0.1l-4.6,2.7c-0.1,0.1-0.3,0.1-0.4-0.1
			c-0.1,0-0.1-0.1-0.1-0.1v-5.8c0-0.1,0.1-0.3,0.2-0.3C17.2,15.3,17.3,15.3,17.4,15.3z"/>
	</g>
</g>
</svg>
