<!-- Generator: Adobe Illustrator 21.0.2, SVG Export Plug-In  -->
<svg version="1.1"
   xmlns="http://www.w3.org/2000/svg" xmlns:xlink="http://www.w3.org/1999/xlink" xmlns:a="http://ns.adobe.com/AdobeSVGViewerExtensions/3.0/"
   x="0px" y="0px" width="54px" height="65px" viewBox="0 0 54 65" style="enable-background:new 0 0 54 65;" xml:space="preserve">
<style type="text/css">
  .st0{fill:#A9B1BC;}
</style>
<defs>
</defs>
<path class="st0" d="M36,0H2.9C1.3,0,0,1.3,0,2.9v59.2C0,63.7,1.3,65,2.9,65h42.2c1.6,0,2.9-1.3,2.9-2.9V57h-2v5c0,0.5-0.4,1-1,1H3
  c-0.5,0-1-0.4-1-1V3c0-0.5,0.4-1,1-1h32v9c0,1.1,0.9,2,2,2h9v20h2V12L36,0z"/>
<g>
  <path class="st0" d="M34.1,41.9c-0.7,0-1.3,0.3-1.7,0.8S31.7,44,31.7,45s0.2,1.7,0.6,2.2s1,0.8,1.7,0.8s1.3-0.3,1.7-0.8
    s0.6-1.3,0.6-2.2c0-1-0.2-1.7-0.6-2.2S34.8,41.9,34.1,41.9z"/>
  <path class="st0" d="M52,35H14c-1.1,0-2,0.9-2,2v16c0,1.1,0.9,2,2,2h38c1.1,0,2-0.9,2-2V37C54,35.9,53.1,35,52,35z M28.6,49.3h-1.7
    v-5.8c0-0.2,0-0.4,0-0.7s0-0.5,0-0.7l-1.6,7.2h-1.8l-1.6-7.2c0,0.2,0,0.4,0,0.7s0,0.5,0,0.7v5.8h-1.7v-8.6h2.6l1.6,6.8l1.6-6.8h2.6
    V49.3z M36.9,48.6c-0.7,0.7-1.6,1-2.8,1s-2.2-0.3-2.8-1c-0.9-0.8-1.3-2-1.3-3.6c0-1.6,0.4-2.8,1.3-3.6c0.7-0.7,1.6-1,2.8-1
    s2.2,0.3,2.8,1c0.9,0.8,1.3,2,1.3,3.6C38.2,46.5,37.8,47.7,36.9,48.6z M43.6,49.3h-1.7l-2.9-8.6h1.9l1.9,6.6l1.9-6.6h1.9L43.6,49.3
    z"/>
</g>
</svg>
