<!-- Generator: Adobe Illustrator 21.0.2, SVG Export Plug-In  -->
<svg version="1.1"
   xmlns="http://www.w3.org/2000/svg" xmlns:xlink="http://www.w3.org/1999/xlink" xmlns:a="http://ns.adobe.com/AdobeSVGViewerExtensions/3.0/"
   x="0px" y="0px" width="54px" height="65px" viewBox="0 0 54 65" style="enable-background:new 0 0 54 65;" xml:space="preserve">
<style type="text/css">
  .st0{fill:#A9B1BC;}
</style>
<defs>
</defs>
<path class="st0" d="M36,0H2.9C1.3,0,0,1.3,0,2.9v59.2C0,63.7,1.3,65,2.9,65h42.2c1.6,0,2.9-1.3,2.9-2.9V57h-2v5c0,0.5-0.4,1-1,1H3
  c-0.5,0-1-0.4-1-1V3c0-0.5,0.4-1,1-1h32v9c0,1.1,0.9,2,2,2h9v20h2V12L36,0z"/>
<g>
  <path class="st0" d="M35,42.2h-1.6v2.5H35c0.4,0,0.7-0.1,1-0.3s0.3-0.5,0.3-1s-0.1-0.8-0.3-1S35.4,42.2,35,42.2z"/>
  <path class="st0" d="M52,35H14c-1.1,0-2,0.9-2,2v16c0,1.1,0.9,2,2,2h38c1.1,0,2-0.9,2-2V37C54,35.9,53.1,35,52,35z M29.9,49.3h-1.7
    v-5.8c0-0.2,0-0.4,0-0.7s0-0.5,0-0.7l-1.6,7.2h-1.8l-1.6-7.2c0,0.2,0,0.4,0,0.7s0,0.5,0,0.7v5.8h-1.7v-8.6h2.6l1.6,6.8l1.6-6.8h2.6
    V49.3z M37.4,45.6c-0.5,0.4-1.2,0.6-2.2,0.6h-1.8v3.1h-1.8v-8.6h3.7c0.9,0,1.5,0.2,2,0.7c0.5,0.4,0.8,1.1,0.8,2.1
    C38.1,44.4,37.9,45.2,37.4,45.6z M44.1,48.7c-0.5,0.5-1.2,0.8-2.2,0.8c-1.2,0-2-0.4-2.5-1.2c-0.2-0.4-0.4-1-0.4-1.6h1.6
    c0,0.3,0.1,0.6,0.2,0.8c0.2,0.4,0.6,0.6,1.1,0.6c0.3,0,0.6-0.1,0.9-0.3s0.4-0.5,0.4-1c0-0.6-0.2-0.9-0.7-1.1
    c-0.3-0.1-0.7-0.2-1.2-0.2v-1.2c0.5,0,0.9-0.1,1.1-0.2c0.4-0.2,0.6-0.5,0.6-1c0-0.3-0.1-0.6-0.3-0.8c-0.2-0.2-0.5-0.3-0.8-0.3
    c-0.4,0-0.7,0.1-0.9,0.4s-0.3,0.6-0.3,1h-1.6c0-0.4,0.1-0.8,0.2-1.2c0.1-0.3,0.4-0.6,0.6-0.9c0.2-0.2,0.5-0.4,0.8-0.5
    c0.3-0.1,0.7-0.2,1.1-0.2c0.8,0,1.5,0.2,2,0.6s0.7,1,0.7,1.7c0,0.5-0.1,0.9-0.4,1.3c-0.2,0.2-0.4,0.4-0.6,0.4
    c0.2,0,0.4,0.1,0.7,0.4c0.4,0.4,0.6,0.9,0.6,1.6C44.9,47.5,44.6,48.2,44.1,48.7z"/>
</g>
</svg>
