<?xml version="1.0" encoding="UTF-8"?>
<svg width="125px" height="54px" viewBox="0 0 125 54" version="1.1" xmlns="http://www.w3.org/2000/svg" xmlns:xlink="http://www.w3.org/1999/xlink">
    <!-- Generator: Sketch 51.2 (57519) - http://www.bohemiancoding.com/sketch -->
    <title>Group</title>
    <desc>Created with Sketch.</desc>
    <defs></defs>
    <g id="Symbols" stroke="none" stroke-width="1" fill="none" fill-rule="evenodd">
        <g id="logo/black" transform="translate(-2.000000, -2.000000)">
            <g id="Group" transform="translate(2.000000, 2.000000)">
                <path d="M19.6606997,13.3600967 L15.3373883,13.3600967 L15.3373883,21.158206 L19.6606997,21.158206 C22.1524116,21.158206 23.8381065,19.6141662 23.8381065,17.2584431 C23.8381065,14.9055531 22.1524116,13.3600967 19.6606997,13.3600967 L19.6606997,13.3600967 Z M35.5416448,39.2050565 C34.1378435,41.3426309 33.3162444,43.8995041 33.3162444,46.6504448 C33.3162444,48.1293233 33.559891,49.5487066 33.9961885,50.8802639 L25.5223847,50.8802639 C24.7900282,50.8802639 24.1313324,50.3660562 23.8381065,49.7031106 L16.2156494,33.6649284 L15.3373883,33.6649284 L15.3373883,49.8518484 C15.3373883,50.3660562 14.8231805,50.8802639 14.1644846,50.8802639 L1.26679437,50.8802639 C0.680342551,50.8802639 0.167551351,50.3660562 0.167551351,49.8518484 L0.167551351,1.22026088 C0.167551351,0.632392511 0.680342551,0.11676821 1.26679437,0.11676821 L20.6126215,0.11676821 C31.8996941,0.11676821 39.3734133,6.7377242 39.3734133,16.7442354 C39.3734133,22.5563411 35.856119,28.440691 30.3599039,30.7964141 L35.5416448,39.2050565 Z M107.985443,49.8518484 C107.839538,50.3660562 107.251669,50.8802639 106.665218,50.8802639 L90.5448755,50.8802639 C89.9570071,50.8802639 89.3705553,50.3660562 89.2246507,49.8518484 L76.6499339,13.3600967 L68.976481,13.3600967 L68.976481,49.8518484 C68.976481,50.3660562 68.5373504,50.8802639 67.9508986,50.8802639 L59.621583,50.8802639 C60.0578805,49.5487066 60.3015271,48.1293233 60.3015271,46.6504448 C60.3015271,41.7775118 57.7290718,37.5165286 53.8803047,35.1296414 L53.8803047,13.3600967 L41.7149709,13.3600967 C41.2035963,13.3600967 40.6893885,12.9181331 40.6893885,12.3302647 L40.6893885,1.22026088 C40.6893885,0.632392511 41.2035963,0.11676821 41.7149709,0.11676821 L89.5178766,0.11676821 C90.177989,0.11676821 90.7630243,0.632392511 90.9103455,1.14660026 L98.60363,31.3842825 L106.299748,1.14660026 C106.447069,0.632392511 107.032104,0.11676821 107.692217,0.11676821 L124.033541,0.11676821 C124.619992,0.11676821 124.986879,0.632392511 124.767314,1.14660026 L107.985443,49.8518484 Z" id="Page-1" fill="#FFFFFF"></path>
                <path d="M54.0786218,46.6504448 C54.0786218,50.6819469 50.8248058,53.9485118 46.8088857,53.9485118 C42.7943823,53.9485118 39.5391497,50.6819469 39.5391497,46.6504448 C39.5391497,42.6189427 42.7943823,39.3523778 46.8088857,39.3523778 C50.8248058,39.3523778 54.0786218,42.6189427 54.0786218,46.6504448 Z" id="Path" fill="#DB1E34"></path>
            </g>
        </g>
    </g>
</svg>