<?xml version="1.0" encoding="UTF-8"?>
<svg width="32px" height="32px" viewBox="0 0 32 32" version="1.1" xmlns="http://www.w3.org/2000/svg" xmlns:xlink="http://www.w3.org/1999/xlink">
    <!-- Generator: Sketch 51.2 (57519) - http://www.bohemiancoding.com/sketch -->
    <title>icon/light/programmes</title>
    <desc>Created with Sketch.</desc>
    <defs></defs>
    <g id="icon/light/programmes" stroke="none" stroke-width="1" fill="none" fill-rule="evenodd">
        <path d="M23.2307692,16.852 C22.5510769,16.852 22,16.3009231 22,15.6212308 C22,14.9415385 22.5510769,14.3904615 23.2307692,14.3904615 C23.9104615,14.3904615 24.4615385,14.9415385 24.4615385,15.6212308 C24.4615385,16.3009231 23.9104615,16.852 23.2307692,16.852 Z M23.2307692,21.1596923 C22.5510769,21.1596923 22,20.6086154 22,19.9289231 C22,19.2489231 22.5510769,18.6981538 23.2307692,18.6981538 C23.9104615,18.6981538 24.4615385,19.2489231 24.4615385,19.9289231 C24.4615385,20.6086154 23.9104615,21.1596923 23.2307692,21.1596923 Z M20.1538462,21.7750769 C20.1538462,22.1147692 19.8781538,22.3904615 19.5384615,22.3904615 L9.07692308,22.3904615 C8.73692308,22.3904615 8.46153846,22.1147692 8.46153846,21.7750769 L8.46153846,13.7750769 C8.46153846,13.4350769 8.73692308,13.1596923 9.07692308,13.1596923 L19.5384615,13.1596923 C19.8781538,13.1596923 20.1538462,13.4350769 20.1538462,13.7750769 L20.1538462,21.7750769 Z M24.4615385,10.6981538 L17.7646154,10.6981538 L20.1590769,7.98615385 L19.2886154,7 L16.0243077,10.6981538 L15.6313846,10.6981538 L12.3956923,7 L11.5332308,7.98615385 L13.9061538,10.6981538 L7.23076923,10.6981538 C6.55107692,10.6981538 6,11.2492308 6,11.9289231 L6,23.0058462 C6,23.6855385 6.55107692,24.2366154 7.23076923,24.2366154 L24.4615385,24.2366154 C25.1412308,24.2366154 25.6923077,23.6855385 25.6923077,23.0058462 L25.6923077,11.9289231 C25.6923077,11.2492308 25.1412308,10.6981538 24.4615385,10.6981538 Z" id="Fill-1" fill="#FFFFFF"></path>
    </g>
</svg>