<!-- Generator: Adobe Illustrator 21.0.2, SVG Export Plug-In  -->
<svg version="1.1"
   xmlns="http://www.w3.org/2000/svg" xmlns:xlink="http://www.w3.org/1999/xlink" xmlns:a="http://ns.adobe.com/AdobeSVGViewerExtensions/3.0/"
   x="0px" y="0px" width="54px" height="65px" viewBox="0 0 54 65" style="enable-background:new 0 0 54 65;" xml:space="preserve">
<style type="text/css">
  .st0{fill:#A9B1BC;}
</style>
<defs>
</defs>
<path class="st0" d="M36,0H2.9C1.3,0,0,1.3,0,2.9v59.2C0,63.7,1.3,65,2.9,65h42.2c1.6,0,2.9-1.3,2.9-2.9V57h-2v5c0,0.5-0.4,1-1,1H3
  c-0.5,0-1-0.4-1-1V3c0-0.5,0.4-1,1-1h32v9c0,1.1,0.9,2,2,2h9v20h2V12L36,0z"/>
<g>
  <path class="st0" d="M24,42.2h-1.7v5.6H24c0.9,0,1.4-0.4,1.8-1.3c0.2-0.5,0.3-1,0.3-1.6c0-0.9-0.1-1.6-0.4-2
    C25.4,42.4,24.8,42.2,24,42.2z"/>
  <path class="st0" d="M33.1,41.9c-0.7,0-1.3,0.3-1.7,0.8S30.7,44,30.7,45s0.2,1.7,0.6,2.2s1,0.8,1.7,0.8s1.3-0.3,1.7-0.8
    s0.6-1.3,0.6-2.2c0-1-0.2-1.7-0.6-2.2S33.8,41.9,33.1,41.9z"/>
  <path class="st0" d="M52,35H14c-1.1,0-2,0.9-2,2v16c0,1.1,0.9,2,2,2h38c1.1,0,2-0.9,2-2V37C54,35.9,53.1,35,52,35z M27.2,47.7
    c-0.6,1.1-1.6,1.6-2.9,1.6h-3.7v-8.6h3.7c0.5,0,1,0.1,1.3,0.2c0.6,0.2,1.1,0.6,1.5,1.1c0.3,0.4,0.5,0.9,0.6,1.4
    c0.1,0.5,0.2,1,0.2,1.4C27.9,45.9,27.7,46.9,27.2,47.7z M35.9,48.6c-0.7,0.7-1.6,1-2.8,1s-2.2-0.3-2.8-1c-0.9-0.8-1.3-2-1.3-3.6
    c0-1.6,0.4-2.8,1.3-3.6c0.7-0.7,1.6-1,2.8-1s2.2,0.3,2.8,1c0.9,0.8,1.3,2,1.3,3.6C37.2,46.5,36.8,47.7,35.9,48.6z M40.6,47.3
    c0.4,0.5,0.9,0.7,1.5,0.7c0.6,0,1.1-0.2,1.4-0.6c0.2-0.2,0.3-0.6,0.4-1h1.8c-0.2,0.9-0.5,1.7-1.2,2.3s-1.5,0.9-2.4,0.9
    c-1.2,0-2.2-0.4-2.9-1.2c-0.7-0.8-1.1-1.9-1.1-3.3c0-1.5,0.4-2.7,1.2-3.5c0.7-0.7,1.6-1.1,2.7-1.1c1.4,0,2.5,0.5,3.2,1.4
    c0.4,0.5,0.6,1.1,0.6,1.6H44c-0.1-0.4-0.3-0.7-0.4-0.9c-0.3-0.4-0.8-0.6-1.4-0.6c-0.6,0-1.2,0.3-1.5,0.8s-0.6,1.3-0.6,2.2
    S40.2,46.8,40.6,47.3z"/>
</g>
</svg>
