<!-- Generator: Adobe Illustrator 21.0.2, SVG Export Plug-In  -->
<svg version="1.1"
   xmlns="http://www.w3.org/2000/svg" xmlns:xlink="http://www.w3.org/1999/xlink" xmlns:a="http://ns.adobe.com/AdobeSVGViewerExtensions/3.0/"
   x="0px" y="0px" width="54px" height="65px" viewBox="0 0 54 65" style="enable-background:new 0 0 54 65;" xml:space="preserve">
<style type="text/css">
  .st0{fill:#A9B1BC;}
</style>
<defs>
</defs>
<path class="st0" d="M36,0H2.9C1.3,0,0,1.3,0,2.9v59.2C0,63.7,1.3,65,2.9,65h42.2c1.6,0,2.9-1.3,2.9-2.9V57h-2v5c0,0.5-0.4,1-1,1H3
  c-0.5,0-1-0.4-1-1V3c0-0.5,0.4-1,1-1h32v9c0,1.1,0.9,2,2,2h9v20h2V12L36,0z"/>
<g>
  <path class="st0" d="M33.4,42.4h-1.6V45h1.6c0.4,0,0.7-0.1,1-0.3s0.3-0.5,0.3-1s-0.1-0.8-0.3-1S33.8,42.4,33.4,42.4z"/>
  <path class="st0" d="M52,35H14c-1.1,0-2,0.9-2,2v16c0,1.1,0.9,2,2,2h38c1.1,0,2-0.9,2-2V37C54,35.9,53.1,35,52,35z M28.5,49.6H22
    v-8.6h6.3v1.5h-4.6v1.8h4.2v1.5h-4.2V48h4.8V49.6z M35.7,45.8c-0.5,0.4-1.2,0.6-2.2,0.6h-1.8v3.1H30v-8.6h3.7c0.9,0,1.5,0.2,2,0.7
    c0.5,0.4,0.8,1.1,0.8,2.1C36.5,44.7,36.2,45.4,35.7,45.8z M43.7,49c-0.6,0.5-1.5,0.8-2.6,0.8c-1.1,0-2-0.3-2.7-0.8
    c-0.7-0.5-1-1.2-1-2.1h1.7c0.1,0.4,0.2,0.7,0.3,0.9c0.3,0.4,0.8,0.5,1.5,0.5c0.4,0,0.8,0,1.1-0.1c0.5-0.2,0.8-0.5,0.8-1
    c0-0.3-0.1-0.5-0.4-0.7c-0.3-0.2-0.7-0.3-1.2-0.4l-0.9-0.2c-0.9-0.2-1.6-0.4-1.9-0.7c-0.6-0.4-0.9-1-0.9-1.9c0-0.8,0.3-1.4,0.9-1.9
    c0.6-0.5,1.4-0.8,2.5-0.8c0.9,0,1.7,0.2,2.4,0.7s1,1.2,1,2.1h-1.7c0-0.5-0.3-0.9-0.7-1.1c-0.3-0.1-0.6-0.2-1.1-0.2
    c-0.5,0-0.9,0.1-1.1,0.3s-0.4,0.4-0.4,0.8c0,0.3,0.1,0.5,0.4,0.7c0.2,0.1,0.6,0.2,1.1,0.4l1.5,0.4c0.7,0.2,1.2,0.4,1.5,0.6
    c0.5,0.4,0.8,1,0.8,1.8C44.7,47.8,44.3,48.5,43.7,49z"/>
</g>
</svg>
