<?xml version="1.0" encoding="UTF-8"?>
<svg width="207px" height="40px" viewBox="0 0 207 40" version="1.1" xmlns="http://www.w3.org/2000/svg" xmlns:xlink="http://www.w3.org/1999/xlink">
    <!-- Generator: sketchtool 48.2 (47327) - http://www.bohemiancoding.com/sketch -->
    <title>D227FD00-B956-482F-B94E-94F0C4B57E69</title>
    <desc>Created with sketchtool.</desc>
    <defs></defs>
    <g id="logo/black" stroke="none" stroke-width="1" fill="none" fill-rule="evenodd" transform="translate(0.000000, -9.000000)">
        <g id="AMCStudios_K" transform="translate(0.000000, 9.000000)">
            <path d="M103.454505,12.601978 C102.610582,11.3933407 101.235132,10.6062857 99.3501429,10.6062857 C97.3832637,10.6062857 95.1055055,11.7868681 95.1055055,14.3451758 C95.1055055,16.8754286 97.2141758,17.5222088 99.4350659,18.2531538 C102.245868,19.1812418 105.337978,20.0805165 105.337978,24.0726593 C105.337978,28.0648022 101.992615,29.808 98.8451538,29.808 C96.4271209,29.808 94.0090879,28.8238022 92.5744945,26.8554066 L94.3184505,25.5626044 C95.1896703,26.9683846 96.7918352,28.0648022 98.8732088,28.0648022 C100.924253,28.0648022 103.285418,26.7712418 103.285418,24.2136923 C103.285418,21.4294286 100.953066,20.7272967 98.4235714,19.9402418 C95.7810989,19.1251319 93.081,17.9718462 93.081,14.3732308 C93.081,10.5213626 96.5105275,8.89114286 99.4350659,8.89114286 C102.104835,8.89114286 104.101286,10.0156154 105.05667,11.3091758 L103.454505,12.601978" id="Fill-1" fill="#0B0B09"></path>
            <polyline id="Fill-2" fill="#0B0B09" points="116.387835 29.3022527 114.362571 29.3022527 114.362571 11.1961978 107.701418 11.1961978 107.701418 9.39689011 123.051264 9.39689011 123.051264 11.1961978 116.387835 11.1961978 116.387835 29.3022527"></polyline>
            <path d="M125.496593,21.8790659 L125.496593,9.39689011 L127.519582,9.39689011 L127.519582,21.6546264 C127.519582,24.8597143 128.898824,28.0094505 132.946319,28.0094505 C136.996088,28.0094505 138.373813,24.8597143 138.373813,21.6546264 L138.373813,9.39689011 L140.39756,9.39689011 L140.39756,21.8790659 C140.39756,25.1971319 138.906099,29.808 132.946319,29.808 C126.988055,29.808 125.496593,25.1971319 125.496593,21.8790659" id="Fill-3" fill="#0B0B09"></path>
            <path d="M147.173209,27.5037033 L151.193407,27.5037033 C157.180484,27.5037033 160.077725,23.4546923 160.077725,19.3495714 C160.077725,15.2452088 157.180484,11.1961978 151.193407,11.1961978 L147.173209,11.1961978 L147.173209,27.5037033 Z M145.148703,9.39689011 L151.755264,9.39689011 C156.731604,9.39689011 162.213692,12.7141978 162.213692,19.3495714 C162.213692,25.9849451 156.731604,29.3022527 151.755264,29.3022527 L145.148703,29.3022527 L145.148703,9.39689011 Z" id="Fill-4" fill="#0B0B09"></path>
            <polygon id="Fill-5" fill="#0B0B09" points="166.007934 29.3022527 168.033198 29.3022527 168.033198 9.39689011 166.007934 9.39689011"></polygon>
            <path d="M182.20322,10.6623956 C177.085088,10.6623956 173.964923,14.7106484 173.964923,19.3495714 C173.964923,23.9884945 177.085088,28.0094505 182.20322,28.0094505 C187.319077,28.0094505 190.440758,23.9884945 190.440758,19.3495714 C190.440758,14.7106484 187.319077,10.6623956 182.20322,10.6623956 Z M182.20322,29.808 C176.270736,29.808 171.828956,25.3942747 171.828956,19.3495714 C171.828956,13.3048681 176.270736,8.89114286 182.20322,8.89114286 C188.134945,8.89114286 192.578242,13.3048681 192.578242,19.3495714 C192.578242,25.3942747 188.134945,29.808 182.20322,29.808 Z" id="Fill-6" fill="#0B0B09"></path>
            <path d="M204.89133,12.601978 C204.048165,11.3933407 202.67044,10.6062857 200.786967,10.6062857 C198.81933,10.6062857 196.543088,11.7868681 196.543088,14.3451758 C196.543088,16.8754286 198.650242,17.5222088 200.871132,18.2531538 C203.681934,19.1812418 206.77556,20.0805165 206.77556,24.0726593 C206.77556,28.0648022 203.42944,29.808 200.280462,29.808 C197.863945,29.808 195.444396,28.8238022 194.011319,26.8554066 L195.753758,25.5626044 C196.626495,26.9683846 198.228659,28.0648022 200.309275,28.0648022 C202.361077,28.0648022 204.722242,26.7712418 204.722242,24.2136923 C204.722242,21.4294286 202.389132,20.7272967 199.858879,19.9402418 C197.217165,19.1251319 194.517824,17.9718462 194.517824,14.3732308 C194.517824,10.5213626 197.947352,8.89114286 200.871132,8.89114286 C203.543176,8.89114286 205.53811,10.0156154 206.494253,11.3091758 L204.89133,12.601978" id="Fill-7" fill="#0B0B09"></path>
            <polygon id="Fill-9" fill="#000000" points="0.0454945055 39.4285714 85.0421209 39.4285714 85.0421209 0.222923077 0.0454945055 0.222923077"></polygon>
            <path d="M46.2345495,9.44693407 L42.3561429,24.382022 C42.0073516,22.7419451 38.4777363,9.44693407 38.4777363,9.44693407 L31.0189121,9.44693407 L31.0189121,30.2197253 L35.8913736,30.2197253 L35.8913736,14.9942308 L40.1125055,30.2197253 L44.6020549,30.2197253 L48.826978,14.9942308 L48.826978,30.2197253 L53.6941319,30.2197253 L53.6873077,9.44693407 L46.2345495,9.44693407" id="Fill-11" fill="#FFFFFE"></path>
            <path d="M23.594967,22.2892747 C23.594967,22.908 23.4228462,23.5176264 23.1316813,24.1318022 C22.5774066,25.3563626 20.5309121,26.6044286 17.9506154,26.6044286 C15.7198681,26.6044286 14.148033,25.8856154 14.148033,24.2925495 C14.148033,22.130044 16.6214176,21.5196593 18.4472637,21.3338901 C20.264011,21.1503956 21.4203297,21.135989 22.1626484,21.1382637 C22.3324945,21.1382637 23.594967,21.139022 23.594967,21.139022 L23.594967,22.2892747 Z M19.2820879,8.94497802 C11.3592198,8.94497802 10.1270769,14.1434835 10.1270769,15.7244176 L14.8448571,15.7244176 C15.1944066,14.4551209 16.1588901,13.0258352 19.3601868,13.0258352 C23.1908242,13.0258352 23.5600879,16.1414505 23.5600879,16.8814945 C23.5600879,16.9800659 23.5562967,17.3622198 23.5562967,17.3622198 L23.5562967,17.362978 C23.5562967,17.362978 22.1391429,17.3622198 22.1194286,17.3622198 C15.1064505,17.3622198 9.32561538,18.7369121 9.32561538,24.3365275 C9.32561538,27.2527253 12.2698681,30.7103077 16.8087033,30.7103077 C19.7249011,30.7103077 22.5607253,29.5259341 23.6609341,28.6259011 L23.7868022,30.2197253 L28.2771099,30.2197253 L28.2771099,18.9295055 C28.2771099,12.5481429 25.9652308,8.94497802 19.2820879,8.94497802 Z" id="Fill-12" fill="#FFFFFE"></path>
            <path d="M71.0161648,22.287 C70.2397253,24.7110989 68.3213736,26.3458681 65.9579341,26.3458681 C62.8582418,26.3458681 60.5236154,23.5380989 60.5236154,19.8257473 C60.5236154,16.1164286 62.8582418,13.3063846 65.9579341,13.3063846 C68.3084835,13.3063846 70.2177363,14.9237143 71.004033,17.3212747 L75.7051319,17.3212747 C74.7186593,12.4124176 70.859967,8.94118681 65.9579341,8.94118681 C60.0967253,8.94118681 55.962033,13.3571868 55.962033,19.8257473 C55.962033,26.0205824 60.0717033,30.7103077 65.9579341,30.7103077 C70.8751319,30.7103077 74.7429231,27.2201209 75.7134725,22.287 L71.0161648,22.287" id="Fill-13" fill="#FFFFFE"></path>
            <path d="M87.695967,1.80689011 L87.695967,1.25640659 L88.0121538,1.25640659 C88.1926154,1.25640659 88.3958242,1.30948352 88.3958242,1.52027473 C88.3958242,1.75457143 88.1698681,1.80689011 87.9742418,1.80689011 L87.695967,1.80689011 Z M88.7423407,1.52785714 C88.7423407,1.1130989 88.3882418,0.962208791 88.0273187,0.962208791 L87.3502088,0.962208791 L87.3502088,2.89345055 L87.695967,2.89345055 L87.695967,2.08668132 L87.9446703,2.08668132 L88.3958242,2.89345055 L88.8174066,2.89345055 L88.298011,2.04876923 C88.5687033,1.98810989 88.7423407,1.80689011 88.7423407,1.52785714 Z M88.0197363,3.38403297 C87.2220659,3.38403297 86.5745275,2.7273956 86.5745275,1.93579121 C86.5745275,1.13584615 87.2220659,0.486791209 88.0197363,0.486791209 C88.8174066,0.486791209 89.4649451,1.13584615 89.4649451,1.93579121 C89.4649451,2.7273956 88.8174066,3.38403297 88.0197363,3.38403297 Z M88.0197363,0.222923077 C87.0711758,0.222923077 86.3038352,0.984956044 86.3038352,1.93579121 C86.3038352,2.88586813 87.0711758,3.63273626 88.0197363,3.63273626 C88.9675385,3.63273626 89.7356374,2.88586813 89.7356374,1.93579121 C89.7356374,0.984956044 88.9675385,0.222923077 88.0197363,0.222923077 Z" id="Fill-14" fill="#0B0B09"></path>
        </g>
    </g>
</svg>