<?xml version="1.0" encoding="UTF-8"?>
<svg width="32px" height="32px" viewBox="0 0 32 32" version="1.1" xmlns="http://www.w3.org/2000/svg" xmlns:xlink="http://www.w3.org/1999/xlink">
    <!-- Generator: sketchtool 48.2 (47327) - http://www.bohemiancoding.com/sketch -->
    <title>B892DB50-DBA3-4A14-8BED-156FAFE9ED48</title>
    <desc>Created with sketchtool.</desc>
    <defs></defs>
    <g id="icon/hero/chevron-left" stroke="none" stroke-width="1" fill="none" fill-rule="evenodd">
        <path d="M10.3169547,13.3477483 C10.7529531,12.9017489 11.3599508,12.866749 11.8929488,13.3477483 L15.8009344,17.0947435 L19.70892,13.3477483 C20.241918,12.866749 20.8499157,12.9017489 21.2829141,13.3477483 C21.7189125,13.7927478 21.6909126,14.5447468 21.2829141,14.9627463 C20.8769156,15.3807457 16.5879315,19.4647404 16.5879315,19.4647404 C16.3709323,19.6877401 16.0859333,19.79974 15.8009344,19.79974 C15.5159354,19.79974 15.2309365,19.6877401 15.0119373,19.4647404 C15.0119373,19.4647404 10.7249532,15.3807457 10.3169547,14.9627463 C9.90795618,14.5447468 9.88095628,13.7927478 10.3169547,13.3477483" id="Page-1" fill="#7CDAE1" transform="translate(15.799750, 16.399870) rotate(90.000000) translate(-15.799750, -16.399870) "></path>
    </g>
</svg>