<?xml version="1.0" encoding="UTF-8"?>
<svg width="32px" height="32px" viewBox="0 0 32 32" version="1.1" xmlns="http://www.w3.org/2000/svg" xmlns:xlink="http://www.w3.org/1999/xlink">
    <!-- Generator: sketchtool 48.2 (47327) - http://www.bohemiancoding.com/sketch -->
    <title>01570F25-041D-4BE2-AE63-E9AE7C0D88F4</title>
    <desc>Created with sketchtool.</desc>
    <defs></defs>
    <g id="icon/hero/double-chevron-right" stroke="none" stroke-width="1" fill="none" fill-rule="evenodd">
        <path d="M14.7174547,13.3477483 C15.1534531,12.9017489 15.7604508,12.866749 16.2934488,13.3477483 L20.2014344,17.0947435 L24.10942,13.3477483 C24.642418,12.866749 25.2504157,12.9017489 25.6834141,13.3477483 C26.1194125,13.7927478 26.0914126,14.5447468 25.6834141,14.9627463 C25.2774156,15.3807457 20.9884315,19.4647404 20.9884315,19.4647404 C20.7714323,19.6877401 20.4864333,19.79974 20.2014344,19.79974 C19.9164354,19.79974 19.6314365,19.6877401 19.4124373,19.4647404 C19.4124373,19.4647404 15.1254532,15.3807457 14.7174547,14.9627463 C14.3084562,14.5447468 14.2814563,13.7927478 14.7174547,13.3477483" id="Page-1" fill="#7CDAE1" transform="translate(20.200250, 16.399870) scale(-1, 1) rotate(90.000000) translate(-20.200250, -16.399870) "></path>
        <path d="M6.71745467,13.3477483 C7.15345306,12.9017489 7.76045081,12.866749 8.29344884,13.3477483 L12.2014344,17.0947435 L16.10942,13.3477483 C16.642418,12.866749 17.2504157,12.9017489 17.6834141,13.3477483 C18.1194125,13.7927478 18.0914126,14.5447468 17.6834141,14.9627463 C17.2774156,15.3807457 12.9884315,19.4647404 12.9884315,19.4647404 C12.7714323,19.6877401 12.4864333,19.79974 12.2014344,19.79974 C11.9164354,19.79974 11.6314365,19.6877401 11.4124373,19.4647404 C11.4124373,19.4647404 7.12545316,15.3807457 6.71745467,14.9627463 C6.30845618,14.5447468 6.28145628,13.7927478 6.71745467,13.3477483" id="Page-1" fill="#7CDAE1" transform="translate(12.200250, 16.399870) scale(-1, 1) rotate(90.000000) translate(-12.200250, -16.399870) "></path>
    </g>
</svg>