<?xml version="1.0" encoding="UTF-8"?>
<svg width="32px" height="32px" viewBox="0 0 32 32" version="1.1" xmlns="http://www.w3.org/2000/svg" xmlns:xlink="http://www.w3.org/1999/xlink">
    <!-- Generator: sketchtool 48.2 (47327) - http://www.bohemiancoding.com/sketch -->
    <title>9ADB2DD5-B377-40AE-BF72-291D8EA1ECEA</title>
    <desc>Created with sketchtool.</desc>
    <defs></defs>
    <g id="icon/hero/double-chevron-left" stroke="none" stroke-width="1" fill="none" fill-rule="evenodd">
        <path d="M6.31695467,13.3477483 C6.75295306,12.9017489 7.35995081,12.866749 7.89294884,13.3477483 L11.8009344,17.0947435 L15.70892,13.3477483 C16.241918,12.866749 16.8499157,12.9017489 17.2829141,13.3477483 C17.7189125,13.7927478 17.6909126,14.5447468 17.2829141,14.9627463 C16.8769156,15.3807457 12.5879315,19.4647404 12.5879315,19.4647404 C12.3709323,19.6877401 12.0859333,19.79974 11.8009344,19.79974 C11.5159354,19.79974 11.2309365,19.6877401 11.0119373,19.4647404 C11.0119373,19.4647404 6.72495316,15.3807457 6.31695467,14.9627463 C5.90795618,14.5447468 5.88095628,13.7927478 6.31695467,13.3477483" id="Page-1" fill="#7CDAE1" transform="translate(11.799750, 16.399870) rotate(90.000000) translate(-11.799750, -16.399870) "></path>
        <path d="M14.3169547,13.3477483 C14.7529531,12.9017489 15.3599508,12.866749 15.8929488,13.3477483 L19.8009344,17.0947435 L23.70892,13.3477483 C24.241918,12.866749 24.8499157,12.9017489 25.2829141,13.3477483 C25.7189125,13.7927478 25.6909126,14.5447468 25.2829141,14.9627463 C24.8769156,15.3807457 20.5879315,19.4647404 20.5879315,19.4647404 C20.3709323,19.6877401 20.0859333,19.79974 19.8009344,19.79974 C19.5159354,19.79974 19.2309365,19.6877401 19.0119373,19.4647404 C19.0119373,19.4647404 14.7249532,15.3807457 14.3169547,14.9627463 C13.9079562,14.5447468 13.8809563,13.7927478 14.3169547,13.3477483" id="Page-1" fill="#7CDAE1" transform="translate(19.799750, 16.399870) rotate(90.000000) translate(-19.799750, -16.399870) "></path>
    </g>
</svg>