<?xml version="1.0" encoding="UTF-8"?>
<svg width="32px" height="32px" viewBox="0 0 32 32" version="1.1" xmlns="http://www.w3.org/2000/svg" xmlns:xlink="http://www.w3.org/1999/xlink">
    <!-- Generator: sketchtool 48.2 (47327) - http://www.bohemiancoding.com/sketch -->
    <title>B126B5F2-33B1-4CAC-8234-E443E4381528</title>
    <desc>Created with sketchtool.</desc>
    <defs></defs>
    <g id="icon/dark/filters" stroke="none" stroke-width="1" fill="none" fill-rule="evenodd">
        <path d="M16,12.1229 C12.409,12.1219 9.862,10.7899 9.862,10.2919 C9.86,9.7969 12.41,8.4609 16,8.4629 C19.59,8.4609 22.14,9.7969 22.138,10.2909 C22.138,10.7899 19.591,12.1219 16,12.1229 M16,6.9999 C11.092,6.9999 8,8.5119 8,10.0009 L8,12.0009 C8,12.9189 14,18.0009 14,18.0009 L14,24.0009 C13.999,24.6849 15,25.0009 16,25.0009 C17,25.0009 18.001,24.6849 18,24.0009 L18,18.0009 C18,18.0009 24,12.9189 24,12.0009 L24,10.0009 C24,8.5119 20.908,6.9999 16,6.9999" id="Fill-1" fill="#000000"></path>
    </g>
</svg>