<?xml version="1.0" encoding="UTF-8"?>
<svg width="32px" height="32px" viewBox="0 0 32 32" version="1.1" xmlns="http://www.w3.org/2000/svg" xmlns:xlink="http://www.w3.org/1999/xlink">
    <!-- Generator: sketchtool 48.2 (47327) - http://www.bohemiancoding.com/sketch -->
    <title>D9881173-556B-4641-90DD-745B4D6924B5</title>
    <desc>Created with sketchtool.</desc>
    <defs></defs>
    <g id="icon/dark/hamburger" stroke="none" stroke-width="1" fill="none" fill-rule="evenodd">
        <path d="M9.6001,13 L22.4001,13 C22.9521,13 23.0001,12.553 23.0001,12 C23.0001,11.447 22.9521,11 22.4001,11 L9.6001,11 C9.0481,11 9.0001,11.447 9.0001,12 C9.0001,12.553 9.0481,13 9.6001,13 M22.4001,19 L9.6001,19 C9.0481,19 9.0001,19.447 9.0001,20 C9.0001,20.553 9.0481,21 9.6001,21 L22.4001,21 C22.9521,21 23.0001,20.553 23.0001,20 C23.0001,19.447 22.9521,19 22.4001,19 M22.4001,15 L9.6001,15 C9.0481,15 9.0001,15.447 9.0001,16 C9.0001,16.553 9.0481,17 9.6001,17 L22.4001,17 C22.9521,17 23.0001,16.553 23.0001,16 C23.0001,15.447 22.9521,15 22.4001,15" id="Fill-1" fill="#000000"></path>
    </g>
</svg>