<?xml version="1.0" encoding="UTF-8"?>
<svg width="32px" height="32px" viewBox="0 0 32 32" version="1.1" xmlns="http://www.w3.org/2000/svg" xmlns:xlink="http://www.w3.org/1999/xlink">
    <!-- Generator: sketchtool 48.2 (47327) - http://www.bohemiancoding.com/sketch -->
    <title>82CA5417-D555-475D-A566-094F6FCDA3C9</title>
    <desc>Created with sketchtool.</desc>
    <defs></defs>
    <g id="icon/light/info" stroke="none" stroke-width="1" fill="none" fill-rule="evenodd">
        <path d="M13.9091,26 C12.8511,26 12.0761,25.348 12.8161,22.476 L14.0301,17.384 C14.2411,16.57 14.2761,16.243 14.0301,16.243 C13.7131,16.243 12.3411,16.805 11.5281,17.36 L11.0001,16.48 C13.5721,14.294 16.5311,13.013 17.8011,13.013 C18.8581,13.013 19.0341,14.286 18.5061,16.243 L17.1151,21.595 C16.8681,22.54 16.9741,22.866 17.2211,22.866 C17.5381,22.866 18.5771,22.474 19.6001,21.659 L20.2001,22.473 C17.6981,25.02 14.9651,26 13.9091,26 M18.0321,6 C19.3721,6 20.0421,6.912 20.0421,7.957 C20.0421,9.262 18.8781,10.469 17.3631,10.469 C16.0941,10.469 15.3541,9.719 15.3891,8.479 C15.3891,7.436 16.2701,6 18.0321,6" id="Fill-1" fill="#FFFFFF"></path>
    </g>
</svg>