<?xml version="1.0" encoding="UTF-8"?>
<svg width="44px" height="44px" viewBox="0 0 44 44" version="1.1" xmlns="http://www.w3.org/2000/svg" xmlns:xlink="http://www.w3.org/1999/xlink">
    <!-- Generator: sketchtool 48.2 (47327) - http://www.bohemiancoding.com/sketch -->
    <title>6A6CD267-AD38-44B8-99C4-E64EE6C18BDA</title>
    <desc>Created with sketchtool.</desc>
    <defs>
        <linearGradient x1="15.0104025%" y1="85.0755774%" x2="86.8609885%" y2="15.8107592%" id="linearGradient-1">
            <stop stop-color="#FFD700" offset="0%"></stop>
            <stop stop-color="#F80000" offset="49.5220789%"></stop>
            <stop stop-color="#BC00B2" offset="100%"></stop>
        </linearGradient>
    </defs>
    <g id="icon/social/colour/instagram" stroke="none" stroke-width="1" fill="none" fill-rule="evenodd">
        <rect id="bg" fill="url(#linearGradient-1)" x="0" y="0" width="44" height="44" rx="22"></rect>
        <path d="M21.6,17.4 C19.28,17.4 17.4,19.28 17.4,21.6 C17.4,23.92 19.28,25.8 21.6,25.8 C23.919,25.8 25.8,23.92 25.8,21.6 C25.8,19.28 23.919,17.4 21.6,17.4 M21.6,28.071 C18.027,28.071 15.13,25.173 15.13,21.6 C15.13,18.027 18.027,15.13 21.6,15.13 C25.173,15.13 28.071,18.027 28.071,21.6 C28.071,25.173 25.173,28.071 21.6,28.071 M28.326,16.386 C27.491,16.386 26.814,15.709 26.814,14.874 C26.814,14.039 27.491,13.362 28.326,13.362 C29.161,13.362 29.838,14.039 29.838,14.874 C29.838,15.709 29.161,16.386 28.326,16.386 M31.856,16.509 C31.8,15.28 31.595,14.613 31.422,14.169 C31.194,13.581 30.92,13.161 30.48,12.72 C30.039,12.279 29.62,12.006 29.031,11.778 C28.587,11.605 27.92,11.4 26.692,11.344 C25.363,11.283 24.964,11.271 21.6,11.271 C18.236,11.271 17.837,11.283 16.509,11.344 C15.28,11.4 14.613,11.605 14.169,11.778 C13.581,12.006 13.161,12.279 12.72,12.72 C12.279,13.161 12.006,13.581 11.778,14.169 C11.605,14.613 11.4,15.28 11.344,16.509 C11.283,17.837 11.27,18.236 11.27,21.6 C11.27,24.964 11.283,25.363 11.344,26.692 C11.4,27.921 11.605,28.588 11.778,29.031 C12.006,29.62 12.279,30.04 12.72,30.48 C13.161,30.921 13.581,31.194 14.169,31.422 C14.613,31.595 15.28,31.8 16.509,31.856 C17.837,31.918 18.235,31.93 21.6,31.93 C24.964,31.93 25.363,31.918 26.692,31.856 C27.92,31.8 28.587,31.595 29.031,31.422 C29.62,31.194 30.039,30.921 30.48,30.48 C30.92,30.04 31.194,29.62 31.422,29.031 C31.595,28.588 31.8,27.921 31.856,26.692 C31.916,25.363 31.93,24.964 31.93,21.6 C31.93,18.236 31.916,17.837 31.856,16.509 M34.124,26.796 C34.063,28.136 33.85,29.052 33.538,29.854 C33.216,30.682 32.786,31.385 32.085,32.086 C31.385,32.786 30.682,33.216 29.854,33.539 C29.052,33.85 28.136,34.063 26.795,34.125 C25.451,34.186 25.022,34.2 21.6,34.2 C18.178,34.2 17.749,34.186 16.405,34.125 C15.064,34.063 14.148,33.85 13.347,33.539 C12.518,33.216 11.815,32.786 11.115,32.086 C10.414,31.385 9.983,30.682 9.662,29.854 C9.35,29.052 9.137,28.136 9.076,26.796 C9.015,25.451 9,25.022 9,21.6 C9,18.178 9.015,17.749 9.076,16.405 C9.137,15.064 9.35,14.148 9.662,13.347 C9.983,12.518 10.414,11.816 11.115,11.115 C11.815,10.415 12.518,9.983 13.347,9.662 C14.148,9.35 15.064,9.137 16.405,9.076 C17.749,9.015 18.178,9 21.6,9 C25.022,9 25.451,9.015 26.795,9.076 C28.136,9.137 29.052,9.35 29.854,9.662 C30.682,9.983 31.385,10.415 32.085,11.115 C32.786,11.816 33.216,12.518 33.538,13.347 C33.85,14.148 34.063,15.064 34.124,16.405 C34.186,17.749 34.2,18.178 34.2,21.6 C34.2,25.022 34.186,25.451 34.124,26.796" id="Fill-1" fill="#FFFFFF"></path>
    </g>
</svg>