<!-- Generator: Adobe Illustrator 21.0.2, SVG Export Plug-In  -->
<svg version="1.1"
   xmlns="http://www.w3.org/2000/svg" xmlns:xlink="http://www.w3.org/1999/xlink" xmlns:a="http://ns.adobe.com/AdobeSVGViewerExtensions/3.0/"
   x="0px" y="0px" width="212px" height="40px" viewBox="0 0 212 40" style="enable-background:new 0 0 212 40;"
   xml:space="preserve">
<style type="text/css">
  .st0{fill:#FFFFFE;}
  .st1{fill:#11100F;}
</style>
<defs>
</defs>
<g id="logo_x2F_white_1_">
  <g id="Group_1_" transform="translate(0.000000, 9.000000)">
    <path id="Fill-1_1_" class="st0" d="M106.1,3.6c-0.9-1.2-2.3-2-4.2-2c-2,0-4.4,1.2-4.4,3.8c0,2.6,2.2,3.2,4.4,4
      c2.9,0.9,6.1,1.9,6.1,5.9s-3.4,5.9-6.7,5.9c-2.5,0-5-1-6.4-3l1.8-1.3c0.9,1.4,2.5,2.6,4.7,2.6c2.1,0,4.5-1.3,4.5-3.9
      c0-2.8-2.4-3.6-5-4.4c-2.7-0.8-5.5-2-5.5-5.7c0-3.9,3.5-5.6,6.5-5.6c2.7,0,4.8,1.2,5.8,2.5L106.1,3.6"/>
    <polyline id="Fill-2_1_" class="st0" points="119.3,20.7 117.3,20.7 117.3,2.1 110.4,2.1 110.4,0.3 126.2,0.3 126.2,2.1 
      119.3,2.1 119.3,20.7    "/>
    <path id="Fill-3_1_" class="st0" d="M128.7,13.1V0.3h2.1v12.5c0,3.3,1.4,6.5,5.6,6.5c4.2,0,5.6-3.2,5.6-6.5V0.3h2.1v12.8
      c0,3.4-1.5,8.1-7.6,8.1C130.2,21.2,128.7,16.5,128.7,13.1"/>
    <path id="Fill-4_1_" class="st0" d="M150.9,18.8h4.1c6.1,0,9.1-4.1,9.1-8.3c0-4.2-3-8.3-9.1-8.3h-4.1V18.8z M148.8,0.3h6.8
      c5.1,0,10.7,3.4,10.7,10.2s-5.6,10.2-10.7,10.2h-6.8V0.3z"/>
    <polygon id="Fill-5_1_" class="st0" points="170.2,20.7 172.3,20.7 172.3,0.3 170.2,0.3     "/>
    <path id="Fill-6_1_" class="st0" d="M186.8,1.6c-5.2,0-8.4,4.1-8.4,8.9s3.2,8.9,8.4,8.9c5.2,0,8.4-4.1,8.4-8.9
      S192.1,1.6,186.8,1.6z M186.8,21.2c-6.1,0-10.6-4.5-10.6-10.7s4.6-10.7,10.6-10.7c6.1,0,10.6,4.5,10.6,10.7S192.9,21.2,186.8,21.2
      z"/>
    <path id="Fill-7_1_" class="st0" d="M210.1,3.6c-0.9-1.2-2.3-2-4.2-2c-2,0-4.4,1.2-4.4,3.8c0,2.6,2.2,3.2,4.4,4
      c2.9,0.9,6.1,1.9,6.1,5.9s-3.4,5.9-6.7,5.9c-2.5,0-5-1-6.4-3l1.8-1.3c0.9,1.4,2.5,2.6,4.7,2.6c2.1,0,4.5-1.3,4.5-3.9
      c0-2.8-2.4-3.6-5-4.4c-2.7-0.8-5.5-2-5.5-5.7c0-3.9,3.5-5.6,6.5-5.6c2.7,0,4.8,1.2,5.8,2.5L210.1,3.6"/>
    <polygon id="Fill-8_1_" class="st0" points="0,31 87,31 87,-9 0,-9     "/>
    <path id="Fill-9_1_" class="st1" d="M47.3,0.4l-4,15.2c-0.4-1.7-4-15.2-4-15.2h-7.6v21.2h5V6.1l4.3,15.5h4.6L50,6.1v15.5h5l0-21.2
      H47.3"/>
    <path id="Fill-10_1_" class="st1" d="M24.1,13.5c0,0.6-0.2,1.3-0.5,1.9c-0.6,1.2-2.7,2.5-5.3,2.5c-2.3,0-3.9-0.7-3.9-2.4
      c0-2.2,2.5-2.8,4.4-3c1.9-0.2,3-0.2,3.8-0.2c0.2,0,1.5,0,1.5,0V13.5z M19.7-0.1c-8.1,0-9.4,5.3-9.4,6.9h4.8
      c0.4-1.3,1.3-2.8,4.6-2.8c3.9,0,4.3,3.2,4.3,3.9c0,0.1,0,0.5,0,0.5v0c0,0-1.5,0-1.5,0c-7.2,0-13.1,1.4-13.1,7.1c0,3,3,6.5,7.7,6.5
      c3,0,5.9-1.2,7-2.1l0.1,1.6h4.6V10.1C28.9,3.6,26.6-0.1,19.7-0.1z"/>
    <path id="Fill-11_1_" class="st1" d="M72.7,13.5c-0.8,2.5-2.8,4.1-5.2,4.1c-3.2,0-5.6-2.9-5.6-6.7c0-3.8,2.4-6.7,5.6-6.7
      c2.4,0,4.4,1.7,5.2,4.1h4.8c-1-5-5-8.6-10-8.6c-6,0-10.2,4.5-10.2,11.1c0,6.3,4.2,11.1,10.2,11.1c5,0,9-3.6,10-8.6H72.7"/>
    <path id="Fill-12_1_" class="st0" d="M89.8-7.4v-0.6h0.3c0.2,0,0.4,0.1,0.4,0.3c0,0.2-0.2,0.3-0.4,0.3H89.8z M90.8-7.7
      c0-0.4-0.4-0.6-0.7-0.6h-0.7v2h0.4v-0.8H90l0.5,0.8h0.4l-0.5-0.9C90.6-7.2,90.8-7.4,90.8-7.7z M90.1-5.8c-0.8,0-1.5-0.7-1.5-1.5
      c0-0.8,0.7-1.5,1.5-1.5c0.8,0,1.5,0.7,1.5,1.5C91.6-6.4,90.9-5.8,90.1-5.8z M90.1-9c-1,0-1.8,0.8-1.8,1.7c0,1,0.8,1.7,1.8,1.7
      c1,0,1.8-0.8,1.8-1.7C91.8-8.2,91.1-9,90.1-9z"/>
  </g>
</g>
</svg>
