<?xml version="1.0" encoding="UTF-8"?>
<svg width="32px" height="32px" viewBox="0 0 32 32" version="1.1" xmlns="http://www.w3.org/2000/svg" xmlns:xlink="http://www.w3.org/1999/xlink">
    <!-- Generator: sketchtool 48.2 (47327) - http://www.bohemiancoding.com/sketch -->
    <title>0370A11D-A8C1-4D42-A4FA-B4559A260EDA</title>
    <desc>Created with sketchtool.</desc>
    <defs></defs>
    <g id="icon/mid/mag-glass" stroke="none" stroke-width="1" fill="none" fill-rule="evenodd">
        <path d="M14.3771,18.6597 C12.0111,18.6587 9.9041,16.5507 9.9041,14.1857 C9.9041,11.8197 11.8211,9.9027 14.1861,9.9027 C16.5521,9.9027 18.6601,12.0097 18.6601,14.3767 C18.6601,16.7417 16.7421,18.6597 14.3771,18.6597 M23.4451,21.3657 L19.6661,17.5867 C20.2361,16.6517 20.5641,15.5517 20.5641,14.3767 C20.5641,10.9597 17.6031,7.9997 14.1861,7.9997 C10.7691,7.9987 8.0001,10.7687 8.0001,14.1857 C8.0001,17.6017 10.9611,20.5627 14.3771,20.5627 C15.5141,20.5627 16.5771,20.2547 17.4921,19.7197 L21.2911,23.5197 C21.6631,23.8907 22.2661,23.8907 22.6371,23.5197 L23.5801,22.5767 C23.9511,22.2057 23.8161,21.7367 23.4451,21.3657" id="Fill-1" fill="#4D4D4D"></path>
    </g>
</svg>