<?xml version="1.0" encoding="UTF-8"?>
<svg width="32px" height="32px" viewBox="0 0 32 32" version="1.1" xmlns="http://www.w3.org/2000/svg" xmlns:xlink="http://www.w3.org/1999/xlink">
    <!-- Generator: sketchtool 48.2 (47327) - http://www.bohemiancoding.com/sketch -->
    <title>2FF55306-6B17-4B3A-A5E1-02C6DCDC10A1</title>
    <desc>Created with sketchtool.</desc>
    <defs></defs>
    <g id="icon/mid/pen" stroke="none" stroke-width="1" fill="none" fill-rule="evenodd">
        <path d="M16.0328,21.1025 L13.9898,21.8915 C13.9098,21.9225 13.8208,21.8975 13.7688,21.8305 C13.5058,21.4955 13.1928,21.1635 12.6938,20.7995 C12.1948,20.4375 11.7828,20.2415 11.3838,20.0935 C11.3038,20.0635 11.2528,19.9875 11.2578,19.9015 L11.3798,17.7155 L11.9288,16.9605 C11.9288,16.9605 13.1578,16.7915 14.7618,17.9585 C16.3638,19.1245 16.5828,20.3465 16.5828,20.3465 L16.0328,21.1025 Z M21.7458,8.2985 C19.8518,6.9195 18.5038,6.9495 17.9918,7.0325 C17.8478,7.0555 17.7268,7.1385 17.6418,7.2555 L13.0218,13.6295 L10.7588,16.7525 C10.4818,17.1345 10.3218,17.5885 10.2968,18.0595 L10.0008,23.6835 C9.9798,24.0885 10.3828,24.3815 10.7608,24.2365 L16.0168,22.2265 C16.4598,22.0565 16.8448,21.7615 17.1228,21.3775 L18.9668,18.8325 L24.0028,11.8835 C24.0918,11.7605 24.1278,11.6105 24.1028,11.4605 C24.0188,10.9345 23.6158,9.6585 21.7458,8.2985 Z" id="Fill-1" fill="#98A4A5"></path>
    </g>
</svg>