<?xml version="1.0" encoding="utf-8"?>
<!-- Generator: Adobe Illustrator 21.0.2, SVG Export Plug-In . SVG Version: 6.00 Build 0)  -->
<svg version="1.1" id="Layer_1" xmlns="http://www.w3.org/2000/svg" xmlns:xlink="http://www.w3.org/1999/xlink" x="0px" y="0px"
   viewBox="0 0 32 32" style="enable-background:new 0 0 32 32;" xml:space="preserve">
<style type="text/css">
  .st0{fill:#FFFFFF;}
</style>
<title>icon/light/thumbs up</title>
<desc>Created with Sketch.</desc>
<g id="icon_x2F_light_x2F_thumbs-up">
  <path id="Fill-1" class="st0" d="M11,12.5c-0.7,0-3,0.4-3,3.1v4.8c0,2.7,2.3,3,3,3c0.7,0-1-0.6-1-2.3v-6.4C10,13,11.7,12.5,11,12.5
     M19.6,12.4C19.5,12,23.2,8.7,21,6.1c-0.5-0.6-2.2,3-4.6,4.6c-1.3,0.9-4.4,2.8-4.4,3.9v6.8c0,1.3,4.9,2.6,8.6,2.6
    c1.4,0,3.4-8.6,3.4-9.9C24,12.7,19.8,12.7,19.6,12.4"/>
</g>
</svg>
