<?xml version="1.0" encoding="UTF-8"?>
<svg width="44px" height="44px" viewBox="0 0 44 44" version="1.1" xmlns="http://www.w3.org/2000/svg" xmlns:xlink="http://www.w3.org/1999/xlink">
    <!-- Generator: sketchtool 48.2 (47327) - http://www.bohemiancoding.com/sketch -->
    <title>4B400EED-4504-4D06-88A7-045EC4FC616B</title>
    <desc>Created with sketchtool.</desc>
    <defs></defs>
    <g id="icon/social/colour/twitter" stroke="none" stroke-width="1" fill="none" fill-rule="evenodd">
        <rect id="bg" fill="#50AAF0" x="0" y="0" width="44" height="44" rx="22"></rect>
        <path d="M28.001,12 C25.055,12 22.667,14.374 22.667,17.301 C22.667,17.717 22.714,18.122 22.805,18.509 C18.371,18.289 14.441,16.178 11.81,12.97 C11.351,13.753 11.088,14.664 11.088,15.636 C11.088,17.475 12.029,19.098 13.461,20.048 C12.586,20.021 11.764,19.782 11.044,19.385 C11.044,19.407 11.044,19.429 11.044,19.452 C11.044,22.021 12.883,24.163 15.323,24.65 C14.876,24.771 14.404,24.836 13.918,24.836 C13.574,24.836 13.24,24.803 12.914,24.741 C13.593,26.848 15.563,28.38 17.897,28.423 C16.071,29.845 13.772,30.692 11.272,30.692 C10.842,30.692 10.417,30.667 10,30.618 C12.36,32.122 15.165,33 18.177,33 C27.988,33 33.354,24.922 33.354,17.916 C33.354,17.686 33.349,17.458 33.339,17.23 C34.381,16.483 35.285,15.549 36,14.486 C35.044,14.908 34.016,15.192 32.937,15.321 C34.038,14.665 34.884,13.625 35.282,12.388 C34.251,12.995 33.109,13.437 31.895,13.674 C30.922,12.644 29.535,12 28.001,12" id="Fill-1" fill="#FFFFFF"></path>
    </g>
</svg>