<?xml version="1.0" encoding="UTF-8"?>
<svg width="207px" height="58px" viewBox="0 0 207 58" version="1.1" xmlns="http://www.w3.org/2000/svg" xmlns:xlink="http://www.w3.org/1999/xlink">
    <!-- Generator: sketchtool 48.2 (47327) - http://www.bohemiancoding.com/sketch -->
    <title>8C7BFC31-E64C-4A45-9337-54F1DEDAA752</title>
    <desc>Created with sketchtool.</desc>
    <defs></defs>
    <g id="logo/white" stroke="none" stroke-width="1" fill="none" fill-rule="evenodd">
        <g id="Group" transform="translate(0.000000, 9.000000)">
            <path d="M103.454505,12.4063516 C102.610582,11.1977143 101.235132,10.4099011 99.3501429,10.4099011 C97.3832637,10.4099011 95.1055055,11.5912418 95.1055055,14.1495495 C95.1055055,16.6798022 97.2141758,17.3258242 99.4350659,18.0575275 C102.245868,18.9848571 105.337978,19.8848901 105.337978,23.877033 C105.337978,27.8691758 101.992615,29.6123736 98.8451538,29.6123736 C96.4271209,29.6123736 94.0090879,28.6281758 92.5744945,26.6597802 L94.3184505,25.366978 C95.1896703,26.7727582 96.7918352,27.8691758 98.8732088,27.8691758 C100.924253,27.8691758 103.285418,26.5756154 103.285418,24.0173077 C103.285418,21.2338022 100.953066,20.5309121 98.4235714,19.7438571 C95.7810989,18.9287473 93.081,17.7762198 93.081,14.1776044 C93.081,10.3257363 96.5105275,8.69475824 99.4350659,8.69475824 C102.104835,8.69475824 104.101286,9.81998901 105.05667,11.1127912 L103.454505,12.4063516" id="Fill-1" fill="#FFFFFE"></path>
            <polyline id="Fill-2" fill="#FFFFFE" points="116.387835 29.1066264 114.362571 29.1066264 114.362571 11.0005714 107.701418 11.0005714 107.701418 9.20126374 123.051264 9.20126374 123.051264 11.0005714 116.387835 11.0005714 116.387835 29.1066264"></polyline>
            <path d="M125.496593,21.6834396 L125.496593,9.20126374 L127.519582,9.20126374 L127.519582,21.459 C127.519582,24.6640879 128.898824,27.8138242 132.946319,27.8138242 C136.996088,27.8138242 138.373813,24.6640879 138.373813,21.459 L138.373813,9.20126374 L140.39756,9.20126374 L140.39756,21.6834396 C140.39756,25.0007473 138.906099,29.6123736 132.946319,29.6123736 C126.988055,29.6123736 125.496593,25.0007473 125.496593,21.6834396" id="Fill-3" fill="#FFFFFE"></path>
            <path d="M147.173209,27.3073187 L151.193407,27.3073187 C157.180484,27.3073187 160.077725,23.2583077 160.077725,19.1539451 C160.077725,15.0488242 157.180484,11.0005714 151.193407,11.0005714 L147.173209,11.0005714 L147.173209,27.3073187 Z M145.148703,9.20126374 L151.755264,9.20126374 C156.731604,9.20126374 162.213692,12.5185714 162.213692,19.1539451 C162.213692,25.7893187 156.731604,29.1066264 151.755264,29.1066264 L145.148703,29.1066264 L145.148703,9.20126374 Z" id="Fill-4" fill="#FFFFFE"></path>
            <polygon id="Fill-5" fill="#FFFFFE" points="166.007934 29.1066264 168.033198 29.1066264 168.033198 9.20126374 166.007934 9.20126374"></polygon>
            <path d="M182.20322,10.4667692 C177.085088,10.4667692 173.964923,14.515022 173.964923,19.1539451 C173.964923,23.7928681 177.085088,27.8138242 182.20322,27.8138242 C187.319077,27.8138242 190.440758,23.7928681 190.440758,19.1539451 C190.440758,14.515022 187.319077,10.4667692 182.20322,10.4667692 Z M182.20322,29.6123736 C176.270736,29.6123736 171.828956,25.1986484 171.828956,19.1539451 C171.828956,13.1092418 176.270736,8.69475824 182.20322,8.69475824 C188.134945,8.69475824 192.578242,13.1092418 192.578242,19.1539451 C192.578242,25.1986484 188.134945,29.6123736 182.20322,29.6123736 Z" id="Fill-6" fill="#FFFFFE"></path>
            <path d="M204.89133,12.4063516 C204.048165,11.1977143 202.67044,10.4099011 200.786967,10.4099011 C198.81933,10.4099011 196.543088,11.5912418 196.543088,14.1495495 C196.543088,16.6798022 198.650242,17.3258242 200.871132,18.0575275 C203.681934,18.9848571 206.77556,19.8848901 206.77556,23.877033 C206.77556,27.8691758 203.42944,29.6123736 200.280462,29.6123736 C197.863945,29.6123736 195.444396,28.6281758 194.011319,26.6597802 L195.753758,25.366978 C196.626495,26.7727582 198.228659,27.8691758 200.309275,27.8691758 C202.361077,27.8691758 204.722242,26.5756154 204.722242,24.0173077 C204.722242,21.2338022 202.389132,20.5309121 199.858879,19.7438571 C197.217165,18.9287473 194.517824,17.7762198 194.517824,14.1776044 C194.517824,10.3257363 197.947352,8.69475824 200.871132,8.69475824 C203.543176,8.69475824 205.53811,9.81998901 206.494253,11.1127912 L204.89133,12.4063516" id="Fill-7" fill="#FFFFFE"></path>
            <polygon id="Fill-8" fill="#FFFFFE" points="0 39.2329451 84.8935055 39.2329451 84.8935055 0.0955384615 0 0.0955384615"></polygon>
            <path d="M46.1541758,9.30362637 L42.2818352,24.2121758 C41.9338022,22.5751319 38.411011,9.30362637 38.411011,9.30362637 L30.9643187,9.30362637 L30.9643187,30.040022 L35.8284396,30.040022 L35.8284396,14.8410659 L40.0427473,30.040022 L44.523956,30.040022 L48.7412967,14.8410659 L48.7412967,30.040022 L53.6001099,30.040022 L53.5932857,9.30362637 L46.1541758,9.30362637" id="Fill-9" fill="#0A0B09"></path>
            <path d="M23.5532637,22.123978 C23.5532637,22.7404286 23.3819011,23.3492967 23.0907363,23.9627143 C22.537978,25.185 20.4952747,26.4307912 17.9195275,26.4307912 C15.6918132,26.4307912 14.1237692,25.7127363 14.1237692,24.1234615 C14.1237692,21.9647473 16.5926044,21.3558791 18.4154176,21.1693516 C20.2283736,20.9866154 21.3824176,20.9714505 22.123978,20.9744835 C22.2938242,20.9744835 23.5532637,20.9752418 23.5532637,20.9752418 L23.5532637,22.123978 Z M19.2487253,8.80242857 C11.3387473,8.80242857 10.1096374,13.9918352 10.1096374,15.5704945 L14.8190769,15.5704945 C15.1678681,14.3027143 16.1300769,12.8764615 19.3260659,12.8764615 C23.1506374,12.8764615 23.5191429,15.986011 23.5191429,16.7245385 C23.5191429,16.8238681 23.5153516,17.2045055 23.5153516,17.2045055 L23.5153516,17.206022 C23.5153516,17.206022 22.1004725,17.2045055 22.0807582,17.2045055 C15.0799121,17.2045055 9.30893407,18.5776813 9.30893407,24.1666813 C9.30893407,27.0783297 12.2486374,30.5290879 16.7791319,30.5290879 C19.6907802,30.5290879 22.5212967,29.346989 23.6192308,28.4484725 L23.7450989,30.040022 L28.2278242,30.040022 L28.2278242,18.7695165 C28.2278242,12.3995275 25.9197363,8.80242857 19.2487253,8.80242857 Z" id="Fill-10" fill="#0A0B09"></path>
            <path d="M70.8918132,22.1209451 C70.1168901,24.5412527 68.2015714,26.172989 65.8426813,26.172989 C62.7482967,26.172989 60.4174615,23.3697692 60.4174615,19.6642418 C60.4174615,15.9617473 62.7482967,13.1562527 65.8426813,13.1562527 C68.1894396,13.1562527 70.0941429,14.7713077 70.8796813,17.1643187 L75.5724396,17.1643187 C74.5882418,12.2638022 70.7356154,8.79863736 65.8426813,8.79863736 C59.9913297,8.79863736 55.8642198,13.2070549 55.8642198,19.6642418 C55.8642198,25.8484615 59.9663077,30.5290879 65.8426813,30.5290879 C70.7515385,30.5290879 74.6117473,27.0457253 75.5807802,22.1209451 L70.8918132,22.1209451" id="Fill-11" fill="#0A0B09"></path>
            <path d="M87.5428022,1.67723077 L87.5428022,1.12750549 L87.8582308,1.12750549 C88.0386923,1.12750549 88.2411429,1.18058242 88.2411429,1.39137363 C88.2411429,1.62415385 88.0159451,1.67723077 87.8203187,1.67723077 L87.5428022,1.67723077 Z M88.5869011,1.39895604 C88.5869011,0.984197802 88.2335604,0.834065934 87.8733956,0.834065934 L87.197044,0.834065934 L87.197044,2.76151648 L87.5428022,2.76151648 L87.5428022,1.95626374 L87.7907473,1.95626374 L88.2411429,2.76151648 L88.661967,2.76151648 L88.1433297,1.91835165 C88.414022,1.85769231 88.5869011,1.67723077 88.5869011,1.39895604 Z M87.8658132,3.25134066 C87.0696593,3.25134066 86.4228791,2.59621978 86.4228791,1.80537363 C86.4228791,1.00694505 87.0696593,0.359406593 87.8658132,0.359406593 C88.661967,0.359406593 89.307989,1.00694505 89.307989,1.80537363 C89.307989,2.59621978 88.661967,3.25134066 87.8658132,3.25134066 Z M87.8658132,0.0955384615 C86.9187692,0.0955384615 86.1529451,0.856054945 86.1529451,1.80537363 C86.1529451,2.75393407 86.9187692,3.50004396 87.8658132,3.50004396 C88.8120989,3.50004396 89.5786813,2.75393407 89.5786813,1.80537363 C89.5786813,0.856054945 88.8120989,0.0955384615 87.8658132,0.0955384615 Z" id="Fill-12" fill="#FFFFFE"></path>
        </g>
    </g>
</svg>