<?xml version="1.0" encoding="UTF-8"?>
<svg width="44px" height="44px" viewBox="0 0 44 44" version="1.1" xmlns="http://www.w3.org/2000/svg" xmlns:xlink="http://www.w3.org/1999/xlink">
    <!-- Generator: sketchtool 48.2 (47327) - http://www.bohemiancoding.com/sketch -->
    <title>F26F556E-7D05-4EF9-B8E9-AF284989974B</title>
    <desc>Created with sketchtool.</desc>
    <defs></defs>
    <g id="icon/social/colour/youtube-" stroke="none" stroke-width="1" fill="none" fill-rule="evenodd">
        <rect id="bg" fill="#CF1D12" x="0" y="0" width="44" height="44" rx="22"></rect>
        <path d="M19.494,19.043 L19.494,25.851 L25.864,22.375 L19.494,19.043 Z M33.761,27.324 C33.761,27.324 33.526,28.99 32.807,29.724 C31.893,30.687 30.871,30.691 30.401,30.748 C27.043,30.992 22,31 22,31 C22,31 15.76,30.942 13.84,30.757 C13.306,30.656 12.106,30.687 11.194,29.724 C10.474,28.99 10.24,27.324 10.24,27.324 C10.24,27.324 10,25.369 10,23.413 L10,21.579 C10,19.623 10.24,17.667 10.24,17.667 C10.24,17.667 10.474,16.001 11.194,15.268 C12.106,14.305 13.129,14.3 13.598,14.244 C16.957,14 21.994,14 21.994,14 L22.005,14 C22.005,14 27.043,14 30.401,14.244 C30.871,14.3 31.893,14.305 32.807,15.268 C33.526,16.001 33.761,17.667 33.761,17.667 C33.761,17.667 34,19.623 34,21.579 L34,23.413 C34,25.369 33.761,27.324 33.761,27.324 Z" id="Fill-1" fill="#FFFFFF"></path>
    </g>
</svg>