<?xml version="1.0" encoding="utf-8"?>
<!-- Generator: Adobe Illustrator 21.0.2, SVG Export Plug-In . SVG Version: 6.00 Build 0)  -->
<svg version="1.1" id="Layer_1" xmlns="http://www.w3.org/2000/svg" xmlns:xlink="http://www.w3.org/1999/xlink" x="0px" y="0px"
	 viewBox="0 0 1464.2 1129.1" style="enable-background:new 0 0 1464.2 1129.1;" xml:space="preserve">
<style type="text/css">
	.st0{fill:#ABACAD;}
</style>
<path id="Fill-1-Copy" class="st0" d="M469.1,34.5l-407,386.1C22.7,458,0,510.6,0,564.6c0,54.1,22.7,106.6,62.2,144.1l406.9,386
	c50.3,47.8,129.8,45.6,177.6-4.7c23-24.3,34.4-55.4,34.4-86.4c0-33.2-13.1-66.4-39.1-91.2L407.7,690.2h931
	c69.4,0,125.6-56.2,125.6-125.6S1408,439,1338.6,439h-931L642,216.7c50.3-47.6,52.4-127.2,4.7-177.5C599-11.2,519.4-13.3,469.1,34.5
	"/>
</svg>
