<?xml version="1.0" encoding="UTF-8" standalone="no"?>
<svg width="100%" height="100%" viewBox="8 6 16 20" version="1.1" xmlns="http://www.w3.org/2000/svg" xmlns:xlink="http://www.w3.org/1999/xlink">
    <!-- Generator: Sketch 50.2 (55047) - http://www.bohemiancoding.com/sketch -->
    <title>icon/dark/chevron down</title>
    <desc>Created with Sketch.</desc>
    <defs></defs>
    <g id="icon/dark/chevron-down" stroke="none" stroke-width="1" fill="none" fill-rule="evenodd">
        <path d="M9.43128946,19.439 L14.2562895,24.525 C14.7242895,25.019 15.3802895,25.302 16.0572895,25.302 C16.7332895,25.302 17.3892895,25.019 17.8572895,24.525 L22.6832895,19.439 C23.2802895,18.809 23.2532895,17.816 22.6242895,17.219 C22.3202895,16.931 21.9322895,16.788 21.5442895,16.788 C21.1292895,16.788 20.7132895,16.952 20.4042895,17.277 L17.6272895,20.206 L17.6272895,8.569 C17.6272895,7.703 16.9242895,7 16.0572895,7 C15.1902895,7 14.4872895,7.703 14.4872895,8.569 L14.4872895,20.206 L11.7082895,17.277 C11.1122895,16.648 10.1182895,16.622 9.48928946,17.219 C8.86028946,17.816 8.83428946,18.809 9.43128946,19.439" id="Fill-1" fill="#19BEC8"></path>
    </g>
</svg>