<?xml version="1.0" encoding="utf-8"?>
<!-- Generator: Adobe Illustrator 21.0.2, SVG Export Plug-In . SVG Version: 6.00 Build 0)  -->
<svg version="1.1" id="Layer_1" xmlns="http://www.w3.org/2000/svg" xmlns:xlink="http://www.w3.org/1999/xlink" x="0px" y="0px"
	 viewBox="0 0 1464.2 1129.1" style="enable-background:new 0 0 1464.2 1129.1;" xml:space="preserve">
<style type="text/css">
	.st0{fill:#CCD2D8;}
</style>
<path id="Fill-1-Copy" class="st0" d="M995.1,34.5l407,386.1c39.4,37.4,62.2,90,62.2,144c0,54.1-22.7,106.6-62.2,144.1l-406.9,386
	c-50.3,47.8-129.8,45.6-177.6-4.7c-23-24.3-34.4-55.4-34.4-86.4c0-33.2,13.1-66.4,39.1-91.2l234.3-222.2h-931
	C56.2,690.2,0,633.9,0,564.6S56.2,439,125.6,439h931L822.2,216.7c-50.3-47.6-52.4-127.2-4.7-177.5C865.3-11.2,944.8-13.3,995.1,34.5
	"/>
</svg>
