<?xml version="1.0" encoding="UTF-8"?>
<svg width="133px" height="95px" viewBox="0 0 133 95" version="1.1" xmlns="http://www.w3.org/2000/svg" xmlns:xlink="http://www.w3.org/1999/xlink">
    <!-- Generator: Sketch 63.1 (92452) - https://sketch.com -->
    <title>logo</title>
    <desc>Created with Sketch.</desc>
    <defs>
        <path d="M8.78218949,0.000281375502 C14.2118849,0.000281375502 17.5636962,3.81123117 17.5636962,8.61318549 C17.5636962,13.4190791 14.2118849,17.2289034 8.78218949,17.2289034 C3.3524941,17.2289034 0.000113794307,13.4190791 0.000113794307,8.61318549 C0.000113794307,3.81123117 3.3524941,0.000281375502 8.78218949,0.000281375502 Z M95.5323127,25.9025846 C97.2619862,28.6915786 100.703126,34.7597226 104.188646,40.7749681 C106.441204,44.6635776 108.868437,48.972562 110.18333,51.4542939 C114.190596,44.6658286 118.685471,33.7433943 121.639572,24.0207452 C121.936575,23.0466232 122.400856,22.5744752 123.253744,22.5744752 C123.708352,22.5744752 124.475326,22.7618712 126.580521,23.3989054 C127.84762,23.7798878 130.37613,24.5469174 131.317209,24.8417989 C132.286736,25.144559 132.692413,25.6296504 132.692413,26.2481137 C132.692413,26.8525083 132.343064,27.8142497 131.848628,29.1344636 C127.912483,39.6854822 122.446373,51.1526594 116.035771,60.8482964 C113.590331,64.546696 110.876906,65.6204249 106.359272,65.6204249 C101.585601,65.6204249 99.4525266,64.3621137 97.1095018,60.9383366 C95.5192263,58.6124867 93.8612433,56.0581599 91.6189264,52.6231278 L91.6186989,52.6234091 C86.5703282,60.8039517 77.9208229,65.6177237 66.1527845,65.6177237 C57.2491254,65.6177237 49.1855891,62.9145033 44.7398024,58.9115047 C40.2161601,63.0458391 32.561217,65.6176112 25.2169324,65.6176112 C17.8629752,65.6176112 10.1255313,63.6181569 5.59594887,59.1392216 C2.11270512,55.6946227 0.11675296,51.3220474 0.11675296,43.6675083 L0.11675296,24.4878286 C0.11675296,23.5395931 0.455859997,23.1422909 1.48171568,23.1422909 L16.0616113,23.1422909 C17.1005534,23.1422909 17.4493329,23.5536619 17.4493329,24.4810756 L17.4493329,45.6967884 C17.4493329,49.0896142 18.1912718,51.3856383 19.7724437,53.0378753 C21.2904598,54.6231448 23.8360384,55.5691293 26.7064999,55.5691293 C29.6475137,55.5691293 32.3222489,54.5899425 34.0234738,52.7823863 C35.958546,50.7244059 36.8370381,47.7885339 36.8370381,42.37093 L36.8364122,9.80182816 C36.8364122,8.21036832 37.2551753,7.10850186 38.1615469,6.2902619 C39.499768,5.085412 42.2075036,4.4962117 45.5029867,4.4962117 C48.7512452,4.4962117 51.5062054,5.085412 52.8438575,6.2902619 C53.7507981,7.10850186 54.1712681,8.20248981 54.1712681,9.80070266 L54.1712681,23.1395897 L67.8812063,23.1395897 C68.9195793,23.1395897 69.2820142,23.5532117 69.2820142,24.4811881 L69.2820142,32.6365757 C69.2820142,33.5651148 68.9195793,33.975923 67.8812063,33.975923 L60.1835903,33.975923 C57.7842374,33.975923 55.792837,33.6270174 54.1712681,32.9415867 L54.1712681,38.4132147 L54.1673446,38.8955378 L54.1673446,38.8955378 L54.1713819,38.4137775 L54.1713819,38.4137775 L54.1753647,41.4104266 C54.1753647,46.4588658 55.2467381,49.4808387 57.4611753,51.7279035 C59.7814413,54.0852674 63.344341,55.381283 67.9575623,55.381283 C77.6801479,55.381283 82.715546,49.3412765 82.715546,42.6760536 C82.715546,40.0236452 81.9323403,37.862784 80.3714701,35.2135185 L80.3274587,35.1471767 C78.9323405,32.7886872 78.5590951,31.7909297 78.5590951,30.4605863 C78.5590951,26.5393373 85.5762211,22.3350246 90.3140471,22.3350246 C92.0067374,22.3350246 93.0860765,22.7407681 94.234261,24.07899 C94.5485609,24.4692578 94.9206683,24.9166448 95.5323127,25.9025846 Z" id="path-1"></path>
    </defs>
    <g id="Designs" stroke="none" stroke-width="1" fill="none" fill-rule="evenodd">
        <g id="logo" fill="#2F86F1">
            <path d="M42.5988422,77.0377987 L42.5988422,87.97599 C42.5988422,89.2742565 42.901535,90.122885 43.5336624,90.6980166 C44.1379102,91.2466988 44.9720225,91.497123 46.1332934,91.497123 C47.2945643,91.497123 48.0780381,91.2466988 48.6834238,90.6980166 C49.3155512,90.122885 49.618244,89.2742565 49.618244,87.97599 L49.618244,77.0377987 L53.3046106,77.0377987 L53.3046106,88.1752038 C53.3046106,90.5725231 52.3953941,92.3716381 50.7294455,93.4206059 C49.5425708,94.1690648 48.1281076,94.4937721 46.2596051,94.4937721 L45.9569122,94.4937721 C44.0884097,94.4937721 42.6494806,94.1690648 41.462037,93.4206059 C39.7960884,92.3716381 38.9124756,90.5725231 38.9124756,88.1752038 L38.9124756,77.0377987 L42.5988422,77.0377987 Z M7.05154876,76.7878247 C8.69303165,76.7878247 10.3333766,77.0376861 11.6477008,77.4124783 L11.34387,80.3596053 C10.1069259,80.0602218 8.61678946,79.7850365 7.25296468,79.7850365 C5.10737301,79.7850365 4.17312175,80.4592122 4.17312175,81.6831957 C4.17312175,82.7563618 4.85531862,83.2054371 6.67318269,83.70516 L8.01140375,84.080515 C10.1575644,84.6798448 11.0411772,85.2290898 11.6727356,86.0281962 C12.303725,86.8273026 12.6564874,87.8008618 12.6564874,89.2240591 C12.6564874,93.0952233 10.006218,94.4936595 5.94034735,94.4936595 C3.94553313,94.4936595 1.90008045,94.1447539 0.688740047,93.7699617 C0.284770255,93.6455938 0.132854854,93.4953393 0.132854854,93.0704622 C0.132854854,92.646148 0.259166536,91.9472112 0.411081936,91.4221646 C0.561859394,90.8982434 0.739378514,90.7733127 0.966967129,90.7733127 C1.06767509,90.7733127 1.1934178,90.7975109 1.44604116,90.8729196 C2.60788105,91.1970642 4.04681007,91.4964477 5.63765449,91.4964477 C7.98523105,91.4964477 8.94565501,90.8475958 8.94565501,89.4497223 C8.94565501,88.2009778 8.16275017,87.7265787 6.39495561,87.201532 L4.70340322,86.7023719 C3.23887048,86.2774949 2.25398075,85.802533 1.57235285,85.079398 C0.891293915,84.3551374 0.411081936,83.3061696 0.411081936,81.8081264 C0.411081936,78.7855908 2.53220783,76.7878247 7.05154876,76.7878247 Z M102.337554,76.7877121 C104.988961,76.7877121 106.806825,77.5372965 108.144477,78.9362955 C109.634614,80.4844235 110.290069,82.732051 110.290069,85.6279677 C110.290069,88.5250098 109.634614,90.7979611 108.144477,92.3460892 C106.806825,93.7450882 104.988961,94.493547 102.337554,94.493547 C99.6861463,94.493547 97.8176438,93.7450882 96.4799917,92.3460892 C94.9887173,90.7979611 94.3332621,88.5250098 94.3332621,85.6279677 C94.3332621,82.732051 94.9887173,80.4844235 96.4799917,78.9362955 C97.8176438,77.5372965 99.6861463,76.7877121 102.337554,76.7877121 Z M123.106437,76.7878247 C124.747351,76.7878247 126.388265,77.0376861 127.701451,77.4124783 L127.397621,80.3596053 C126.160676,80.0602218 124.671678,79.7850365 123.308422,79.7850365 C121.161693,79.7850365 120.227441,80.4592122 120.227441,81.6831957 C120.227441,82.7563618 120.909638,83.2054371 122.726933,83.70516 L124.065154,84.080515 C126.211315,84.6798448 127.094928,85.2290898 127.725348,86.0281962 C128.357476,86.8273026 128.711945,87.8008618 128.711945,89.2240591 C128.711945,93.0952233 126.060537,94.4936595 121.994667,94.4936595 C120.000422,94.4936595 117.956107,94.1447539 116.742491,93.7699617 C116.33909,93.6455938 116.187743,93.4953393 116.187743,93.0704622 C116.187743,92.646148 116.314055,91.9472112 116.464832,91.4221646 C116.616748,90.8982434 116.793698,90.7733127 117.020149,90.7733127 C117.121995,90.7733127 117.247737,90.7975109 117.50093,90.8729196 C118.661632,91.1970642 120.10113,91.4964477 121.691974,91.4964477 C124.039551,91.4964477 124.999975,90.8475958 124.999975,89.4497223 C124.999975,88.2009778 124.217639,87.7265787 122.448706,87.201532 L120.757723,86.7023719 C119.292621,86.2774949 118.3083,85.802533 117.627241,85.079398 C116.945044,84.3551374 116.464832,83.3061696 116.464832,81.8081264 C116.464832,78.7855908 118.586527,76.7878247 123.106437,76.7878247 Z M32.0842481,77.0379675 L32.0842481,79.9850945 L26.9327798,79.9850945 L26.9327798,93.6199886 C26.9327798,94.1191487 26.5043443,94.3690102 25.089881,94.3690102 C23.6253483,94.3690102 23.2469822,94.1191487 23.2469822,93.5946648 L23.2469822,79.9850945 L18.0955139,79.9850945 L18.0955139,77.0379675 L32.0842481,77.0379675 Z M86.9717945,77.0379675 L86.9717945,93.6199886 C86.9717945,94.1191487 86.54279,94.3690102 85.1288957,94.3690102 C83.663794,94.3690102 83.2854279,94.1191487 83.2854279,93.5946648 L83.2854279,77.0379675 L86.9717945,77.0379675 Z M68.0574737,77.0379112 C70.5330688,77.0379112 72.4271751,77.6366783 73.7904309,78.8359007 C75.507587,80.3598304 76.2899228,82.7565869 76.2899228,85.6283053 C76.2899228,88.5005864 75.507587,90.9226668 73.7904309,92.4465965 C72.4271751,93.6458189 70.5330688,94.2434604 68.0574737,94.2434604 L61.9478573,94.2434604 C61.2912641,94.2434604 61.0636755,94.0442466 61.0636755,93.4449168 L61.0636755,77.0379112 L68.0574737,77.0379112 Z M102.337554,79.8355716 C101.074437,79.8355716 100.190824,80.2092383 99.5342309,80.8085681 C98.4492022,81.8080139 98.0953019,83.4309878 98.0953019,85.6279677 C98.0953019,87.8266358 98.4492022,89.473808 99.5342309,90.4732538 C100.190824,91.0725836 101.074437,91.4462503 102.337554,91.4462503 C103.599533,91.4462503 104.433076,91.0725836 105.089669,90.4732538 C106.175836,89.473808 106.528598,87.8266358 106.528598,85.6279677 C106.528598,83.4309878 106.175836,81.8080139 105.089669,80.8085681 C104.433076,80.2092383 103.599533,79.8355716 102.337554,79.8355716 Z M67.2250683,79.9850383 L64.7506111,79.9850383 L64.7506111,91.2968962 L67.2250683,91.2968962 C69.1436403,91.2968962 70.3549807,90.9727516 71.0633503,90.2991387 C72.0983095,89.3238912 72.527883,87.7510021 72.527883,85.6283053 C72.527883,83.5061713 72.0983095,81.958606 71.0633503,80.9833585 C70.3549807,80.3086201 69.1436403,79.9850383 67.2250683,79.9850383 Z" id="studios"></path>
            <g id="itv">
                <use xlink:href="#path-1"></use>
                <use xlink:href="#path-1"></use>
            </g>
        </g>
    </g>
</svg>