<?xml version="1.0" encoding="UTF-8"?>
<svg width="26px" height="25px" viewBox="0 0 26 25" version="1.1" xmlns="http://www.w3.org/2000/svg" xmlns:xlink="http://www.w3.org/1999/xlink">
    <!-- Generator: Sketch 63.1 (92452) - https://sketch.com -->
    <title>search</title>
    <desc>Created with Sketch.</desc>
    <g id="Designs" stroke="none" stroke-width="1" fill="none" fill-rule="evenodd">
        <path d="M10.5,0 C16.2989899,0 21,4.70101013 21,10.5 C21,12.6008599 20.3830064,14.5576132 19.3203369,16.1989422 L25.4963203,22.375 L23.375,24.4963203 L17.342819,18.4642755 C15.5050132,20.0447472 13.1140622,21 10.5,21 C4.70101013,21 0,16.2989899 0,10.5 C0,4.70101013 4.70101013,0 10.5,0 Z M10.5,2 C5.80557963,2 2,5.80557963 2,10.5 C2,15.1944204 5.80557963,19 10.5,19 C15.1944204,19 19,15.1944204 19,10.5 C19,5.80557963 15.1944204,2 10.5,2 Z" id="search" fill="#2F86F1" fill-rule="nonzero"></path>
    </g>
</svg>