<?xml version="1.0" encoding="utf-8"?>
<!-- Generator: Adobe Illustrator 19.2.1, SVG Export Plug-In . SVG Version: 6.00 Build 0)  -->
<svg version="1.1" id="Layer_1" xmlns="http://www.w3.org/2000/svg" xmlns:xlink="http://www.w3.org/1999/xlink" x="0px" y="0px"
	 width="663px" height="567px" viewBox="0 0 663 567" style="enable-background:new 0 0 663 567;" xml:space="preserve">
<style type="text/css">
	.st0{fill:#0085AD;}
	.st1{filter:url(#Adobe_OpacityMaskFilter);}
	.st2{fill:#FFFFFF;}
	.st3{mask:url(#mask-2);}
	.st4{fill:#4EC3E0;}
	.st5{fill:#00AFD7;}
	.st6{fill:#A4DBE8;}
</style>
<title>cock &amp; balls</title>
<desc>Created with Sketch.</desc>
<g id="Website">
	<g id="banner-BGs" transform="translate(0.000000, -137.000000)">
		<g id="cock-_x26_-balls" transform="translate(0.000000, 137.000000)">
			<g id="Mask">
				<polygon id="path-1_1_" class="st0" points="0,0 662.9,0 662.9,567 0,567 				"/>
			</g>
			<defs>
				<filter id="Adobe_OpacityMaskFilter" filterUnits="userSpaceOnUse" x="12" y="-100" width="896" height="1030">
					<feColorMatrix  type="matrix" values="1 0 0 0 0  0 1 0 0 0  0 0 1 0 0  0 0 0 1 0"/>
				</filter>
			</defs>
			<mask maskUnits="userSpaceOnUse" x="12" y="-100" width="896" height="1030" id="mask-2">
				<g class="st1">
					<polygon id="path-1" class="st2" points="-917,0 663,0 663,567 -917,567 					"/>
				</g>
			</mask>
			<g id="Group-6" class="st3">
				<g id="Fill-4" transform="translate(929.000000, -100.000000)">
					<path class="st4" d="M-215.9,408.8c-17.1-40-56.3-65.8-99.6-65.8c-77.9,0-130.3,79.9-99.6,151.7L-257,864l236,0L-215.9,408.8z"
						/>
					<path class="st5" d="M-708.9,538.8c-17.1-40-56.3-65.8-99.6-65.8c-77.9,0-130.3,79.9-99.6,151.7L-750,994l236,0L-708.9,538.8z"
						/>
					<path class="st6" d="M-637.8,65.8C-654.9,25.9-694.1,0-737.4,0c-77.9,0-130.4,79.8-99.6,151.6L-458,1030l236,0L-637.8,65.8z"/>
				</g>
			</g>
		</g>
	</g>
</g>
</svg>
