<?xml version="1.0" encoding="utf-8"?>
<!-- Generator: Adobe Illustrator 19.2.1, SVG Export Plug-In . SVG Version: 6.00 Build 0)  -->
<svg version="1.1" id="Layer_1" xmlns="http://www.w3.org/2000/svg" xmlns:xlink="http://www.w3.org/1999/xlink" x="0px" y="0px"
	 width="312px" height="41px" viewBox="0 0 312 41" style="enable-background:new 0 0 312 41;" xml:space="preserve">
<style type="text/css">
	.st0{fill:#FFFFFF;}
	.st1{fill:#4EC3E0;}
	.st2{fill:#54585A;}
</style>
<title>WB logo</title>
<desc>Created with Sketch.</desc>
<g id="Symbols">
	<g id="footer" transform="translate(-634.000000, -50.000000)">
		<g id="WB-logo" transform="translate(633.999957, 50.099831)">
			<polygon id="Fill-1" class="st0" points="118.5,0.9 110.3,26.8 102.5,0.9 95.5,0.9 87.7,26.8 79.5,0.9 70,0.9 83.8,39.9 
				91.2,39.9 99,15.4 106.8,39.9 114.2,39.9 128,0.9 			"/>
			<path id="Fill-2" class="st0" d="M129.7,39.5h8.4V12.7h-8.4V39.5z M128.7,5.2c0-2.9,2.2-5.2,5.2-5.2c3,0,5.2,2.3,5.2,5.2
				c0,2.8-2.2,5.2-5.2,5.2C130.9,10.4,128.7,8.1,128.7,5.2L128.7,5.2z"/>
			<polygon id="Fill-4" class="st0" points="141.8,39.5 150.2,39.5 150.2,0.6 141.8,0.6 			"/>
			<path id="Fill-5" class="st0" d="M173.2,26.1c0-3.8-2.2-7-6.3-7c-3.9,0-6.3,2.9-6.3,7c0,4.1,2.4,7,6.3,7
				C171.1,33.1,173.2,30,173.2,26.1L173.2,26.1z M181.3,0.6v38.8h-8.4v-3.8c-1.4,2.7-4.7,4.5-8.4,4.5c-7.9,0-12.5-6-12.5-14.1
				c0-8,4.9-14.1,12.6-14.1c3.9,0,6.9,1.8,8.3,4.5V0.6H181.3z"/>
			<path id="Fill-6" class="st0" d="M204.9,27.5c0-2.9-2.2-4.8-5.4-4.8h-5.6v9.9h5.6C202.8,32.6,204.9,30.8,204.9,27.5L204.9,27.5z
				 M193.9,7.1v9.4h5c3.4,0,5.5-1.8,5.5-4.7s-2-4.7-5.5-4.7H193.9z M213.9,28.7c0,6.7-4.7,10.8-12.4,10.8H185V0.6h15.9
				c7.7,0,12.4,3.8,12.4,10.1c0,5-2.9,8-7.4,8.9C210.4,20,213.9,23.3,213.9,28.7L213.9,28.7z"/>
			<path id="Fill-7" class="st0" d="M215.8,12.7h8.4v5.6c0.9-4,4.1-6,7.3-6c1,0,1.5,0.1,2.2,0.2v7.9c-1-0.1-1.5-0.2-2.5-0.2
				c-4.6,0-7,3-7,8.9v10.3h-8.4V12.7z"/>
			<path id="Fill-8" class="st0" d="M255.2,26.1c0-3.8-2.2-7-6.3-7c-3.9,0-6.3,2.9-6.3,7c0,4.1,2.4,7,6.3,7
				C253.1,33.1,255.2,30,255.2,26.1 M233.9,26.1c0-8,4.9-14.1,12.6-14.1c3.9,0,6.9,1.8,8.3,4.5v-3.8h8.4v26.7h-8.4v-3.8
				c-1.4,2.7-4.7,4.5-8.4,4.5C238.5,40.2,233.9,34.1,233.9,26.1"/>
			<path id="Fill-9" class="st0" d="M267,39.5h8.4V12.7H267V39.5z M266,5.2c0-2.9,2.2-5.2,5.2-5.2s5.2,2.3,5.2,5.2
				c0,2.8-2.2,5.2-5.2,5.2S266,8.1,266,5.2L266,5.2z"/>
			<path id="Fill-10" class="st0" d="M279.1,12.7h8.4v3.9c1.5-3,4.6-4.6,8.6-4.6c6.5,0,9.7,3.7,9.7,10.9v16.5h-8.5V25.7
				c0-4.5-1.3-6.5-4.7-6.5c-3.4,0-5.1,2.2-5.1,6.3v14h-8.4V12.7z"/>
			<path id="Fill-11" class="st0" d="M308.3,12.7h1.2l0.6,2.1l0.6-2.1h1.2v3.2h-0.8v-2.4l-0.7,2.4h-0.7l-0.7-2.4v2.4h-0.8V12.7z
				 M306.5,13.4h-0.7v-0.7h2.2v0.7h-0.7v2.5h-0.8V13.4z"/>
			<path id="Fill-12" class="st1" d="M35.8,5c-1.3-3-4.3-5-7.5-5c-5.9,0-9.9,6.1-7.5,11.5l12,28h17.8L35.8,5z M15.7,5
				c-1.3-3-4.3-5-7.5-5C2.3,0-1.7,6.1,0.7,11.5l7.4,17.3c2.8,6.4,9.1,10.6,16.1,10.6h6.3L15.7,5z M64.8,11.5l-12,28l-8.9-20.9
				L49.7,5C51,2,54,0,57.2,0C63.1,0,67.1,6.1,64.8,11.5L64.8,11.5z"/>
			<path id="Fill-13" class="st0" d="M57.2,14.5c-3.4,0-6.2-2.8-6.2-6.3C51,4.8,53.8,2,57.2,2c3.4,0,6.2,2.8,6.2,6.3
				C63.5,11.7,60.7,14.5,57.2,14.5"/>
			<path id="Fill-14" class="st0" d="M28.3,14.5c-3.4,0-6.2-2.8-6.2-6.3c0-3.4,2.8-6.3,6.2-6.3s6.2,2.8,6.2,6.3
				C34.5,11.7,31.7,14.5,28.3,14.5"/>
			<path id="Fill-15" class="st0" d="M8.2,14.5C4.8,14.5,2,11.7,2,8.2C2,4.8,4.8,2,8.2,2s6.2,2.8,6.2,6.3
				C14.4,11.7,11.6,14.5,8.2,14.5"/>
			<path id="Fill-16" class="st2" d="M59.2,6.8c-0.4,0-0.8,0.1-1.2,0.2l1.2,3.2L56,9.1c-0.1,0.4-0.2,0.8-0.2,1.2
				c0,1.9,1.5,3.4,3.4,3.4c1.9,0,3.4-1.5,3.4-3.4S61.1,6.8,59.2,6.8"/>
			<path id="Fill-17" class="st2" d="M30.3,2.8c-0.4,0-0.8,0.1-1.2,0.2l1.2,3.2L27.1,5c-0.1,0.4-0.2,0.8-0.2,1.2
				c0,1.9,1.5,3.4,3.4,3.4c1.9,0,3.4-1.5,3.4-3.4S32.2,2.8,30.3,2.8"/>
			<path id="Fill-18" class="st2" d="M6.2,6.8C5.8,6.8,5.4,6.9,5,7l1.2,3.2L3,9c-0.1,0.4-0.2,0.8-0.2,1.2c0,1.9,1.5,3.4,3.4,3.4
				c1.9,0,3.4-1.5,3.4-3.4S8.1,6.8,6.2,6.8"/>
		</g>
	</g>
</g>
</svg>
