<?xml version="1.0" encoding="UTF-8"?>
<svg width="312px" height="41px" viewBox="0 0 312 41" version="1.1" xmlns="http://www.w3.org/2000/svg" xmlns:xlink="http://www.w3.org/1999/xlink">
    <!-- Generator: Sketch 55.2 (78181) - https://sketchapp.com -->
    <title>WB logo</title>
    <desc>Created with Sketch.</desc>
    <g id="Symbols" stroke="none" stroke-width="1" fill="none" fill-rule="evenodd">
        <g id="footer" transform="translate(-634.000000, -50.000000)">
            <g id="WB-logo" transform="translate(633.999957, 50.099831)">
                <polygon id="Fill-1" fill="#54585A" points="118.482967 0.90016918 110.309466 26.8068747 102.527062 0.90016918 95.473023 0.90016918 87.6906194 26.8068747 79.5182167 0.90016918 70.0000426 0.90016918 83.8279809 39.9001692 91.2192869 39.9001692 99.0005919 15.3863208 106.781897 39.9001692 114.172104 39.9001692 128.000043 0.90016918"></polygon>
                <path d="M129.691293,39.4590843 L138.082793,39.4590843 L138.082793,12.7181417 L129.691293,12.7181417 L129.691293,39.4590843 Z M128.697876,5.22919716 C128.697876,2.34422798 130.850459,0.0144792793 133.887043,0.0144792793 C136.923626,0.0144792793 139.131459,2.34422798 139.131459,5.22919716 C139.131459,8.05864429 136.923626,10.3894817 133.887043,10.3894817 C130.850459,10.3894817 128.697876,8.05864429 128.697876,5.22919716 L128.697876,5.22919716 Z" id="Fill-2" fill="#54585A"></path>
                <polygon id="Fill-4" fill="#54585A" points="141.780209 39.4590843 150.226959 39.4590843 150.226959 0.624133144 141.780209 0.624133144"></polygon>
                <path d="M173.247901,26.0891573 C173.247901,22.261402 171.094234,19.0988226 166.899568,19.0988226 C162.978984,19.0988226 160.550151,22.0393138 160.550151,26.0891573 C160.550151,30.1400895 162.978984,33.1350141 166.899568,33.1350141 C171.094234,33.1350141 173.247901,29.9724347 173.247901,26.0891573 L173.247901,26.0891573 Z M181.307901,0.624133144 L181.307901,39.460173 L172.916401,39.460173 L172.916401,35.686851 C171.480984,38.3508207 168.168151,40.1808709 164.469651,40.1808709 C156.520151,40.1808709 151.937651,34.1333223 151.937651,26.0891573 C151.937651,18.1005144 156.851651,11.9974437 164.580151,11.9974437 C168.444401,11.9974437 171.480984,13.8285826 172.916401,16.5469857 L172.916401,0.624133144 L181.307901,0.624133144 Z" id="Fill-5" fill="#54585A"></path>
                <path d="M204.879826,27.5313153 C204.879826,24.6474348 202.726159,22.7607738 199.524909,22.7607738 L193.948993,22.7607738 L193.948993,32.6360778 L199.524909,32.6360778 C202.836659,32.6360778 204.879826,30.7505055 204.879826,27.5313153 L204.879826,27.5313153 Z M193.948993,7.11553153 L193.948993,16.5477477 L198.917159,16.5477477 C202.340493,16.5477477 204.382576,14.7721309 204.382576,11.8316396 C204.382576,8.89114841 202.395743,7.11553153 198.917159,7.11553153 L193.948993,7.11553153 Z M213.877993,28.6961897 C213.877993,35.3544808 209.186076,39.4598464 201.511743,39.4598464 L185.004993,39.4598464 L185.004993,0.624895211 L200.905076,0.624895211 C208.578326,0.624895211 213.325493,4.45156188 213.325493,10.7211987 C213.325493,15.7704391 210.400493,18.7653637 205.928493,19.5981944 C210.400493,20.0423708 213.877993,23.3149056 213.877993,28.6961897 L213.877993,28.6961897 Z" id="Fill-6" fill="#54585A"></path>
                <path d="M215.808926,12.7184683 L224.254593,12.7184683 L224.254593,18.3218405 C225.193843,14.3286077 228.340926,12.2753806 231.598509,12.2753806 C232.591926,12.2753806 233.143343,12.3309026 233.806343,12.4963801 L233.806343,20.3750676 C232.812926,20.2640235 232.315676,20.2085015 231.267009,20.2085015 C226.684509,20.2085015 224.254593,23.2045147 224.254593,29.1410193 L224.254593,39.4594109 L215.808926,39.4594109 L215.808926,12.7184683 Z" id="Fill-7" fill="#54585A"></path>
                <path d="M255.225793,26.0891573 C255.225793,22.261402 253.073209,19.0988226 248.876376,19.0988226 C244.956876,19.0988226 242.528043,22.0393138 242.528043,26.0891573 C242.528043,30.1400895 244.956876,33.1350141 248.876376,33.1350141 C253.073209,33.1350141 255.225793,29.9724347 255.225793,26.0891573 M233.915543,26.0891573 C233.915543,18.1005144 238.829543,11.9974437 246.558043,11.9974437 C250.422293,11.9974437 253.458876,13.8285826 254.894293,16.5469857 L254.894293,12.7181417 L263.285793,12.7181417 L263.285793,39.460173 L254.894293,39.460173 L254.894293,35.686851 C253.458876,38.3508207 250.147126,40.1808709 246.447543,40.1808709 C238.498043,40.1808709 233.915543,34.1333223 233.915543,26.0891573" id="Fill-8" fill="#54585A"></path>
                <path d="M266.983209,39.4590843 L275.374709,39.4590843 L275.374709,12.7181417 L266.983209,12.7181417 L266.983209,39.4590843 Z M265.989793,5.22919716 C265.989793,2.34422798 268.142376,0.0144792793 271.178959,0.0144792793 C274.215543,0.0144792793 276.423376,2.34422798 276.423376,5.22919716 C276.423376,8.05864429 274.215543,10.3894817 271.178959,10.3894817 C268.142376,10.3894817 265.989793,8.05864429 265.989793,5.22919716 L265.989793,5.22919716 Z" id="Fill-9" fill="#54585A"></path>
                <path d="M279.072884,12.7184683 L287.518551,12.7184683 L287.518551,16.6017457 C289.064468,13.6068211 292.101051,11.9977703 296.131051,11.9977703 C302.589884,11.9977703 305.847468,15.6589595 305.847468,22.9269045 L305.847468,39.4594109 L297.346551,39.4594109 L297.346551,25.7008296 C297.346551,21.2068097 296.075801,19.1546712 292.653551,19.1546712 C289.285468,19.1546712 287.518551,21.3733758 287.518551,25.4787414 L287.518551,39.4594109 L279.072884,39.4594109 L279.072884,12.7184683 Z" id="Fill-10" fill="#54585A"></path>
                <path d="M308.339243,12.7094323 L309.578576,12.7094323 L310.177659,14.7626595 L310.776743,12.7094323 L311.999826,12.7094323 L311.999826,15.9362431 L311.203576,15.9362431 L311.203576,13.5422631 L310.509159,15.9362431 L309.853743,15.9362431 L309.136576,13.5422631 L309.136576,15.9362431 L308.339243,15.9362431 L308.339243,12.7094323 Z M306.500826,13.4235983 L305.831326,13.4235983 L305.831326,12.7094323 L307.991493,12.7094323 L307.991493,13.4235983 L307.314409,13.4235983 L307.314409,15.9362431 L306.500826,15.9362431 L306.500826,13.4235983 Z" id="Fill-11" fill="#54585A"></path>
                <path d="M35.8332426,4.98718634 C34.5397426,1.96069037 31.5768259,-3.55271368e-15 28.2997426,-3.55271368e-15 C22.4107426,-3.55271368e-15 18.4424926,6.05299194 20.7662426,11.4908867 L32.7240759,39.4652897 L50.5709093,39.4652897 L35.8332426,4.98718634 Z M15.7406593,4.98718634 C14.4471593,1.96069037 11.4853259,-3.55271368e-15 8.20824261,-3.55271368e-15 C2.31815928,-3.55271368e-15 -1.65009072,6.05299194 0.674742611,11.4908867 L8.08907594,28.8388051 C10.8461593,35.2869834 17.1576593,39.4652897 24.1419093,39.4652897 L30.4783259,39.4652897 L15.7406593,4.98718634 Z M64.7701593,11.4908867 L52.8134093,39.454403 L43.8899926,18.5857335 L49.7031593,4.98718634 C50.9966593,1.96069037 53.9595759,-3.55271368e-15 57.2366593,-3.55271368e-15 C63.1256593,-3.55271368e-15 67.0939093,6.05299194 64.7701593,11.4908867 L64.7701593,11.4908867 Z" id="Fill-12" fill="#4EC3E0"></path>
                <path d="M57.2466259,14.491799 C53.8157093,14.491799 51.0239593,11.6863025 51.0239593,8.23849218 C51.0239593,4.79177051 53.8157093,1.98627406 57.2466259,1.98627406 C60.6775426,1.98627406 63.4682093,4.79177051 63.4682093,8.23849218 C63.4682093,11.6863025 60.6775426,14.491799 57.2466259,14.491799" id="Fill-13" fill="#FFFFFF"></path>
                <path d="M28.2996343,14.491799 C24.8687176,14.491799 22.0769676,11.6863025 22.0769676,8.23849218 C22.0769676,4.79177051 24.8687176,1.98627406 28.2996343,1.98627406 C31.7305509,1.98627406 34.5212176,4.79177051 34.5212176,8.23849218 C34.5212176,11.6863025 31.7305509,14.491799 28.2996343,14.491799" id="Fill-14" fill="#FFFFFF"></path>
                <path d="M8.20726761,14.491799 C4.77635094,14.491799 1.98568428,11.6863025 1.98568428,8.23849218 C1.98568428,4.79177051 4.77635094,1.98627406 8.20726761,1.98627406 C11.6381843,1.98627406 14.4299343,4.79177051 14.4299343,8.23849218 C14.4299343,11.6863025 11.6381843,14.491799 8.20726761,14.491799" id="Fill-15" fill="#FFFFFF"></path>
                <path d="M59.2195926,6.82910308 C58.8025093,6.82910308 58.4038426,6.90857582 58.0344259,7.04683661 L59.2185093,10.2507854 L56.0291759,9.06087169 C55.8915926,9.43319602 55.8125093,9.83273703 55.8125093,10.2529627 C55.8125093,12.1439784 57.3389259,13.6768224 59.2195926,13.6768224 C61.1013426,13.6768224 62.6277593,12.1439784 62.6277593,10.2529627 C62.6277593,8.36194708 61.1013426,6.82910308 59.2195926,6.82910308" id="Fill-16" fill="#54585A"></path>
                <path d="M30.2769343,2.80506098 C29.8598509,2.80506098 29.4611843,2.88453371 29.0917676,3.0227945 L30.2758509,6.22674329 L27.0865176,5.03682959 C26.9489343,5.40915391 26.8698509,5.80869493 26.8698509,6.22892063 C26.8698509,8.11993627 28.3962676,9.65278028 30.2769343,9.65278028 C32.1586843,9.65278028 33.6851009,8.11993627 33.6851009,6.22892063 C33.6851009,4.33790498 32.1586843,2.80506098 30.2769343,2.80506098" id="Fill-17" fill="#54585A"></path>
                <path d="M6.20667594,6.80199526 C5.78959261,6.80199526 5.39200928,6.88146799 5.02150928,7.01972878 L6.20559261,10.2236776 L3.01734261,9.03376387 C2.87975928,9.40608819 2.80067594,9.80562921 2.80067594,10.2258549 C2.80067594,12.1168706 4.32600928,13.6497146 6.20667594,13.6497146 C8.08842594,13.6497146 9.61484261,12.1168706 9.61484261,10.2258549 C9.61484261,8.33483926 8.08842594,6.80199526 6.20667594,6.80199526" id="Fill-18" fill="#54585A"></path>
            </g>
        </g>
    </g>
</svg>