<?xml version="1.0" encoding="utf-8"?>
<!-- Generator: Adobe Illustrator 19.2.1, SVG Export Plug-In . SVG Version: 6.00 Build 0)  -->
<svg version="1.1" id="Layer_1" xmlns="http://www.w3.org/2000/svg" xmlns:xlink="http://www.w3.org/1999/xlink" x="0px" y="0px"
	 width="32px" height="32px" viewBox="0 0 32 32" style="enable-background:new 0 0 32 32;" xml:space="preserve">
<style type="text/css">
	.st0{fill:#54585A;}
</style>
<title>icon/hero/mag glass</title>
<desc>Created with Sketch.</desc>
<g id="icon_x2F_hero_x2F_mag-glass">
	<path id="Fill-1" class="st0" d="M12.6,21c-4.7,0-8.8-4.1-8.8-8.8s3.7-8.4,8.4-8.4S21,7.8,21,12.6C21,17.1,17.1,21,12.6,21
		 M30.2,26.3l-7.5-7.5c1.2-1.8,1.8-3.9,1.8-6.3C24.5,5.9,18.6,0,12,0C5.5,0,0,5.5,0,12.2s5.9,12.6,12.6,12.6c2.2,0,4.3-0.6,6.1-1.6
		l7.5,7.5c0.8,0.8,2,0.8,2.6,0l1.8-1.8C31.4,27.9,31,26.9,30.2,26.3"/>
</g>
</svg>
