<?xml version="1.0" encoding="utf-8"?>
<!-- Generator: Adobe Illustrator 19.2.1, SVG Export Plug-In . SVG Version: 6.00 Build 0)  -->
<svg version="1.1" id="Layer_1" xmlns="http://www.w3.org/2000/svg" xmlns:xlink="http://www.w3.org/1999/xlink" x="0px" y="0px"
	 width="100px" height="43px" viewBox="0 0 100 43" style="enable-background:new 0 0 100 43;" xml:space="preserve">
<style type="text/css">
	.st0{display:none;}
	.st1{display:inline;}
	.st2{fill:#12C49D;}
	.st3{fill:#FFFFFF;}
</style>
<g class="st0">
	<g class="st1">
		<path class="st2" d="M99.4,0H86.3c-0.5,0-1,0.4-1.1,0.8L79,25L72.8,0.8C72.7,0.4,72.2,0,71.7,0H33.3c-0.4,0-0.8,0.4-0.8,0.9v8.9
			c0,0.5,0.4,0.8,0.8,0.8h9.8V28c3.1,1.9,5.2,5.3,5.2,9.2c0,1.2-0.2,2.3-0.5,3.4h6.7c0.5,0,0.8-0.4,0.8-0.8V10.6h6.2l10.1,29.1
			c0.1,0.4,0.6,0.8,1.1,0.8h12.9c0.5,0,0.9-0.4,1.1-0.8L99.9,0.8C100.1,0.4,99.8,0,99.4,0z M31.4,13.3c0-8-6-13.3-15-13.3H0.9
			C0.4,0,0,0.4,0,0.9v38.8c0,0.4,0.4,0.8,0.9,0.8h10.3c0.5,0,0.9-0.4,0.9-0.8V26.8h0.7L19,39.6c0.2,0.5,0.8,0.9,1.4,0.9h6.8
			c-0.3-1.1-0.5-2.2-0.5-3.4c0-2.2,0.7-4.2,1.8-5.9l-4.2-6.7C28.6,22.6,31.4,17.9,31.4,13.3z M15.6,16.8h-3.5v-6.2h3.5
			c2,0,3.4,1.2,3.4,3.1C19,15.6,17.6,16.8,15.6,16.8z"/>
	</g>
</g>
<g id="SYMBOLS-_x26_-STYLES">
	<g id="nav---logged-in-DARK" transform="translate(-42.000000, -26.000000)">
		<g id="logo_x2F_dark-logo" transform="translate(41.000000, 24.000000)">
			<g id="The-Story-Lab-Logo-White" transform="translate(1.527166, 2.145161)">
				<g id="Group-3" transform="translate(0.000000, 12.959216)">
					<path id="Fill-1" class="st3" d="M3.4,12.1c0.2,0.3,0.4,0.5,0.7,0.7C4.4,13,4.7,13.1,5,13.2c0.3,0.1,0.7,0.1,1.1,0.1
						c0.3,0,0.6,0,0.8-0.1c0.3-0.1,0.6-0.2,0.8-0.3c0.2-0.1,0.4-0.3,0.6-0.5s0.2-0.5,0.2-0.8c0-0.6-0.4-1-1.1-1.3
						C6.6,10,5.6,9.7,4.2,9.4C3.6,9.3,3.1,9.2,2.6,9C2,8.8,1.6,8.6,1.2,8.3s-0.7-0.6-1-1.1c-0.3-0.4-0.4-0.9-0.4-1.5
						c0-0.9,0.2-1.6,0.5-2.2s0.8-1,1.4-1.4c0.6-0.3,1.2-0.6,1.9-0.7S5,1.2,5.8,1.2S7.3,1.3,8,1.4s1.3,0.4,1.9,0.7
						c0.6,0.3,1,0.8,1.4,1.4s0.6,1.3,0.7,2.1H8.3C8.3,5,8,4.5,7.5,4.2C7,4,6.4,3.8,5.7,3.8c-0.2,0-0.4,0-0.7,0
						C4.8,3.9,4.5,3.9,4.3,4C4.1,4.1,4,4.3,3.8,4.4C3.7,4.6,3.6,4.8,3.6,5.1c0,0.3,0.1,0.6,0.4,0.8c0.3,0.2,0.6,0.4,1,0.5
						s0.9,0.3,1.4,0.4S7.4,7,8,7.2c0.5,0.1,1,0.3,1.5,0.4c0.5,0.2,1,0.4,1.4,0.7s0.7,0.7,1,1.1c0.3,0.4,0.4,1,0.4,1.6
						c0,0.9-0.2,1.7-0.6,2.3c-0.4,0.6-0.8,1.1-1.4,1.5s-1.3,0.6-2,0.8c-0.8,0.2-1.5,0.2-2.3,0.2s-1.6-0.1-2.4-0.2
						c-0.8-0.2-1.5-0.4-2.1-0.8c-0.5-0.3-1-0.8-1.4-1.4C-0.3,12.7-0.5,12-0.5,11h3.6C3.1,11.5,3.2,11.8,3.4,12.1"/>
				</g>
				<path id="Fill-4" class="st3" d="M21.1,14.6v2.6h-2.8v6.9c0,0.6,0.1,1.1,0.3,1.3c0.2,0.2,0.6,0.3,1.3,0.3c0.2,0,0.4,0,0.6,0
					s0.4,0,0.6-0.1v3c-0.3,0.1-0.7,0.1-1.1,0.1s-0.8,0-1.2,0c-0.6,0-1.1,0-1.7-0.1c-0.5-0.1-1-0.2-1.4-0.5c-0.4-0.2-0.7-0.6-1-1
					c-0.2-0.4-0.3-1-0.3-1.7v-8.2h-2.3v-2.6h2.3v-4.2h3.8v4.2L21.1,14.6"/>
				<path id="Fill-5" class="st3" d="M24.9,23.2c0.1,0.5,0.3,1,0.6,1.4c0.3,0.4,0.6,0.8,1,1c0.4,0.3,1,0.4,1.6,0.4s1.2-0.1,1.6-0.4
					s0.8-0.6,1-1c0.3-0.4,0.4-0.9,0.6-1.4c0.1-0.5,0.2-1.1,0.2-1.6c0-0.6-0.1-1.1-0.2-1.6s-0.3-1-0.6-1.4c-0.3-0.4-0.6-0.7-1-1
					s-1-0.4-1.6-0.4s-1.2,0.1-1.6,0.4s-0.8,0.6-1,1c-0.3,0.4-0.4,0.9-0.6,1.4c-0.1,0.5-0.2,1.1-0.2,1.6
					C24.8,22.1,24.8,22.7,24.9,23.2z M21.5,18.5c0.3-0.9,0.8-1.7,1.4-2.3c0.6-0.6,1.4-1.1,2.3-1.5s1.9-0.5,3-0.5s2.1,0.2,3,0.5
					s1.6,0.8,2.3,1.5c0.6,0.6,1.1,1.4,1.4,2.3c0.3,0.9,0.5,1.9,0.5,3s-0.2,2.1-0.5,3s-0.8,1.7-1.4,2.3c-0.6,0.6-1.4,1.1-2.3,1.5
					c-0.9,0.3-1.9,0.5-3,0.5s-2.1-0.2-3-0.5s-1.6-0.8-2.3-1.5c-0.6-0.6-1.1-1.4-1.4-2.3s-0.5-1.9-0.5-3
					C20.9,20.5,21.1,19.5,21.5,18.5L21.5,18.5z"/>
				<path id="Fill-6" class="st3" d="M39.8,14.6v2.6h0.1c0.2-0.4,0.4-0.8,0.7-1.2c0.3-0.4,0.7-0.7,1-0.9c0.4-0.3,0.8-0.5,1.3-0.6
					c0.4-0.1,0.9-0.2,1.4-0.2c0.3,0,0.5,0,0.8,0.1V18c-0.2,0-0.4-0.1-0.6-0.1c-0.3,0-0.5,0-0.7,0c-0.7,0-1.3,0.1-1.8,0.3
					c-0.5,0.2-0.9,0.6-1.2,1s-0.5,0.9-0.6,1.4C40,21,40,21.6,40,22.2v6.3h-3.8V14.6H39.8"/>
				<path id="Fill-7" class="st3" d="M52.2,32.7c-0.7,0.5-1.8,0.7-3.1,0.7c-0.4,0-0.8,0-1.2,0s-0.8-0.1-1.2-0.1v-3.2
					c0.4,0,0.7,0.1,1.1,0.1c0.4,0,0.8,0,1.1,0c0.5-0.1,0.9-0.3,1.1-0.6c0.2-0.3,0.4-0.7,0.4-1.1c0-0.3-0.1-0.6-0.2-0.9l-4.9-13.1
					h4.1l3.1,9.5h0.1l3-9.5h3.9l-5.8,15.6C53.5,31.4,53,32.2,52.2,32.7"/>
				<polygon id="Fill-8" class="st3" points="65.9,28.5 69.8,28.5 69.8,9.3 65.9,9.3 				"/>
				<path id="Fill-9" class="st3" d="M79.8,21.7c-0.2,0.1-0.4,0.3-0.6,0.3c-0.2,0.1-0.5,0.1-0.8,0.2s-0.6,0.1-0.9,0.1
					s-0.6,0.1-0.9,0.1c-0.3,0.1-0.6,0.1-0.8,0.2c-0.3,0.1-0.5,0.2-0.7,0.4c-0.2,0.2-0.4,0.3-0.5,0.6c-0.1,0.2-0.2,0.5-0.2,0.9
					c0,0.3,0.1,0.6,0.2,0.9c0.1,0.2,0.3,0.4,0.5,0.6c0.2,0.1,0.5,0.2,0.8,0.3c0.3,0.1,0.6,0.1,0.9,0.1c0.8,0,1.3-0.1,1.7-0.4
					c0.4-0.3,0.7-0.6,0.9-0.9c0.2-0.3,0.3-0.7,0.4-1.1c0-0.4,0.1-0.6,0.1-0.9L79.8,21.7L79.8,21.7z M71,18.9
					c0.1-0.9,0.3-1.6,0.7-2.2c0.4-0.6,0.9-1.1,1.5-1.4c0.6-0.4,1.3-0.6,2.1-0.8c0.8-0.2,1.5-0.2,2.3-0.2c0.7,0,1.4,0,2.1,0.1
					s1.4,0.3,2,0.6s1.1,0.7,1.4,1.2c0.4,0.5,0.6,1.2,0.6,2v7.2c0,0.6,0,1.2,0.1,1.8c0.1,0.6,0.2,1,0.4,1.3h-3.9
					c-0.1-0.2-0.1-0.4-0.2-0.7c0-0.2-0.1-0.5-0.1-0.7c-0.6,0.6-1.3,1.1-2.1,1.3c-0.8,0.3-1.7,0.4-2.5,0.4c-0.7,0-1.3-0.1-1.9-0.2
					c-0.6-0.2-1.1-0.4-1.5-0.8c-0.4-0.3-0.8-0.8-1-1.3s-0.4-1.1-0.4-1.9s0.1-1.4,0.4-2c0.3-0.5,0.6-0.9,1.1-1.2
					c0.4-0.3,0.9-0.5,1.5-0.7s1.1-0.3,1.7-0.4s1.1-0.2,1.7-0.2c0.6-0.1,1-0.1,1.5-0.2c0.4-0.1,0.8-0.3,1-0.5
					c0.3-0.2,0.4-0.5,0.3-0.9c0-0.4-0.1-0.7-0.2-1c-0.1-0.2-0.3-0.4-0.5-0.6c-0.2-0.1-0.5-0.2-0.8-0.3c-0.3,0-0.6-0.1-1-0.1
					c-0.8,0-1.3,0.2-1.8,0.5c-0.4,0.3-0.7,0.9-0.8,1.6H71V18.9z"/>
				<path id="Fill-10" class="st3" d="M95,19.9c-0.1-0.5-0.3-1-0.6-1.4c-0.3-0.4-0.6-0.7-1-1c-0.4-0.2-0.9-0.4-1.5-0.4
					s-1,0.1-1.4,0.4c-0.4,0.2-0.8,0.6-1,1c-0.3,0.4-0.5,0.9-0.6,1.4s-0.2,1.1-0.2,1.7s0.1,1.1,0.2,1.7c0.1,0.5,0.3,1,0.6,1.4
					c0.3,0.4,0.6,0.7,1,1c0.4,0.2,0.9,0.4,1.4,0.4c0.6,0,1.1-0.1,1.5-0.4c0.4-0.2,0.7-0.6,1-1s0.5-0.9,0.6-1.4s0.2-1.1,0.2-1.7
					S95.1,20.4,95,19.9z M88.8,9.3v7h0.1c0.5-0.7,1.1-1.2,1.9-1.6c0.8-0.3,1.6-0.5,2.5-0.5c0.7,0,1.4,0.1,2.1,0.4
					c0.7,0.3,1.3,0.7,1.8,1.3c0.5,0.6,1,1.4,1.3,2.3s0.5,2,0.5,3.3s-0.2,2.4-0.5,3.3s-0.8,1.7-1.3,2.3c-0.5,0.6-1.2,1-1.8,1.3
					c-0.7,0.3-1.4,0.4-2.1,0.4c-1,0-1.9-0.2-2.7-0.5c-0.8-0.3-1.4-0.9-1.8-1.6h-0.1v1.8H85V9.3H88.8L88.8,9.3z"/>
				<path id="Fill-11" class="st3" d="M25.2,9.3V10h-0.7v1.8c0,0.2,0,0.3,0.1,0.3c0.1,0.1,0.2,0.1,0.3,0.1c0.1,0,0.1,0,0.2,0
					s0.1,0,0.2,0V13c-0.1,0-0.2,0-0.3,0c-0.1,0-0.2,0-0.3,0c-0.2,0-0.3,0-0.4,0s-0.3-0.1-0.4-0.1c-0.1-0.1-0.2-0.2-0.3-0.3
					c-0.1-0.1-0.1-0.3-0.1-0.5V10h-0.6V9.3h0.6V8.2h1v1.1H25.2"/>
				<path id="Fill-12" class="st3" d="M26.5,7.9v1.9l0,0c0.1-0.2,0.3-0.4,0.5-0.5s0.4-0.1,0.6-0.1c0.3,0,0.5,0,0.7,0.1
					s0.3,0.2,0.4,0.3s0.2,0.3,0.2,0.5s0.1,0.4,0.1,0.6V13h-1v-2.1c0-0.3,0-0.5-0.1-0.7S27.6,10,27.4,10c-0.3,0-0.5,0.1-0.6,0.2
					c-0.1,0.2-0.2,0.4-0.2,0.8v2h-1V7.9H26.5"/>
				<path id="Fill-13" class="st3" d="M31.9,10.1c-0.1-0.1-0.3-0.2-0.6-0.2c-0.2,0-0.3,0-0.4,0.1s-0.2,0.1-0.3,0.2
					c-0.1,0.1-0.1,0.2-0.1,0.3s0,0.2,0,0.2h1.7C32.1,10.5,32,10.3,31.9,10.1z M30.7,12.1c0.2,0.1,0.4,0.2,0.7,0.2
					c0.2,0,0.4-0.1,0.5-0.2c0.1-0.1,0.2-0.2,0.3-0.3h0.9c-0.1,0.4-0.4,0.8-0.7,1s-0.7,0.3-1.1,0.3c-0.3,0-0.6,0-0.8-0.1
					c-0.2-0.1-0.4-0.2-0.6-0.4s-0.3-0.4-0.4-0.6c-0.1-0.2-0.1-0.5-0.1-0.8s0-0.5,0.1-0.8c0.1-0.2,0.2-0.4,0.4-0.6
					c0.2-0.2,0.4-0.3,0.6-0.4c0.2-0.1,0.5-0.2,0.8-0.2s0.6,0.1,0.8,0.2c0.2,0.1,0.4,0.3,0.6,0.5c0.2,0.2,0.3,0.4,0.3,0.7
					c0.1,0.3,0.1,0.5,0.1,0.8h-2.7C30.5,11.7,30.6,12,30.7,12.1L30.7,12.1z"/>
			</g>
		</g>
	</g>
</g>
</svg>
