<!-- Generator: Adobe Illustrator 19.2.1, SVG Export Plug-In  -->
<svg version="1.1"
   xmlns="http://www.w3.org/2000/svg" xmlns:xlink="http://www.w3.org/1999/xlink" xmlns:a="http://ns.adobe.com/AdobeSVGViewerExtensions/3.0/"
   x="0px" y="0px" width="100px" height="43px" viewBox="0 0 100 43" style="enable-background:new 0 0 100 43;"
   xml:space="preserve">
<style type="text/css">
  .st0{fill:#FFFFFF;}
  .st1{fill:#FFFFFF;}
</style>
<defs>
</defs>
<g>
  <g>
    <path class="st0" d="M99.4,0H86.3c-0.5,0-1,0.4-1.1,0.8L79,25L72.8,0.8C72.7,0.4,72.2,0,71.7,0H33.3c-0.4,0-0.8,0.4-0.8,0.9v8.9
      c0,0.5,0.4,0.8,0.8,0.8h9.8V28c3.1,1.9,5.2,5.3,5.2,9.2c0,1.2-0.2,2.3-0.5,3.4h6.7c0.5,0,0.8-0.4,0.8-0.8V10.6h6.2l10.1,29.1
      c0.1,0.4,0.6,0.8,1.1,0.8h12.9c0.5,0,0.9-0.4,1.1-0.8L99.9,0.8C100.1,0.4,99.8,0,99.4,0z M31.4,13.3c0-8-6-13.3-15-13.3H0.9
      C0.4,0,0,0.4,0,0.9v38.8c0,0.4,0.4,0.8,0.9,0.8h10.3c0.5,0,0.9-0.4,0.9-0.8V26.8h0.7L19,39.6c0.2,0.5,0.8,0.9,1.4,0.9h6.8
      c-0.3-1.1-0.5-2.2-0.5-3.4c0-2.2,0.7-4.2,1.8-5.9l-4.2-6.7C28.6,22.6,31.4,17.9,31.4,13.3z M15.6,16.8h-3.5v-6.2h3.5
      c2,0,3.4,1.2,3.4,3.1C19,15.6,17.6,16.8,15.6,16.8z"/>
  </g>
</g>
<path class="st1" d="M43.2,37.2c0,3.2-2.6,5.8-5.8,5.8c-3.2,0-5.8-2.6-5.8-5.8c0-3.2,2.6-5.8,5.8-5.8C40.6,31.3,43.2,34,43.2,37.2z"
  />
</svg>
