<?xml version="1.0" encoding="UTF-8"?>
<svg width="206px" height="53px" viewBox="0 0 206 53" version="1.1" xmlns="http://www.w3.org/2000/svg" xmlns:xlink="http://www.w3.org/1999/xlink">
    <!-- Generator: Sketch 55 (78076) - https://sketchapp.com -->
    <title>logo/RTV hero</title>
    <desc>Created with Sketch.</desc>
    <g id="SYMBOLS-&amp;-STYLES" stroke="none" stroke-width="1" fill="none" fill-rule="evenodd">
        <g id="nav---logged-in-DARK" transform="translate(-42.000000, -26.000000)" fill="#ffffff">
            <g id="logo/dark-logo" transform="translate(41.000000, 24.000000)">
                <g id="The-Story-Lab-Logo-White" transform="translate(1.527166, 2.145161)">
                    <g id="Group-3" transform="translate(0.000000, 12.959216)">
                        <path d="M7.96966753,22.5607804 C8.31880718,23.1694585 8.76966151,23.6675784 9.32101962,24.05514 C9.87278135,24.4422966 10.5068835,24.7286142 11.2237298,24.9128781 C11.9409797,25.0975469 12.6852728,25.1894764 13.4574163,25.1894764 C14.0091781,25.1894764 14.5883866,25.1254902 15.195042,24.9954931 C15.8012937,24.8671159 16.3530555,24.6638182 16.8495199,24.3868149 C17.3459844,24.1106216 17.7593012,23.7416889 18.0902775,23.2804218 C18.4212538,22.8191547 18.586742,22.2384199 18.586742,21.5370023 C18.586742,20.3569037 17.805315,19.4716272 16.2428646,18.8811729 C14.6796069,18.2915286 12.500814,17.7006693 9.70688957,17.1102151 C8.56703942,16.8526506 7.45423246,16.5481091 6.37008321,16.1969953 C5.2851267,15.8466915 4.32004819,15.3862343 3.47444407,14.813599 C2.62843631,14.2417736 1.94832034,13.5225371 1.43409616,12.6554845 C0.918661094,11.7892419 0.661952634,10.7282061 0.661952634,9.47359197 C0.661952634,7.62892855 1.02037577,6.11675002 1.73722203,4.93584145 C2.45447193,3.75533785 3.40057984,2.82429917 4.57756391,2.14151047 C5.75414436,1.45912674 7.077646,0.978825794 8.54887609,0.7026325 C10.0188953,0.425629255 11.5272593,0.287127632 13.0715464,0.287127632 C14.6158334,0.287127632 16.1132994,0.435348667 17.5663662,0.730170834 C19.0186257,1.02580295 20.3146805,1.52392282 21.4549343,2.22453044 C22.5939772,2.92554304 23.541296,3.85658173 24.2952762,5.01886142 C25.0484491,6.18073615 25.4993034,7.64715245 25.6466283,9.41811033 L18.200872,9.41811033 C18.0902775,7.90593179 17.5199488,6.88215372 16.4906932,6.3467761 C15.4610339,5.81261341 14.2477232,5.54451963 12.8507609,5.54451963 C12.4095937,5.54451963 11.9312926,5.57205796 11.4166648,5.62753961 C10.9012297,5.68302125 10.4326157,5.80329898 10.0104191,5.98715785 C9.58701156,6.17223166 9.22858843,6.43951549 8.93474604,6.78941433 C8.64009639,7.14052809 8.49357882,7.61070465 8.49357882,8.20075396 C8.49357882,8.90176656 8.75028728,9.47359197 9.26572235,9.9162302 C9.78035016,10.3588684 10.4515863,10.7184867 11.2790271,10.9954899 C12.1060642,11.2720882 13.0525758,11.5211481 14.119369,11.7422647 C15.1853549,11.9637863 16.2703114,12.2039368 17.3734312,12.4619062 C18.5128777,12.7202806 19.6252811,13.0341366 20.7102376,13.4022593 C21.7943868,13.771597 22.7594653,14.2599975 23.6058767,14.8686756 C24.4510772,15.4773538 25.1311932,16.2338481 25.6466283,17.1377534 C26.1612561,18.0420637 26.4187718,19.1573662 26.4187718,20.4856859 C26.4187718,22.3672021 26.0413781,23.9441767 25.2878015,25.2170147 C24.5338213,26.4898527 23.5505795,27.5136308 22.3372687,28.2883489 C21.123958,29.0630671 19.735472,29.6077591 18.1730216,29.9208052 C16.6097639,30.2338512 15.0198667,30.3909817 13.4025227,30.3909817 C11.7476411,30.3909817 10.1294898,30.2249418 8.54887609,29.8932668 C6.9674551,29.5611869 5.56080575,29.0075854 4.32973531,28.2328673 C3.09705034,27.4581491 2.08636169,26.4343711 1.29605482,25.1615331 C0.504940698,23.8891 0.0730569675,22.2934965 0,20.3751276 L7.44575624,20.3751276 C7.44575624,21.2243612 7.61972062,21.9525072 7.96966753,22.5607804" id="Fill-1"></path>
                    </g>
                    <path d="M44.5086457,14.0214669 L44.5086457,19.2784539 L38.7726646,19.2784539 L38.7726646,33.444902 C38.7726646,34.7732217 38.9930464,35.6584981 39.4342136,36.1011363 C39.8753809,36.5437746 40.7581189,36.7652962 42.0816205,36.7652962 C42.5227878,36.7652962 42.9449844,36.7470723 43.3502285,36.7098145 C43.7542618,36.6733667 44.1405354,36.6178851 44.5086457,36.5437746 L44.5086457,42.6309614 C43.846693,42.7415197 43.1104725,42.8152252 42.302406,42.852483 C41.4931285,42.8889308 40.7028216,42.9079646 39.9306781,42.9079646 C38.7173674,42.9079646 37.5678301,42.8249446 36.4836809,42.6584997 C35.3987243,42.4924598 34.4429293,42.1700993 33.6154885,41.6902033 C32.7880477,41.2111173 32.134975,40.5283286 31.6574811,39.6426471 C31.1791799,38.7573707 30.9406348,37.595496 30.9406348,36.156618 L30.9406348,19.2784539 L26.1971791,19.2784539 L26.1971791,14.0214669 L30.9406348,14.0214669 L30.9406348,5.4440857 L38.7726646,5.4440857 L38.7726646,14.0214669 L44.5086457,14.0214669" id="Fill-4"></path>
                    <path d="M52.284571,31.7018874 C52.5053564,32.7904616 52.8819428,33.7680725 53.4151376,34.63472 C53.9479288,35.5021776 54.6562988,36.1938757 55.5386332,36.7098145 C56.4213713,37.2269683 57.5244911,37.4845327 58.8479928,37.4845327 C60.1714944,37.4845327 61.2834941,37.2269683 62.1847991,36.7098145 C63.0852969,36.1938757 63.8021432,35.5021776 64.3357416,34.63472 C64.8681291,33.7680725 65.2455228,32.7904616 65.4663082,31.7018874 C65.6870936,30.6141232 65.7972845,29.4976058 65.7972845,28.353955 C65.7972845,27.2107091 65.6870936,26.0852822 65.4663082,24.9780791 C65.2455228,23.8716861 64.8681291,22.8944802 64.3357416,22.0452465 C63.8021432,21.1968229 63.0852969,20.5051247 62.1847991,19.9701521 C61.2834941,19.4359894 60.1714944,19.1678956 58.8479928,19.1678956 C57.5244911,19.1678956 56.4213713,19.4359894 55.5386332,19.9701521 C54.6562988,20.5051247 53.9479288,21.1968229 53.4151376,22.0452465 C52.8819428,22.8944802 52.5053564,23.8716861 52.284571,24.9780791 C52.0637855,26.0852822 51.9535946,27.2107091 51.9535946,28.353955 C51.9535946,29.4976058 52.0637855,30.6141232 52.284571,31.7018874 Z M45.169791,22.1282665 C45.8676667,20.2657842 46.8605957,18.6794951 48.1481743,17.3693994 C49.4349456,16.0601136 50.978829,15.045245 52.7810354,14.3260085 C54.5820309,13.606367 56.6046191,13.2463438 58.8479928,13.2463438 C61.0901555,13.2463438 63.1224308,13.606367 64.9423969,14.3260085 C66.762363,15.045245 68.31553,16.0601136 69.6027049,17.3693994 C70.8894763,18.6794951 71.8824052,20.2657842 72.5810881,22.1282665 C73.2793674,23.9919638 73.6289107,26.0670583 73.6289107,28.353955 C73.6289107,30.6420666 73.2793674,32.7074416 72.5810881,34.5517001 C71.8824052,36.3971734 70.8894763,37.9737431 69.6027049,39.2830289 C68.31553,40.5931246 66.762363,41.5986788 64.9423969,42.2988815 C63.1224308,42.9990841 61.0901555,43.3501979 58.8479928,43.3501979 C56.6046191,43.3501979 54.5820309,42.9990841 52.7810354,42.2988815 C50.978829,41.5986788 49.4349456,40.5931246 48.1481743,39.2830289 C46.8605957,37.9737431 45.8676667,36.3971734 45.169791,34.5517001 C44.4707045,32.7074416 44.1219684,30.6420666 44.1219684,28.353955 C44.1219684,26.0670583 44.4707045,23.9919638 45.169791,22.1282665 L45.169791,22.1282665 Z" id="Fill-5"></path>
                    <path d="M82.8393358,14.0214669 L82.8393358,19.3339355 L82.9495267,19.3339355 C83.3168297,18.4482541 83.8128905,17.6277737 84.4389201,16.8712795 C85.0637388,16.1151902 85.7805851,15.4696593 86.5898626,14.9342817 C87.3983328,14.400119 88.2625039,13.9850191 89.1819722,13.689387 C90.1006333,13.3945648 91.0572356,13.2463438 92.0501645,13.2463438 C92.5647923,13.2463438 93.1343138,13.3390832 93.7599398,13.523347 L93.7599398,20.8278902 C93.3918295,20.7545896 92.9506623,20.6893886 92.4360345,20.6343119 C91.9205994,20.5788302 91.4245386,20.5512919 90.9470447,20.5512919 C89.5129485,20.5512919 88.2996378,20.7914424 87.3067088,21.2705284 C86.3141835,21.7508294 85.5141895,22.4052698 84.9075342,23.2354696 C84.3008788,24.0648594 83.8681878,25.0335608 83.6114793,26.1403588 C83.3539636,27.2471569 83.2252058,28.4462894 83.2252058,29.7373513 L83.2252058,42.6309614 L75.3935796,42.6309614 L75.3935796,14.0214669 L82.8393358,14.0214669" id="Fill-6"></path>
                    <path d="M108.430667,51.1528609 C106.922303,52.1491007 104.826658,52.6468156 102.142924,52.6468156 C101.333647,52.6468156 100.534056,52.6192772 99.7437494,52.5637956 C98.9526353,52.5091239 98.1530449,52.4439228 97.3445747,52.3706223 L97.3445747,45.8962789 C98.0795843,45.9691745 98.8335645,46.04288 99.605708,46.1169905 C100.377852,46.1906961 101.150399,46.20892 101.922542,46.1724722 C102.951394,46.0619139 103.715062,45.6557234 104.211526,44.9551158 C104.707587,44.2541032 104.955819,43.4793851 104.955819,42.6309614 C104.955819,42.0040593 104.845628,41.413605 104.624843,40.8600035 L94.6422742,14.0214669 L102.970365,14.0214669 L109.423192,33.610942 L109.533787,33.610942 L115.766232,14.0214669 L123.873537,14.0214669 L111.960408,46.1724722 C111.113997,48.4966266 109.93782,50.1570262 108.430667,51.1528609" id="Fill-7"></path>
                    <polygon id="Fill-8" points="136.613704 42.6309614 144.445734 42.6309614 144.445734 3.11993128 136.613704 3.11993128"></polygon>
                    <path d="M165.128121,28.6305532 C164.797548,28.9261853 164.383828,29.1562114 163.887363,29.3222514 C163.390899,29.4882913 162.8573,29.626793 162.287779,29.7373513 C161.71745,29.8479096 161.120078,29.940244 160.49526,30.0139495 C159.869634,30.0880601 159.244815,30.1799895 158.619996,30.2905478 C158.031504,30.4015111 157.452296,30.5493272 156.882774,30.733186 C156.312445,30.9182598 155.815981,31.1673198 155.393784,31.4803658 C154.970377,31.7942219 154.630117,32.1910979 154.373409,32.6701839 C154.115489,33.1500798 153.987135,33.758758 153.987135,34.4962184 C153.987135,35.197636 154.115489,35.7880903 154.373409,36.2671763 C154.630117,36.7470723 154.980064,37.1249144 155.421231,37.4015127 C155.862398,37.6785159 156.377026,37.8720942 156.965518,37.9826525 C157.553203,38.0932109 158.159858,38.1486925 158.785888,38.1486925 C160.329771,38.1486925 161.524515,37.8911281 162.370523,37.3739744 C163.216127,36.8576306 163.840542,36.239638 164.245786,35.5199965 C164.64982,34.80076 164.898456,34.072614 164.990483,33.3343437 C165.081703,32.5968833 165.128121,32.006429 165.128121,31.5633858 L165.128121,28.6305532 Z M147.037843,22.8199647 C147.148034,20.9757062 147.607365,19.4444939 148.416642,18.2267325 C149.225112,17.0093762 150.254772,16.0321703 151.505216,15.2938999 C152.754854,14.5564395 154.161503,14.0307813 155.724761,13.7173303 C157.287211,13.4038792 158.858945,13.2463438 160.440366,13.2463438 C161.874059,13.2463438 163.326318,13.3483976 164.797548,13.5508853 C166.267567,13.7541831 167.61004,14.151059 168.823754,14.7407034 C170.037065,15.3311577 171.02959,16.151638 171.802137,17.2033594 C172.574281,18.2546758 172.960151,19.6473866 172.960151,21.3810867 L172.960151,36.2671763 C172.960151,37.5590482 173.033208,38.7942235 173.180936,39.974727 C173.32705,41.1556356 173.584969,42.041317 173.95308,42.6309614 L166.010859,42.6309614 C165.863534,42.1883232 165.743656,41.7367755 165.652436,41.2751034 C165.560005,40.8146462 165.495424,40.3440647 165.459097,39.8641687 C164.209056,41.1556356 162.737826,42.0595409 161.047021,42.5754797 C159.355409,43.0918235 157.627471,43.3501979 155.862398,43.3501979 C154.501763,43.3501979 153.233155,43.1841579 152.056978,42.852483 C150.87959,42.5204031 149.850738,42.0040593 148.968,41.3030467 C148.085666,40.6024391 147.396266,39.7171626 146.899802,38.6464074 C146.403337,37.5772721 146.155509,36.3044341 146.155509,34.8282983 C146.155509,33.2055615 146.439664,31.8679274 147.010396,30.816206 C147.579918,29.7652946 148.314928,28.9261853 149.216636,28.2984733 C150.11673,27.6719762 151.146793,27.2009897 152.304807,26.8875387 C153.463224,26.5744926 154.630117,26.3250277 155.807505,26.1403588 C156.983682,25.956095 158.141695,25.8082789 159.281949,25.6977206 C160.421395,25.5867573 161.432891,25.4211224 162.315629,25.1996008 C163.197964,24.9780791 163.895839,24.6557186 164.411275,24.2313043 C164.925902,23.8076999 165.164447,23.1893023 165.128121,22.3773265 C165.128121,21.5293078 164.990483,20.8558335 164.7144,20.3573086 C164.438721,19.8595938 164.071015,19.4724372 163.611684,19.1954339 C163.151143,18.9184307 162.618755,18.7345718 162.0121,18.6422374 C161.405444,18.5503079 160.752372,18.5037358 160.054092,18.5037358 C158.509805,18.5037358 157.296495,18.8358157 156.41416,19.4999755 C155.531422,20.1641353 155.016391,21.2705284 154.869469,22.8199647 L147.037843,22.8199647 L147.037843,22.8199647 Z" id="Fill-9"></path>
                    <path d="M196.289945,24.8675208 C196.032025,23.7607228 195.627588,22.7835169 195.07623,21.9346882 C194.524469,21.0866695 193.835069,20.4127903 193.008032,19.9146704 C192.180591,19.4169555 191.178379,19.1678956 190.002202,19.1678956 C188.861948,19.1678956 187.869423,19.4169555 187.023819,19.9146704 C186.177407,20.4127903 185.479532,21.0866695 184.928174,21.9346882 C184.376412,22.7835169 183.971168,23.7607228 183.714459,24.8675208 C183.456943,25.9743189 183.328589,27.1361936 183.328589,28.353955 C183.328589,29.5348635 183.456943,30.6777044 183.714459,31.7849074 C183.971168,32.8913005 184.376412,33.8693163 184.928174,34.71774 C185.479532,35.5669737 186.177407,36.239638 187.023819,36.7373529 C187.869423,37.2354727 188.861948,37.4845327 190.002202,37.4845327 C191.178379,37.4845327 192.180591,37.2354727 193.008032,36.7373529 C193.835069,36.239638 194.524469,35.5669737 195.07623,34.71774 C195.627588,33.8693163 196.032025,32.8913005 196.289945,31.7849074 C196.546653,30.6777044 196.675815,29.5348635 196.675815,28.353955 C196.675815,27.1361936 196.546653,25.9743189 196.289945,24.8675208 Z M183.604268,3.11993128 L183.604268,17.507496 L183.714459,17.507496 C184.670254,16.0321703 185.966309,14.9533155 187.603027,14.2705268 C189.238535,13.5881431 190.939834,13.2463438 192.704502,13.2463438 C194.138599,13.2463438 195.553724,13.5423809 196.951494,14.1320252 C198.348456,14.7224795 199.607377,15.6259798 200.729467,16.8433362 C201.85075,18.0610975 202.760935,19.6202532 203.459618,21.5195883 C204.157898,23.4201384 204.507441,25.6794967 204.507441,28.2984733 C204.507441,30.9182598 204.157898,33.1776182 203.459618,35.0773583 C202.760935,36.9779083 201.85075,38.5362541 200.729467,39.7536104 C199.607377,40.9705618 198.348456,41.8752771 196.951494,42.4649214 C195.553724,43.0545658 194.138599,43.3501979 192.704502,43.3501979 C190.608857,43.3501979 188.733594,43.018118 187.079116,42.3539581 C185.424234,41.6902033 184.17379,40.5651813 183.328589,38.9788923 L183.217995,38.9788923 L183.217995,42.6309614 L175.772238,42.6309614 L175.772238,3.11993128 L183.604268,3.11993128 L183.604268,3.11993128 Z" id="Fill-10"></path>
                    <path d="M52.7745774,3.07983871 L52.7745774,4.48834351 L51.2379593,4.48834351 L51.2379593,8.28336896 C51.2379593,8.63893746 51.2972928,8.87584813 51.4155563,8.99450595 C51.5338198,9.11316377 51.7699431,9.17269517 52.1247336,9.17269517 C52.2429971,9.17269517 52.3560134,9.16743049 52.4641862,9.15771108 C52.5727625,9.14799167 52.6760917,9.13300757 52.7745774,9.11316377 L52.7745774,10.7440001 C52.5973839,10.7735633 52.4004127,10.7934071 52.1836635,10.8031266 C51.9669144,10.8132509 51.7554125,10.8177057 51.5483505,10.8177057 C51.2234286,10.8177057 50.9154592,10.795837 50.6248458,10.7512897 C50.3342325,10.7067424 50.0783313,10.6204826 49.8567386,10.4921054 C49.6351459,10.3633232 49.4599706,10.1806792 49.3324237,9.94336356 C49.2040694,9.70604791 49.1402959,9.39502672 49.1402959,9.00949004 L49.1402959,4.48834351 L47.8696698,4.48834351 L47.8696698,3.07983871 L49.1402959,3.07983871 L49.1402959,0.782007699 L51.2379593,0.782007699 L51.2379593,3.07983871 L52.7745774,3.07983871" id="Fill-11"></path>
                    <path d="M55.5967559,0.159560349 L55.5967559,4.14735414 L55.6407515,4.14735414 C55.9067435,3.70269104 56.2465996,3.37871063 56.66032,3.17622288 C57.0740404,2.97373513 57.4776701,2.87249125 57.8716126,2.87249125 C58.4334651,2.87249125 58.8936029,2.94903162 59.2532369,3.10211236 C59.612871,3.25559808 59.896219,3.46780524 60.1028774,3.73954381 C60.3095358,4.01128237 60.4548424,4.34255233 60.5387974,4.73294872 C60.6223487,5.1233451 60.6643262,5.55545397 60.6643262,6.02968028 L60.6643262,10.7440001 L58.5662593,10.7440001 L58.5662593,6.41521696 C58.5662593,5.7830502 58.4677736,5.31084876 58.2708024,4.9994226 C58.0734275,4.68840141 57.7242878,4.53248584 57.2217689,4.53248584 C56.6506329,4.53248584 56.2369125,4.70298053 55.9806077,5.04396991 C55.7243029,5.38495928 55.5967559,5.94585035 55.5967559,6.72664313 L55.5967559,10.7440001 L53.4982853,10.7440001 L53.4982853,0.159560349 L55.5967559,0.159560349" id="Fill-12"></path>
                    <path d="M66.5960676,4.87347522 C66.34501,4.59728192 65.9631763,4.45837533 65.4509703,4.45837533 C65.1163613,4.45837533 64.8378568,4.51547687 64.6162642,4.62887001 C64.3946715,4.74266813 64.2174781,4.88359961 64.0846839,5.05166444 C63.9514861,5.21972927 63.857844,5.39751352 63.8037577,5.58542215 C63.7492677,5.77292581 63.7173809,5.94099065 63.7076938,6.08921168 L67.1207862,6.08921168 C67.0218969,5.55545397 66.8475289,5.15047846 66.5960676,4.87347522 Z M64.2247434,8.90581631 C64.5399782,9.21238277 64.9928506,9.36505854 65.5841681,9.36505854 C66.0075756,9.36505854 66.3720532,9.25935993 66.6776008,9.04634281 C66.9827448,8.83413565 67.170029,8.60896927 67.238646,8.3720586 L69.0856553,8.3720586 C68.7901984,9.29135299 68.337326,9.94862824 67.7262307,10.3438843 C67.115539,10.7391404 66.3768967,10.9363635 65.5103039,10.9363635 C64.9092993,10.9363635 64.3676283,10.8403843 63.8848872,10.647616 C63.4025498,10.4548476 62.9932693,10.1806792 62.6586603,9.82470573 C62.3236477,9.46873226 62.0653247,9.04431794 61.8828841,8.54984285 C61.7008472,8.05577273 61.6096269,7.5122956 61.6096269,6.91900649 C61.6096269,6.34596615 61.7032689,5.81261341 61.8901495,5.31813832 C62.0774336,4.82447318 62.3434256,4.39681905 62.6885289,4.03598588 C63.032825,3.67555768 63.4441236,3.3908599 63.9220212,3.18351244 C64.399515,2.97616498 64.9290771,2.87249125 65.5103039,2.87249125 C66.1605512,2.87249125 66.72644,2.99843863 67.2091811,3.2503334 C67.6919221,3.50222816 68.0882865,3.84078768 68.3986777,4.26560699 C68.7090689,4.69083127 68.9330833,5.17518197 69.0711247,5.7186591 C69.2087624,6.26213622 69.2580052,6.83031685 69.2188531,7.42360597 L63.7076938,7.42360597 C63.7371588,8.10517974 63.9095086,8.59965483 64.2247434,8.90581631 L64.2247434,8.90581631 Z" id="Fill-13"></path>
                </g>
            </g>
        </g>
    </g>
</svg>