<?xml version="1.0" encoding="utf-8"?>
<!-- Generator: Adobe Illustrator 19.2.1, SVG Export Plug-In . SVG Version: 6.00 Build 0)  -->
<svg version="1.1" id="Layer_1" xmlns="http://www.w3.org/2000/svg" xmlns:xlink="http://www.w3.org/1999/xlink" x="0px" y="0px"
	 width="17.4px" height="15px" viewBox="0 0 17.4 15" style="enable-background:new 0 0 17.4 15;" xml:space="preserve">
<style type="text/css">
	.st0{fill:#98A5B1;}
</style>
<title>icon/dark/tag</title>
<desc>Created with Sketch.</desc>
<g id="icon_x2F_dark_x2F_tag">
	<path id="Combined-Shape" class="st0" d="M15.6,1.3c0.4,0.6,0.2,0.3,0.7,1l0.3,0.5c0.2,0.3,0.3,0.8,0.1,1.1l-1,3.1
		c-0.1,0.3-0.4,0.7-0.7,0.9l-9.4,6.6c-0.5,0.3-1,0.4-1.3-0.1L0.2,8.3C-0.1,7.9,0,7.3,0.4,6.9l9.4-6.6C10.1,0.2,10.6,0,10.9,0l3.2,0
		c0.3,0,0.8,0.2,1,0.5L15.6,1.3z M12.8,5.5c1,0,1.8-0.8,1.8-1.8S13.7,2,12.8,2S11,2.8,11,3.8S11.8,5.5,12.8,5.5z"/>
</g>
</svg>
