<?xml version="1.0" encoding="utf-8"?>
<!-- Generator: Adobe Illustrator 21.0.2, SVG Export Plug-In . SVG Version: 6.00 Build 0)  -->
<svg version="1.1" id="Layer_1" xmlns="http://www.w3.org/2000/svg" xmlns:xlink="http://www.w3.org/1999/xlink" x="0px" y="0px"
   viewBox="0 0 32 32" style="enable-background:new 0 0 32 32;" xml:space="preserve">
<style type="text/css">
  .st0{fill:#FFFFFF;}
</style>
<title>icon/light/thumbs up</title>
<desc>Created with Sketch.</desc>
<g id="icon_x2F_light_x2F_thumbs-up">
  <path id="Fill-1" class="st0" d="M11,19.5c0.7,0-1-0.6-1-2.4v-6.4c0-1.7,1.7-2.3,1-2.3c-0.7,0-3,0.3-3,3v4.8
    C8,19.1,10.3,19.5,11,19.5 M19.6,19.6c0.1-0.4,4.4-0.3,4.4-1.7c0-1.4-2-9.9-3.4-9.9C16.9,8,12,9.3,12,10.6v6.8c0,1.1,3.1,3,4.4,3.9
    c2.4,1.6,4.1,5.2,4.6,4.6C23.2,23.3,19.5,20,19.6,19.6"/>
</g>
</svg>
