<!-- Generator: Adobe Illustrator 21.0.2, SVG Export Plug-In  -->
<svg version="1.1"
   xmlns="http://www.w3.org/2000/svg" xmlns:xlink="http://www.w3.org/1999/xlink" xmlns:a="http://ns.adobe.com/AdobeSVGViewerExtensions/3.0/"
   x="0px" y="0px" width="54px" height="65px" viewBox="0 0 54 65" style="enable-background:new 0 0 54 65;" xml:space="preserve">
<style type="text/css">
  .st0{fill:#A9B1BC;}
</style>
<defs>
</defs>
<path class="st0" d="M36,0H2.9C1.3,0,0,1.3,0,2.9v59.2C0,63.7,1.3,65,2.9,65h42.2c1.6,0,2.9-1.3,2.9-2.9V57h-2v5c0,0.5-0.4,1-1,1H3
  c-0.5,0-1-0.4-1-1V3c0-0.5,0.4-1,1-1h32v9c0,1.1,0.9,2,2,2h9v20h2V12L36,0z"/>
<g>
  <polygon class="st0" points="33.7,46.1 35.9,46.1 34.8,42.7  "/>
  <path class="st0" d="M52,35H14c-1.1,0-2,0.9-2,2v16c0,1.1,0.9,2,2,2h38c1.1,0,2-0.9,2-2V37C54,35.9,53.1,35,52,35z M26.8,49.3
    l-1-5.1l-0.3-1.7l-0.3,1.7l-1,5.1h-1.7l-2.4-8.6h1.9l1.1,4.9l0.2,1.4l0.2-1.3l1-5h1.9l1,4.9l0.3,1.4l0.3-1.3l1.2-5h1.8l-2.4,8.6
    H26.8z M37,49.3l-0.6-1.8h-3.2l-0.6,1.8h-1.9l3.1-8.6h2l3.1,8.6H37z M43.1,49.3h-1.7l-2.9-8.6h1.9l1.9,6.6l1.9-6.6h1.9L43.1,49.3z"
    />
</g>
</svg>
