<!-- Generator: Adobe Illustrator 21.0.2, SVG Export Plug-In  -->
<svg version="1.1"
   xmlns="http://www.w3.org/2000/svg" xmlns:xlink="http://www.w3.org/1999/xlink" xmlns:a="http://ns.adobe.com/AdobeSVGViewerExtensions/3.0/"
   x="0px" y="0px" width="54px" height="65px" viewBox="0 0 54 65" style="enable-background:new 0 0 54 65;" xml:space="preserve">
<style type="text/css">
  .st0{fill:#A9B1BC;}
</style>
<defs>
</defs>
<path class="st0" d="M36,0H2.9C1.3,0,0,1.3,0,2.9v59.2C0,63.7,1.3,65,2.9,65h42.2c1.6,0,2.9-1.3,2.9-2.9V57h-2v5c0,0.5-0.4,1-1,1H3
  c-0.5,0-1-0.4-1-1V3c0-0.5,0.4-1,1-1h32v9c0,1.1,0.9,2,2,2h9v20h2V12L36,0z"/>
<g>
  <path class="st0" d="M52,35H14c-1.1,0-2,0.9-2,2v16c0,1.1,0.9,2,2,2h38c1.1,0,2-0.9,2-2V37C54,35.9,53.1,35,52,35z M29.3,49.3h-2
    c-0.1-0.2-0.1-0.3-0.1-0.5c0-0.2-0.1-0.5-0.1-0.7l0-0.8c0-0.6-0.1-0.9-0.3-1.1c-0.2-0.2-0.5-0.3-1-0.3h-1.8v3.4h-1.8v-8.6h4.1
    c0.6,0,1,0.1,1.4,0.2c0.3,0.1,0.6,0.3,0.8,0.6c0.2,0.2,0.3,0.5,0.4,0.7s0.2,0.6,0.2,0.9c0,0.4-0.1,0.8-0.3,1.2s-0.5,0.7-1,0.8
    c0.4,0.2,0.7,0.4,0.8,0.7s0.2,0.7,0.2,1.4v0.6c0,0.4,0,0.7,0,0.8c0,0.2,0.2,0.4,0.3,0.5V49.3z M37.2,42.2h-2.6v7.1h-1.8v-7.1h-2.6
    v-1.5h7V42.2z M44.4,42.2H40v2h3.8v1.5H40v3.6h-1.8v-8.6h6.2V42.2z"/>
  <path class="st0" d="M26.9,42.3c-0.2-0.1-0.5-0.2-0.8-0.2h-2v2.3H26c0.4,0,0.7,0,0.9-0.1c0.3-0.2,0.5-0.5,0.5-1
    C27.4,42.9,27.2,42.5,26.9,42.3z"/>
</g>
</svg>
