<!-- Generator: Adobe Illustrator 21.0.2, SVG Export Plug-In  -->
<svg version="1.1"
   xmlns="http://www.w3.org/2000/svg" xmlns:xlink="http://www.w3.org/1999/xlink" xmlns:a="http://ns.adobe.com/AdobeSVGViewerExtensions/3.0/"
   x="0px" y="0px" width="54px" height="65px" viewBox="0 0 54 65" style="enable-background:new 0 0 54 65;" xml:space="preserve">
<style type="text/css">
  .st0{fill:#A9B1BC;}
</style>
<defs>
</defs>
<path class="st0" d="M36,0H2.9C1.3,0,0,1.3,0,2.9v59.2C0,63.7,1.3,65,2.9,65h42.2c1.6,0,2.9-1.3,2.9-2.9V57h-2v5c0,0.5-0.4,1-1,1H3
  c-0.5,0-1-0.4-1-1V3c0-0.5,0.4-1,1-1h32v9c0,1.1,0.9,2,2,2h9v20h2V12L36,0z"/>
<path class="st0" d="M52,35H14c-1.1,0-2,0.9-2,2v16c0,1.1,0.9,2,2,2h38c1.1,0,2-0.9,2-2V37C54,35.9,53.1,35,52,35z M28.9,42.2h-2.6
  v7.1h-1.8v-7.1h-2.6v-1.5h7V42.2z M34.7,49.3L33,46.4l-1.7,2.9h-2.1l2.8-4.4l-2.6-4.2h2.2l1.5,2.8l1.6-2.8h2.1l-2.6,4.2l2.8,4.5
  H34.7z M44.2,42.2h-2.6v7.1h-1.8v-7.1h-2.6v-1.5h7V42.2z"/>
</svg>
