<!-- Generator: Adobe Illustrator 21.0.2, SVG Export Plug-In  -->
<svg version="1.1"
   xmlns="http://www.w3.org/2000/svg" xmlns:xlink="http://www.w3.org/1999/xlink" xmlns:a="http://ns.adobe.com/AdobeSVGViewerExtensions/3.0/"
   x="0px" y="0px" width="54px" height="65px" viewBox="0 0 54 65" style="enable-background:new 0 0 54 65;" xml:space="preserve">
<style type="text/css">
  .st0{fill:#A9B1BC;}
</style>
<defs>
</defs>
<path class="st0" d="M36,0H2.9C1.3,0,0,1.3,0,2.9v59.2C0,63.7,1.3,65,2.9,65h42.2c1.6,0,2.9-1.3,2.9-2.9V57h-2v5c0,0.5-0.4,1-1,1H3
  c-0.5,0-1-0.4-1-1V3c0-0.5,0.4-1,1-1h32v9c0,1.1,0.9,2,2,2h9v20h2V12L36,0z"/>
<g>
  <path class="st0" d="M25.7,42.2h-1.6v2.5h1.6c0.4,0,0.7-0.1,1-0.3s0.3-0.5,0.3-1s-0.1-0.8-0.3-1S26.1,42.2,25.7,42.2z"/>
  <path class="st0" d="M52,35H14c-1.1,0-2,0.9-2,2v16c0,1.1,0.9,2,2,2h38c1.1,0,2-0.9,2-2V37C54,35.9,53.1,35,52,35z M28,45.6
    c-0.5,0.4-1.2,0.6-2.2,0.6h-1.8v3.1h-1.8v-8.6H26c0.9,0,1.5,0.2,2,0.7c0.5,0.4,0.8,1.1,0.8,2.1C28.8,44.4,28.5,45.2,28,45.6z
     M36,45.6c-0.5,0.4-1.2,0.6-2.2,0.6h-1.8v3.1h-1.8v-8.6H34c0.9,0,1.5,0.2,2,0.7c0.5,0.4,0.8,1.1,0.8,2.1
    C36.8,44.4,36.6,45.2,36,45.6z M44.5,42.2h-2.6v7.1h-1.8v-7.1h-2.6v-1.5h7V42.2z"/>
  <path class="st0" d="M33.7,42.2h-1.6v2.5h1.6c0.4,0,0.7-0.1,1-0.3s0.3-0.5,0.3-1s-0.1-0.8-0.3-1S34.1,42.2,33.7,42.2z"/>
</g>
</svg>
