<?xml version="1.0" encoding="utf-8"?>
<!-- Generator: Adobe Illustrator 19.2.1, SVG Export Plug-In . SVG Version: 6.00 Build 0)  -->
<svg version="1.1" id="Layer_1" xmlns="http://www.w3.org/2000/svg" xmlns:xlink="http://www.w3.org/1999/xlink" x="0px" y="0px"
	 viewBox="0 0 280 280" enable-background="new 0 0 280 280" xml:space="preserve">
<title>bg_pebble</title>
<desc>Created with Sketch.</desc>
<path fill="#FFFFFF" d="M314,276.3V3.5h27.8v-42H4v-0.3h-48.8v315.1h-19.6V311h443.7v-34.7H314z M194.5,7.9
	c47.6,20.4,103.4,142.5,74.6,195c-16.8,30.6-67.1,52.5-84.1,58.9c-11.3,4.3-42.9,13.2-73.3,14.6H97.4c-10.4-0.5-20.2-2.2-28.5-5.7
	c-40.3-16.9-55-86.9-59.9-109.6c-1.9-9.1-4.7-22.2-5-36.6v-6C4.6,94.4,12.8,67.7,42.4,50C73.3,31.6,127.7,4.2,168.5,3.5h3
	C179.9,3.6,187.7,5,194.5,7.9z"/>
</svg>
