<?xml version="1.0" encoding="utf-8"?>
<!-- Generator: Adobe Illustrator 19.2.1, SVG Export Plug-In . SVG Version: 6.00 Build 0)  -->
<svg version="1.1" id="Layer_1" xmlns="http://www.w3.org/2000/svg" xmlns:xlink="http://www.w3.org/1999/xlink" x="0px" y="0px"
	 width="11.8px" height="6.8px" viewBox="0 0 11.8 6.8" enable-background="new 0 0 11.8 6.8" xml:space="preserve">
<title>icon_arrow-right</title>
<desc>Created with Sketch.</desc>
<g id="SYMBOLS">
	<g id="icon_x2F_dark_x2F_chevron-right" transform="translate(-12.000000, -10.000000)">
		<path id="icon_arrow-right" fill="#FFFFFF" d="M23.3,10.3c-0.4-0.4-1-0.5-1.6,0l-3.9,3.7l-3.9-3.7c-0.5-0.5-1.1-0.4-1.6,0
			c-0.4,0.4-0.4,1.2,0,1.6c0.4,0.4,4.7,4.5,4.7,4.5c0.2,0.2,0.5,0.3,0.8,0.3c0.3,0,0.6-0.1,0.8-0.3c0,0,4.3-4.1,4.7-4.5
			C23.7,11.5,23.7,10.8,23.3,10.3"/>
	</g>
</g>
</svg>
