<?xml version="1.0" encoding="utf-8"?>
<!-- Generator: Adobe Illustrator 19.2.1, SVG Export Plug-In . SVG Version: 6.00 Build 0)  -->
<svg version="1.1" id="Layer_1" xmlns="http://www.w3.org/2000/svg" xmlns:xlink="http://www.w3.org/1999/xlink" x="0px" y="0px"
	 width="1600px" height="463px" viewBox="0 0 1600 463" style="enable-background:new 0 0 1600 463;" xml:space="preserve">
<style type="text/css">
	.st0{fill:#111111;}
</style>
<title>Shape</title>
<desc>Created with Sketch.</desc>
<g id="Page-1">
	<path id="Shape" class="st0" d="M1600,15.8v98.9c-30.6,14.3-95,71.6-161,138c-62.3,62.6-118.6,135.3-154.7,179.8
		c-23.4,29.4-43,30.3-51.5,30.3h-0.8c-19.9,0-39.8-11.9-40.2-43.5l0-1.7c0-6,0.2-16.1,3.8-42l0.2-1.7l36.2-230.3
		c4-26.3,22.1-38.4,44.2-38.4c19.9,0,39.8,11.9,38.2,41.5l-0.1,0.9l-8,123.2C1404.3,144.2,1522.1,40.5,1600,15.8z M998.9,30.4
		c54.3,0,104.5,14.1,142.7,42.4l1.1,0.8c17.5,13.9,29.1,27.8,29.1,45.6c0,24.2-18.1,38.4-40.2,38.4c-12.1,0-22.1-4-34.2-12.1
		c-34.2-18.2-60.3-24.2-92.4-24.2c-148.7,0-253.2,123.2-253.2,177.8c0,6.1,6,12.1,26.1,12.1c64.3,0,144.7-30.3,198.9-70.7l1.8-1.4
		c28.8-23,38.8-26.9,56.5-26.9c20.1,0,34.2,12.1,40.2,36.4c6,34.3,8,70.7,8,86.9c0,32.3-16.1,52.5-42.2,52.5
		c-20.1,0-40.2-10.1-48.2-52.5c-72.3,44.4-152.7,66.7-231.1,66.7c-60.3,0-106.5-26.3-106.5-88.9c0-72.7,52.2-145.4,116.5-198
		C838.2,60.7,916.5,30.4,998.9,30.4z M422.2,0.1c82.4,0,98.5,58.6,116.5,147.5l2.1,9.9c16.3,75.8,24.5,106.6,44.8,167.9l3.4,10.2
		c4.4,13.5,6,19,6,26c0,20.2-16.1,38.4-42.2,38.4s-46.2-14.1-60.3-40.4c-13.6-25.4-25.3-65.9-33.4-99.6l-0.8-3.4l-30.1-121.2
		c-6-24.2-12.1-32.3-26.1-32.3c-42.2,0-116.5,70.7-229.1,202l-3.8,4.5c-61.2,72.9-77.4,88.4-118.8,88.4c-23,0-38-10-50.5-31.7V90.9
		c28.4,23.1,41.7,62.5,54.1,109.8l0.4,1.4l20.1,78.8C205.2,115.3,313.7,0.1,422.2,0.1z"/>
</g>
</svg>
