<?xml version="1.0" encoding="utf-8"?>
<!-- Generator: Adobe Illustrator 19.2.1, SVG Export Plug-In . SVG Version: 6.00 Build 0)  -->
<svg version="1.1" id="Layer_1" xmlns="http://www.w3.org/2000/svg" xmlns:xlink="http://www.w3.org/1999/xlink" x="0px" y="0px"
	 width="270px" height="48px" viewBox="0 0 270 48" style="enable-background:new 0 0 270 48;" xml:space="preserve">
<style type="text/css">
	.st0{fill:#FFFFFF;}
</style>
<title>logo/fremantle black@3x</title>
<desc>Created with Sketch.</desc>
<g id="logo_x2F_fremantle-black">
	<path id="Logo-light" class="st0" d="M60,27.6c1.6,0,2.3,0.4,2.3,0.7c0,1.5-3.7,2.8-6.3,2.8c-0.9,0-1.8-0.1-2.6-0.4
		C54.9,28.8,57.9,27.6,60,27.6z M240.2,27.4c1.3,0,1.9,0.2,1.9,0.7c0,1.1-2.8,4.1-9.9,7.3c-0.1-0.2-0.1-0.5-0.1-0.6
		C232,30.9,236.7,27.4,240.2,27.4z M226.4,4c0.4,0,0.6,0.1,0.7,0.3c-0.2,2.5-1.8,5.9-3.9,9l-8.2,0.5C217.4,9.5,222.4,4,226.4,4z
		 M133.3,41.9c3.5,0,7.1-1,10.4-3c0.4,1.9,1.3,2.4,2.2,2.4c1.2,0,1.9-0.9,1.9-2.4c0-0.7-0.1-2.4-0.4-4c-0.3-1.1-0.9-1.7-1.8-1.7
		c-0.8,0-1.3,0.2-2.6,1.3c-2.4,1.8-6.1,3.2-9,3.2c-0.9,0-1.2-0.3-1.2-0.6c0-2.5,4.7-8.1,11.4-8.1c1.4,0,2.6,0.3,4.2,1.1
		c0.5,0.4,1,0.6,1.5,0.6c1,0,1.8-0.6,1.8-1.8c0-0.8-0.5-1.5-1.4-2.1c-1.7-1.3-4-1.9-6.4-1.9c-3.7,0-7.2,1.4-10.2,3.9
		c-2.9,2.4-5.2,5.7-5.2,9C128.5,40.7,130.6,41.9,133.3,41.9z M154.4,44.7c0.4,0,1.3,0,2.4-1.4c1.6-2,4.2-5.3,7-8.2
		c3.4-3.5,6.8-6.5,7.8-6.5c0.2,0,0.3,0,0.4,0.5l0.7,4.3c0.5,2.4,1.1,5,1.9,6.3c0.5,0.8,1.3,1.4,2.4,1.4c1.1,0,2-0.7,2-1.9
		c0-0.6-0.3-1.2-0.5-1.9c-1-2.4-1.5-5.3-2.1-8.8c-0.5-3.6-1.8-4.4-3.8-4.4c-3.3,0-9.6,5.3-14.6,11.9l0.4-5.6
		c0.1-1.4-0.8-1.9-1.7-1.9c-1,0-1.8,0.6-2,1.8l-1.6,10.5c-0.2,1.3-0.2,1.8-0.2,2C152.6,44.1,153.5,44.7,154.4,44.7z M195.8,38.5
		c-2.4,1.5-4.5,2.6-6.5,2.6c-1.6,0-2.4-1.2-2.4-3.1c0-2,1-6.1,1.4-7.6c1.3-4.4,2.1-7.2,3.4-11.4l16.4-0.9c-1.8,4.4-2.7,8.8-2.7,12.8
		v0.6C201.6,34.6,198.4,37.1,195.8,38.5z M125.4,38.6c-1-3-1.4-4.4-2.2-8.3c-0.8-4.1-1.5-6.7-5.2-6.7c-4.9,0-9.8,5.3-15.6,12.8
		l-0.9-3.6c-0.9-3.5-1.9-6.1-5.7-6.1c-3,0-6.8,2.1-12.5,7.9l1-5.7c0.1-0.6,0.2-1.4,0.2-1.7c0-0.9-0.5-1.6-1.7-1.6
		c-1.1,0-1.7,0.4-3.3,1.6c-6.9,5.3-15.5,11.6-24,11.6c-2.8,0-4.2-1.2-4.2-3.4c0-0.5,0.1-0.9,0.3-1.5c1.4,0.6,3,0.7,4.2,0.7
		c5.6,0,10.7-2.9,10.7-6.7c0-2.7-2.4-4.3-6.1-4.3c-5.2,0-9.1,2.9-11.1,5.5c-2.6-1.4-4.7-1.8-6.9-1.8c-5.6,0-9.7,2.3-14.9,8.2
		c1-5.6,1.2-9.3,1.2-11.2c0-1.4-0.9-2-1.8-2c-0.4,0-1,0.1-1.9,0.3l-13.3,2.7l5.4-16L44.8,8C46.5,7.9,47,6.9,47,6
		c0-1.2-0.9-1.9-2.2-1.9L5.1,5.4c-1.9,0.1-3,1-3,2.4c0,1.5,0.9,2.2,3,2.1l6.8-0.3L6.7,26.3l-4.2,1C0.8,27.7,0,28.5,0,29.7
		c0,1.5,0.9,2.1,2.1,2.1c0.4,0,1.2-0.1,1.6-0.2l1.4-0.3L2,41.2c-0.4,1.2-0.5,1.7-0.5,2.1c0,1.5,1.2,1.8,1.9,1.8s1.6-0.3,2.2-1.8
		L10,30.3l14.1-3.1c-0.2,4.1-1.3,10.6-1.9,14.4c-0.2,1.1-0.3,1.6-0.3,2.1c0,1.1,0.7,1.8,1.9,1.8c0.9,0,1.4-0.6,2.1-1.4
		c3.6-5.2,9.9-12.4,16.6-12.4c1.6,0,3.3,0.5,4.8,1.1c-0.5,1-0.6,2.2-0.6,3.2c0,4.7,2.8,7.4,8,7.4c6.2,0,14.3-2.9,24.6-11.2
		c-0.4,1.9-0.9,4.5-1.5,7.3c-0.2,0.6-0.3,1.3-0.3,1.7c0,1.3,0.8,1.9,1.8,1.9c1,0,1.7-0.5,3.3-1.9c1.5-1.7,3-3.1,4.9-4.9
		c3.3-3,5.5-5,7.3-5c1.1,0,1.6,0.8,2.5,4.2c1.2,4.3,1.8,6.2,3.9,6.2c1.9,0,2.6-0.7,5.5-4.2c5.1-6,8.4-9.2,10.3-9.2
		c0.6,0,0.9,0.4,1.2,1.5l1.4,5.5c0.4,1.6,0.9,3.5,1.5,4.7c0.6,1.2,1.5,1.8,2.7,1.8c1.2,0,1.9-0.8,1.9-1.8
		C125.8,39.7,125.7,39.4,125.4,38.6z M194.7,10.1c0.4-1,0.6-1.8,0.6-2.5c0-1.1-0.8-1.8-1.8-1.8c-1.2,0-2.2,0.4-3.3,3.6l-1.8,5.5
		l-8.9,0.4c-1.5,0.1-2.6,0.7-2.6,2.1c0,1.6,1.2,2.1,2.8,2l7.3-0.4c-0.9,2.8-2.4,7.7-3.4,11.9c-0.6,2.4-1.3,5.2-1.3,8
		c0,4.1,2,6.8,6,6.8c3.7,0,8-2.5,11.9-5.3c2.2-1.6,4.3-3.2,5.9-4.6c1.6,5.1,5.9,7.6,11.4,7.6c4.5,0,8.6-1.2,12.6-2.9
		c2.1,2.2,6.1,2.9,9.6,2.9c9.7,0,20.5-5,28.1-10.2c1.6-1.1,2.2-1.8,2.2-2.7c0-1.3-1-1.8-1.9-1.8c-0.6,0-1.3,0.3-2.6,1.1
		c-7.5,4.6-17.3,9.2-26,9.2c-1.9,0-3.5-0.2-4.7-0.6c7.1-3.5,11.1-6.6,11.1-10.7c0-3.3-3.1-4.2-5.6-4.2c-6.3,0-12.4,5.4-12.4,11.8
		c0,0.4,0,0.8,0.2,1.6c-2.8,0.9-5.9,1.8-10,1.8c-5.6,0-8-4.1-8-8.8c0-4.1,1.2-8.4,3-12.3l7.4-0.5c-1.1,1.5-2.3,2.7-3.2,3.6
		c-2,2-2.4,2.6-2.4,3.6c0,0.8,0.7,1.5,1.6,1.5c1.5,0,2.9-1.7,3.9-2.6c1.6-1.7,3.5-3.9,5.3-6.3l15.8-0.8c1.1-0.1,2.3-0.6,2.3-2
		c0-1.3-1.1-1.8-2-1.8h-0.3l-13.3,0.6c1.8-3,3.1-6.2,3.1-8.8c0-2.6-1.6-4.2-4.6-4.2c-7.4,0-13.3,7.4-16.7,13.9l-16.9,0.8L194.7,10.1
		z"/>
</g>
</svg>
