<?xml version="1.0" encoding="utf-8"?>
<!-- Generator: Adobe Illustrator 19.2.1, SVG Export Plug-In . SVG Version: 6.00 Build 0)  -->
<svg version="1.1" id="Layer_1" xmlns="http://www.w3.org/2000/svg" xmlns:xlink="http://www.w3.org/1999/xlink" x="0px" y="0px"
	 width="1600px" height="737px" viewBox="0 0 1600 737" style="enable-background:new 0 0 1600 737;" xml:space="preserve">
<style type="text/css">
	.st0{fill:#111111;}
</style>
<title>big squiggle</title>
<desc>Created with Sketch.</desc>
<g id="DESKTOP">
	<g id="Style-sheet" transform="translate(0.000000, -5051.000000)">
		<path id="big-squiggle" class="st0" d="M1441.6,5051c87.4,0,130.7,39.7,158.4,107v560.7c-15.3-11.6-28.4-28-39.4-48.8
			c-23.8-45.2-44.2-118.2-57.8-177.3l-51-208.6c-10.2-41.7-20.4-55.6-44.2-55.6c-71.4,0-197.2,121.7-387.6,347.7l-6.4,7.8
			c-103.5,125.4-131,152.1-201,152.1c-78.2,0-102-69.5-146.2-232.9c-34-128.6-54.4-159.9-95.2-159.9c-68,0-153,73-275.4,187.7
			c-71.4,66.1-125.8,121.7-183.6,184.3c-52.4,50.5-79.7,69.4-112.2,72.5V5185c53-41,76.5-53.8,115.6-53.8
			c44.2,0,64.6,24.3,64.6,59.1v0.6c-0.1,10.9-3.5,38.1-6.8,61.9L136,5468.2c214.2-219,357-299,469.2-299
			c142.8,0,180.2,97.3,214.2,229.5l34,135.6C1074.4,5249.2,1258,5051,1441.6,5051z"/>
	</g>
</g>
</svg>
