<!-- Generator: Adobe Illustrator 21.0.2, SVG Export Plug-In  -->
<svg version="1.1"
   xmlns="http://www.w3.org/2000/svg" xmlns:xlink="http://www.w3.org/1999/xlink" xmlns:a="http://ns.adobe.com/AdobeSVGViewerExtensions/3.0/"
   x="0px" y="0px" width="54px" height="65px" viewBox="0 0 54 65" style="enable-background:new 0 0 54 65;" xml:space="preserve">
<style type="text/css">
  .st0{fill:#A9B1BC;}
</style>
<defs>
</defs>
<path class="st0" d="M36,0H2.9C1.3,0,0,1.3,0,2.9v59.2C0,63.7,1.3,65,2.9,65h42.2c1.6,0,2.9-1.3,2.9-2.9V57h-2v5c0,0.5-0.4,1-1,1H3
  c-0.5,0-1-0.4-1-1V3c0-0.5,0.4-1,1-1h32v9c0,1.1,0.9,2,2,2h9v20h2V12L36,0z"/>
<g>
  <path class="st0" d="M25.1,41.9c-0.7,0-1.3,0.3-1.7,0.8S22.7,44,22.7,45s0.2,1.7,0.6,2.2s1,0.8,1.7,0.8s1.3-0.3,1.7-0.8
    s0.6-1.3,0.6-2.2c0-1-0.2-1.7-0.6-2.2S25.8,41.9,25.1,41.9z"/>
  <path class="st0" d="M34,42.2h-1.7v5.6H34c0.9,0,1.4-0.4,1.8-1.3c0.2-0.5,0.3-1,0.3-1.6c0-0.9-0.1-1.6-0.4-2
    C35.4,42.4,34.8,42.2,34,42.2z"/>
  <path class="st0" d="M52,35H14c-1.1,0-2,0.9-2,2v16c0,1.1,0.9,2,2,2h38c1.1,0,2-0.9,2-2V37C54,35.9,53.1,35,52,35z M27.9,48.6
    c-0.7,0.7-1.6,1-2.8,1s-2.2-0.3-2.8-1c-0.9-0.8-1.3-2-1.3-3.6c0-1.6,0.4-2.8,1.3-3.6c0.7-0.7,1.6-1,2.8-1s2.2,0.3,2.8,1
    c0.9,0.8,1.3,2,1.3,3.6C29.2,46.5,28.8,47.7,27.9,48.6z M37.2,47.7c-0.6,1.1-1.6,1.6-2.9,1.6h-3.7v-8.6h3.7c0.5,0,1,0.1,1.3,0.2
    c0.6,0.2,1.1,0.6,1.5,1.1c0.3,0.4,0.5,0.9,0.6,1.4c0.1,0.5,0.2,1,0.2,1.4C37.9,45.9,37.7,46.9,37.2,47.7z M45.5,42.2h-2.6v7.1h-1.8
    v-7.1h-2.6v-1.5h7V42.2z"/>
</g>
</svg>
