<!-- Generator: Adobe Illustrator 21.0.2, SVG Export Plug-In  -->
<svg version="1.1"
   xmlns="http://www.w3.org/2000/svg" xmlns:xlink="http://www.w3.org/1999/xlink" xmlns:a="http://ns.adobe.com/AdobeSVGViewerExtensions/3.0/"
   x="0px" y="0px" width="54px" height="65px" viewBox="0 0 54 65" style="enable-background:new 0 0 54 65;" xml:space="preserve">
<style type="text/css">
  .st0{fill:#A9B1BC;}
</style>
<defs>
</defs>
<path class="st0" d="M36,0H2.9C1.3,0,0,1.3,0,2.9v59.2C0,63.7,1.3,65,2.9,65h42.2c1.6,0,2.9-1.3,2.9-2.9V57h-2v5c0,0.5-0.4,1-1,1H3
  c-0.5,0-1-0.4-1-1V3c0-0.5,0.4-1,1-1h32v9c0,1.1,0.9,2,2,2h9v20h2V12L36,0z"/>
<path class="st0" d="M52,35H14c-1.1,0-2,0.9-2,2v16c0,1.1,0.9,2,2,2h38c1.1,0,2-0.9,2-2V37C54,35.9,53.1,35,52,35z M27,49.3
  l-2.7-3.8l-0.9,0.9v2.9h-1.8v-8.6h1.8v3.6l3.3-3.6h2.3l-3.5,3.6l3.7,5.1H27z M36.9,49.3h-6.5v-8.6h6.3v1.5h-4.6V44h4.2v1.5h-4.2v2.2
  h4.8V49.3z M42.4,46.1v3.2h-1.8v-3.2l-3-5.4h2.1l1.8,3.8l1.7-3.8h2L42.4,46.1z"/>
</svg>
