<!-- Generator: Adobe Illustrator 21.0.2, SVG Export Plug-In  -->
<svg version="1.1"
   xmlns="http://www.w3.org/2000/svg" xmlns:xlink="http://www.w3.org/1999/xlink" xmlns:a="http://ns.adobe.com/AdobeSVGViewerExtensions/3.0/"
   x="0px" y="0px" width="166.2px" height="64.9px" viewBox="0 0 166.2 64.9" style="enable-background:new 0 0 166.2 64.9;"
   xml:space="preserve">
<style type="text/css">
  .st0{fill:#a7935a;}
</style>
<defs>
</defs>
<path class="st0" d="M23.2,0L0,64.8h13.7L18,51.1h24l4.5,13.8h14L37.1,0H23.2z M21.2,41l6-18.7c1.1-3.4,2.8-10,2.8-10h0.2
  c0,0,1.6,6.5,2.7,10l6,18.7H21.2z"/>
<polygon class="st0" points="130.5,37.5 161.6,37.5 161.6,26.7 130.5,26.7 130.5,11.1 166.2,11.1 166.2,0 117,0 117,64.9
  166.2,64.9 166.2,53.9 130.5,53.9 "/>
<polygon class="st0" points="84.7,10.9 83.2,10.9 83.2,31.1 63,31.1 63,32.4 83.2,32.4 83.2,52.9 84.7,52.9 84.7,32.4 105,32.4
  105,31.1 84.7,31.1 "/>
</svg>
