<svg width="25" height="18" viewBox="0 0 25 18" fill="none" xmlns="http://www.w3.org/2000/svg">
<path d="M0.468885 8.58759C0.727845 8.91837 1.20592 8.9766 1.53671 8.71764L10.5433 1.66666C10.8741 1.4077 10.9323 0.929621 10.6733 0.598839C10.4144 0.268057 9.93629 0.209833 9.60551 0.468792L0.598932 7.51977C0.26815 7.77873 0.209926 8.25681 0.468885 8.58759Z" fill="white"/>
<path d="M9.84483 17.2843C10.1483 16.9938 10.1588 16.5123 9.86836 16.2088L2.03945 8.02962C1.74897 7.72614 1.26747 7.7156 0.963992 8.00608C0.660516 8.29656 0.64998 8.77806 0.94046 9.08154L8.76937 17.2607C9.05985 17.5642 9.54135 17.5747 9.84483 17.2843Z" fill="white"/>
<path d="M1.41824 8.22799C1.41824 7.81487 1.75314 7.47998 2.16625 7.47998L23.8584 7.47998C24.2716 7.47998 24.6064 7.81487 24.6064 8.22798C24.6064 8.6411 24.2716 8.97599 23.8584 8.97599L13.0123 8.97599L2.16625 8.97599C1.75313 8.97599 1.41824 8.6411 1.41824 8.22799Z" fill="white"/>
</svg>
