<svg width="21" height="23" viewBox="0 0 21 23" fill="none" xmlns="http://www.w3.org/2000/svg">
<path opacity="0.7" d="M17.8303 9.81854H17.048V5.97456C17.0107 3.16549 14.1422 0.888672 10.6404 0.888672C7.10137 0.888672 4.23287 3.16549 4.23287 5.94499V9.78897H3.45055C2.07219 9.78897 0.95459 10.676 0.95459 11.7701V20.9365C0.95459 22.0306 2.07219 22.9177 3.45055 22.9177H17.8303C19.2087 22.9177 20.3262 22.0306 20.3262 20.9365V11.7701C20.289 10.7056 19.1714 9.81854 17.8303 9.81854ZM6.46806 5.94499C6.46806 4.14127 8.33072 2.66282 10.6404 2.66282C12.9129 2.66282 14.7755 4.14127 14.7755 5.94499V9.78897H6.46806V5.94499ZM11.907 16.2646V18.7188C11.907 19.2807 11.3482 19.7242 10.6404 19.7242C9.93261 19.7242 9.37381 19.2807 9.37381 18.7188V16.2646C8.77776 15.9393 8.36797 15.4071 8.36797 14.7862C8.36797 13.7808 9.37381 12.9824 10.6404 12.9824C11.907 12.9824 12.8756 13.7808 12.8756 14.7862C12.8756 15.4071 12.5031 15.9393 11.907 16.2646Z" fill="white"/>
</svg>
