<svg width="127" height="59" viewBox="0 0 127 59" fill="none" xmlns="http://www.w3.org/2000/svg">
<path d="M119.662 52.6519H115.829V58.149H119.729V57.4791H116.675V55.6524H119.516V55.014H116.675V53.3018H119.662V52.6519ZM111.016 52.6519H110.179V58.149H113.86V57.4705H111.019V52.6519H111.016ZM104.062 56.0991L105.245 53.4049L106.371 56.0991H104.062ZM104.832 52.6519L102.261 58.149H103.133L103.791 56.7175H106.626L107.284 58.149H108.207L105.738 52.6519H104.832ZM96.9645 56.5428H96.0865C96.0865 56.8091 96.096 57.25 96.4428 57.6537C96.9263 58.2091 97.8711 58.2779 98.3388 58.2779C99.9039 58.2779 100.75 57.5392 100.75 56.5657C100.75 56.3367 100.709 55.8042 100.143 55.4692C99.7862 55.2573 99.6272 55.2258 98.1702 54.8909C97.4258 54.7305 97.0695 54.5645 97.0695 54.0749C97.0695 53.528 97.5785 53.1845 98.4247 53.1845C99.0259 53.1845 99.6685 53.3362 99.7099 54.0233H100.591C100.575 53.7943 100.556 53.4221 100.219 53.0871C99.729 52.6061 98.9082 52.546 98.501 52.546C97.3494 52.546 96.1756 53.0327 96.1756 54.1522C96.1756 54.5187 96.3092 54.9281 96.8086 55.2344C97.1204 55.4234 97.5371 55.515 98.466 55.7211C99.3218 55.913 99.8689 56.0332 99.8689 56.6488C99.8689 56.9236 99.7067 57.6308 98.4406 57.6308C97.0345 57.6308 96.9836 56.9236 96.9645 56.5428ZM76.6462 52.6519H72.8161V58.149H76.7162V57.4791H73.6623V55.6524H76.5031V55.014H73.6623V53.3018H76.6494V52.6519H76.6462ZM71.0219 52.6519H66.091V53.299H68.1365V58.149H68.9732V53.299H71.0219V52.6519ZM60.4221 52.6519H59.2451V58.149H60.0149V53.4822L63.1198 58.149H64.2014V52.6519H63.422V57.1985L60.4221 52.6519ZM52.1479 55.3919C52.1479 54.2638 52.5455 53.1444 54.0947 53.1444C55.4913 53.1444 55.9462 54.0892 55.9462 55.3375C55.9462 55.7097 55.8953 56.5772 55.3959 57.1269C55.0396 57.5077 54.5401 57.6308 54.0407 57.6308C53.5603 57.6308 53.0354 57.5163 52.6887 57.1269C52.2687 56.6574 52.1479 55.9931 52.1479 55.3919ZM52.0461 53.2446C51.378 53.8916 51.2603 54.8135 51.2603 55.4377C51.2603 56.9437 51.9379 58.2779 54.0184 58.2779C56.1943 58.2779 56.8433 56.8091 56.8433 55.3461C56.8433 53.4822 55.7776 52.5059 54.0852 52.5059C53.519 52.5059 52.6823 52.629 52.0461 53.2446ZM36.3882 52.6519H35.5516V58.149H39.2322V57.4705H36.3914V52.6519H36.3882ZM29.4373 56.0991L30.6207 53.4049L31.7469 56.0991H29.4373ZM30.2072 52.6519L27.6368 58.149H28.5084L29.1669 56.7175H32.0014L32.6599 58.149H33.5824L31.1106 52.6519H30.2072ZM23.6603 53.2761C24.1247 53.2761 24.8946 53.2761 24.8946 54.1064C24.8946 54.9739 23.9148 54.9739 23.6253 54.9739H22.4419V53.2761H23.6603ZM22.4419 55.6267H23.9211C24.6655 55.6267 25.0886 56.0303 25.0886 56.5772C25.0886 57.2099 24.5542 57.5277 23.8861 57.5277H22.4387V55.6267H22.4419ZM23.8034 52.6519H21.6211V58.149H23.8448C24.3283 58.149 24.7992 58.149 25.2222 57.8971C25.4258 57.774 25.9571 57.3932 25.9571 56.6488C25.9571 55.598 25.095 55.369 24.7387 55.2774C25.0346 55.1772 25.7694 54.9424 25.7694 54.0348C25.7694 53.6025 25.6008 53.2818 25.3368 53.0528C24.9614 52.7206 24.5478 52.6519 23.8034 52.6519ZM14.5239 55.3919C14.5239 54.2638 14.9215 53.1444 16.4708 53.1444C17.8673 53.1444 18.3222 54.0892 18.3222 55.3375C18.3222 55.7097 18.2713 56.5772 17.7719 57.1269C17.4156 57.5077 16.9162 57.6308 16.4199 57.6308C15.9363 57.6308 15.4115 57.5163 15.0647 57.1269C14.6416 56.6574 14.5239 55.9931 14.5239 55.3919ZM14.4221 53.2446C13.7541 53.8916 13.6363 54.8135 13.6363 55.4377C13.6363 56.9437 14.3139 58.2779 16.3944 58.2779C18.5672 58.2779 19.2193 56.8091 19.2193 55.3461C19.2193 53.4822 18.1536 52.5059 16.4612 52.5059C15.8918 52.5059 15.0552 52.629 14.4221 53.2446ZM9.37991 52.6519H8.54326V58.149H12.2239V57.4705H9.38309V52.6519H9.37991ZM0.666626 55.4921C0.666626 56.268 0.921121 57.0382 1.51919 57.585C1.95183 57.9801 2.61033 58.2693 3.73648 58.2693C4.77673 58.2693 5.55612 58.0402 5.90923 57.9343V55.223H3.66967V55.8557H5.06622V57.4848C4.87216 57.5392 4.43316 57.6594 3.73648 57.6594C3.12887 57.6594 2.50854 57.5306 2.11089 57.1183C1.66234 56.6373 1.55418 55.8557 1.55418 55.389C1.55418 54.8708 1.67188 54.155 2.20632 53.6225C2.52762 53.2961 3.01116 53.1587 3.58378 53.1587C4.41407 53.1587 4.86898 53.508 4.96124 54.0205H5.88378C5.86788 53.8086 5.84243 53.4879 5.47659 53.1444C4.89443 52.6118 4.15639 52.5574 3.67603 52.5574C3.37064 52.5574 2.57534 52.5803 1.9741 52.9468C0.819323 53.6483 0.666626 54.9424 0.666626 55.4921ZM30.0259 27.8835H16.8303L21.2998 15.1772C22.1397 12.8323 23.3962 8.39167 23.3962 8.39167H23.5362C23.5362 8.39167 24.7228 12.8323 25.5626 15.1772L30.0259 27.8835ZM35.822 44.1057H46.3645L28.7693 0H18.2968L0.911578 44.1057H11.1741L14.4539 34.7319H32.469L35.822 44.1057ZM47.1566 52.5746C44.9838 52.5746 44.4844 54.3039 44.4844 55.4606C44.4844 56.5257 44.8979 58.2321 47.0484 58.2321C48.0982 58.2321 49.2053 57.7826 49.3325 56.7003H48.4036C48.3781 56.8291 48.3273 57.0668 48.1077 57.2787C47.8469 57.522 47.4906 57.605 47.1184 57.605C45.7219 57.605 45.3942 56.4856 45.3942 55.452C45.3942 54.5387 45.655 53.1816 47.1279 53.1816C48.305 53.1816 48.4131 53.9432 48.4481 54.1321H49.3548C49.2403 52.8867 48.0219 52.5746 47.1566 52.5746ZM65.073 22.4293H80.5305V21.5103H65.073V7.58715H63.9596V21.5074H48.5754V22.4265H63.9596V36.4784H65.073V22.4293ZM83.1168 58.149H84.1984V52.6519H83.419V57.1985L80.4159 52.6519H79.2421V58.149H80.0119V53.4822L83.1168 58.149ZM91.0093 52.6519H86.0785V53.299H88.124V58.149H88.9606V53.299H91.0093V52.6519ZM89.1038 44.1085H126.037V36.6445H99.2295V25.4842H122.548V18.1433H99.2295V7.52702H126.028V0H89.1038V44.1085ZM125.548 54.0205H126.429C126.413 53.7914 126.394 53.4192 126.057 53.0843C125.567 52.6033 124.746 52.5431 124.339 52.5431C123.187 52.5431 122.013 53.0299 122.013 54.1493C122.013 54.5158 122.15 54.9252 122.646 55.2316C122.958 55.4205 123.375 55.5121 124.304 55.7183C125.159 55.9101 125.707 56.0304 125.707 56.6459C125.707 56.9208 125.548 57.6279 124.278 57.6279C122.872 57.6279 122.821 56.9208 122.805 56.54H121.927C121.927 56.8062 121.937 57.2472 122.284 57.6509C122.767 58.2063 123.712 58.275 124.18 58.275C125.745 58.275 126.591 57.5363 126.591 56.5629C126.591 56.3338 126.55 55.8013 125.983 55.4663C125.627 55.2545 125.468 55.223 124.011 54.888C123.267 54.7277 122.91 54.5616 122.91 54.072C122.91 53.5252 123.419 53.1816 124.265 53.1816C124.864 53.1845 125.506 53.3362 125.548 54.0205Z" fill="white"/>
</svg>
