<svg width="25" height="18" viewBox="0 0 25 18" fill="none" xmlns="http://www.w3.org/2000/svg">
<path d="M24.5311 8.58759C24.2722 8.91837 23.7941 8.9766 23.4633 8.71764L14.4567 1.66666C14.1259 1.4077 14.0677 0.929621 14.3267 0.598839C14.5856 0.268057 15.0637 0.209833 15.3945 0.468792L24.4011 7.51977C24.7318 7.77873 24.7901 8.25681 24.5311 8.58759Z" fill="white"/>
<path d="M15.1552 17.2843C14.8517 16.9938 14.8412 16.5123 15.1316 16.2088L22.9606 8.02962C23.251 7.72614 23.7325 7.7156 24.036 8.00608C24.3395 8.29656 24.35 8.77806 24.0595 9.08154L16.2306 17.2607C15.9401 17.5642 15.4587 17.5747 15.1552 17.2843Z" fill="white"/>
<path d="M23.5818 8.22799C23.5818 7.81487 23.2469 7.47998 22.8337 7.47998L1.14156 7.47998C0.728445 7.47998 0.393553 7.81487 0.393553 8.22798C0.393553 8.6411 0.728447 8.97599 1.14156 8.97599L11.9877 8.97599L22.8338 8.97599C23.2469 8.97599 23.5818 8.6411 23.5818 8.22799Z" fill="white"/>
</svg>
