<svg width="25" height="26" viewBox="0 0 25 26" fill="none" xmlns="http://www.w3.org/2000/svg">
<g clip-path="url(#clip0)">
<path d="M24.379 22.6533L18.3014 16.5094C21.3571 12.4936 21.0516 6.69301 17.3847 3.02044C15.3814 0.995371 12.801 0 10.1867 0C7.57228 0 4.99186 0.995371 2.98864 3.02044C-0.983844 7.03624 -0.983844 13.5576 2.98864 17.5734C4.99186 19.5985 7.57228 20.5939 10.1867 20.5939C12.3596 20.5939 14.5326 19.9074 16.3321 18.5002L22.4436 24.6097C22.7153 24.8843 23.0548 25.0216 23.4283 25.0216C23.7678 25.0216 24.1413 24.8843 24.4129 24.6097C24.9222 24.0948 24.9222 23.2024 24.379 22.6533ZM10.2206 17.8137C8.21739 17.8137 6.38393 17.0243 4.95791 15.617C2.07191 12.6996 2.07191 7.92864 4.95791 4.97685C6.34998 3.56961 8.21739 2.78017 10.2206 2.78017C12.2238 2.78017 14.0573 3.56961 15.4833 4.97685C16.9093 6.3841 17.6563 8.27187 17.6563 10.2969C17.6563 12.322 16.8754 14.1755 15.4833 15.617C14.0912 17.0586 12.1899 17.8137 10.2206 17.8137Z" fill="#F5F5F5"/>
</g>
<defs>
<clipPath id="clip0">
<rect width="24.7856" height="25.0216" fill="white"/>
</clipPath>
</defs>
</svg>
