<!-- Generator: Adobe Illustrator 21.0.2, SVG Export Plug-In  -->
<svg version="1.1"
   xmlns="http://www.w3.org/2000/svg" xmlns:xlink="http://www.w3.org/1999/xlink" xmlns:a="http://ns.adobe.com/AdobeSVGViewerExtensions/3.0/"
   x="0px" y="0px" width="54px" height="65px" viewBox="0 0 54 65" style="enable-background:new 0 0 54 65;" xml:space="preserve">
<style type="text/css">
  .st0{fill:#A9B1BC;}
</style>
<defs>
</defs>
<path class="st0" d="M36,0H2.9C1.3,0,0,1.3,0,2.9v59.2C0,63.7,1.3,65,2.9,65h42.2c1.6,0,2.9-1.3,2.9-2.9V57h-2v5c0,0.5-0.4,1-1,1H3
  c-0.5,0-1-0.4-1-1V3c0-0.5,0.4-1,1-1h32v9c0,1.1,0.9,2,2,2h9v20h2V12L36,0z"/>
<path class="st0" d="M52,35H14c-1.1,0-2,0.9-2,2v16c0,1.1,0.9,2,2,2h38c1.1,0,2-0.9,2-2V37C54,35.9,53.1,35,52,35z M23.6,47.3
  c0.4,0.5,0.9,0.7,1.5,0.7c0.6,0,1.1-0.2,1.4-0.6c0.2-0.2,0.3-0.6,0.4-1h1.8c-0.2,0.9-0.5,1.7-1.2,2.3s-1.5,0.9-2.4,0.9
  c-1.2,0-2.2-0.4-2.9-1.2c-0.7-0.8-1.1-1.9-1.1-3.3c0-1.5,0.4-2.7,1.2-3.5c0.7-0.7,1.6-1.1,2.7-1.1c1.4,0,2.5,0.5,3.2,1.4
  c0.4,0.5,0.6,1.1,0.6,1.6H27c-0.1-0.4-0.3-0.7-0.4-0.9c-0.3-0.4-0.8-0.6-1.4-0.6c-0.6,0-1.2,0.3-1.5,0.8S23,44.1,23,45.1
  S23.2,46.8,23.6,47.3z M36.1,48.8c-0.6,0.5-1.5,0.8-2.6,0.8c-1.1,0-2-0.3-2.7-0.8c-0.7-0.5-1-1.2-1-2.1h1.7c0.1,0.4,0.2,0.7,0.3,0.9
  c0.3,0.4,0.8,0.5,1.5,0.5c0.4,0,0.8,0,1.1-0.1c0.5-0.2,0.8-0.5,0.8-1c0-0.3-0.1-0.5-0.4-0.7c-0.3-0.2-0.7-0.3-1.2-0.4l-0.9-0.2
  c-0.9-0.2-1.5-0.4-1.9-0.7c-0.6-0.4-0.9-1-0.9-1.9c0-0.8,0.3-1.4,0.9-1.9c0.6-0.5,1.4-0.8,2.5-0.8c0.9,0,1.7,0.2,2.4,0.7
  c0.7,0.5,1,1.2,1,2.1H35c0-0.5-0.3-0.9-0.7-1.1c-0.3-0.1-0.6-0.2-1.1-0.2c-0.5,0-0.9,0.1-1.1,0.3c-0.3,0.2-0.4,0.4-0.4,0.8
  c0,0.3,0.1,0.5,0.4,0.7c0.2,0.1,0.6,0.2,1.1,0.4l1.5,0.4c0.7,0.2,1.2,0.4,1.5,0.6c0.5,0.4,0.8,1,0.8,1.8
  C37,47.6,36.7,48.2,36.1,48.8z M42.2,49.3h-1.7l-2.9-8.6h1.9l1.9,6.6l1.9-6.6h1.9L42.2,49.3z"/>
</svg>
