<svg xmlns="http://www.w3.org/2000/svg" viewBox="0 0 225.58 86.5"><defs><style>.cls-1{fill:#fff;}</style></defs><g id="Layer_2" data-name="Layer 2"><g id="Banijay_Rights_Logo"><path class="cls-1" d="M63.8,41.5H0V2.65A2.65,2.65,0,0,1,2.65,0H63.8A20.75,20.75,0,0,1,84.55,20.75h0C84.55,35.08,75.26,41.5,63.8,41.5Z"/><path class="cls-1" d="M63.8,45H0V83.85A2.65,2.65,0,0,0,2.65,86.5H63.8A20.75,20.75,0,0,0,84.55,65.75h0C84.55,51.43,75.26,45,63.8,45Z"/><path class="cls-1" d="M129.53,21.54a5.08,5.08,0,0,0,1.78-1.66,6.48,6.48,0,0,0,.86-3.5A5.45,5.45,0,0,0,130,11.76c-1.41-1-3.67-1.57-6.71-1.57h-9v23.3h9.39c3,0,5.24-.59,6.7-1.76a6.08,6.08,0,0,0,2.24-5,5.66,5.66,0,0,0-1-3.54A5.47,5.47,0,0,0,129.53,21.54Zm-3.11-2.69a5.33,5.33,0,0,1-3,.67h-4.37V14.29h4.33a5.53,5.53,0,0,1,3.08.65,2.13,2.13,0,0,1,.85,1.89A2.22,2.22,0,0,1,126.42,18.85Zm-7.34,4.77h4.11a6.74,6.74,0,0,1,3.43.68,2.2,2.2,0,0,1,1,2.05,2.44,2.44,0,0,1-1,2.1,6.18,6.18,0,0,1-3.54.75h-4Z"/><path class="cls-1" d="M148.17,14.94A8.57,8.57,0,0,0,146,14.3a18.42,18.42,0,0,0-2.72-.19,9.49,9.49,0,0,0-6.34,2,7.28,7.28,0,0,0-2.57,5.24l0,.41h5l0-.36a3.33,3.33,0,0,1,1-2.43,4.66,4.66,0,0,1,3.08-.85,4.76,4.76,0,0,1,2.74.58,1.82,1.82,0,0,1,.71,1.51,1.23,1.23,0,0,1-.84,1.22,14.15,14.15,0,0,1-3.4.75c-1.14.17-2.09.33-2.83.48a14.11,14.11,0,0,0-1.94.51,7.11,7.11,0,0,0-.82.34,5.84,5.84,0,0,0-.81.46,5.46,5.46,0,0,0-1.87,1.95,5.75,5.75,0,0,0-.68,2.83,4.86,4.86,0,0,0,1.63,3.82A6.85,6.85,0,0,0,140.1,34,9,9,0,0,0,145,32.74a8.41,8.41,0,0,0,2.32-2.15l.35,2.9h4.06V20.84a7.31,7.31,0,0,0-.82-3.56A5.35,5.35,0,0,0,148.17,14.94Zm-5.08,14.89a6.56,6.56,0,0,1-1.57.19,3,3,0,0,1-1.9-.49,1.69,1.69,0,0,1-.57-1.41,1.73,1.73,0,0,1,.22-.89,2,2,0,0,1,.69-.69,5,5,0,0,1,1.36-.61,23.75,23.75,0,0,1,2.44-.48A15.21,15.21,0,0,0,146,25a7,7,0,0,0,1-.4v.32a5,5,0,0,1-.67,2.4,5.35,5.35,0,0,1-1.91,2,4.67,4.67,0,0,1-1.33.58Z"/><path class="cls-1" d="M164.41,14.11a7,7,0,0,0-4.11,1.18,6.78,6.78,0,0,0-1.82,1.95l-.28-2.69H154V33.49h4.93V23.63a6.29,6.29,0,0,1,1-3.81,3.58,3.58,0,0,1,3.11-1.35,3,3,0,0,1,2.76,1.14,6.13,6.13,0,0,1,.79,3.32V33.49h4.93V21.92a8.41,8.41,0,0,0-1.82-5.65A6.61,6.61,0,0,0,164.41,14.11Z"/><path class="cls-1" d="M176.41,12.8a3.25,3.25,0,0,0,2.33-.75,3.17,3.17,0,0,0,.8-2.38,3,3,0,0,0-.83-2.4,4.18,4.18,0,0,0-4.6,0,3,3,0,0,0-.83,2.4A3.24,3.24,0,0,0,174,12.1,3.37,3.37,0,0,0,176.41,12.8Z"/><rect class="cls-1" x="173.89" y="14.55" width="4.96" height="18.94"/><path class="cls-1" d="M181.27,33.46a7.71,7.71,0,0,1-.19,2.06.89.89,0,0,1-.58.65,3.78,3.78,0,0,1-.71.13,9.93,9.93,0,0,1-1,.05h-1.29V41h1.7a15.55,15.55,0,0,0,3.36-.31,4.51,4.51,0,0,0,2.16-1.1,4.4,4.4,0,0,0,1.1-2.21,17.5,17.5,0,0,0,.27-3.37V14.55h-4.8Z"/><path class="cls-1" d="M183.7,6.58a3.43,3.43,0,0,0-2.3.69,3,3,0,0,0-.82,2.4,3.2,3.2,0,0,0,.75,2.43,3.32,3.32,0,0,0,2.37.7,3.25,3.25,0,0,0,2.33-.75,3.17,3.17,0,0,0,.8-2.38,3.06,3.06,0,0,0-.82-2.4A3.46,3.46,0,0,0,183.7,6.58Z"/><path class="cls-1" d="M202.12,14.94A8.49,8.49,0,0,0,200,14.3a18.42,18.42,0,0,0-2.72-.19,9.53,9.53,0,0,0-6.35,2,7.32,7.32,0,0,0-2.57,5.24l0,.41h5v-.36a3.3,3.3,0,0,1,1.05-2.43,4.61,4.61,0,0,1,3.07-.85,4.76,4.76,0,0,1,2.74.58,1.79,1.79,0,0,1,.71,1.51,1.22,1.22,0,0,1-.83,1.22,14.15,14.15,0,0,1-3.4.75c-1.14.17-2.1.33-2.84.48a14.11,14.11,0,0,0-1.94.51,7.93,7.93,0,0,0-.82.34,7.29,7.29,0,0,0-.81.46,5.46,5.46,0,0,0-1.87,1.95,5.75,5.75,0,0,0-.68,2.83,4.86,4.86,0,0,0,1.63,3.82A6.89,6.89,0,0,0,194.05,34a9,9,0,0,0,4.87-1.23,8.27,8.27,0,0,0,2.32-2.15l.36,2.9h4.06V20.84a7.43,7.43,0,0,0-.82-3.56A5.41,5.41,0,0,0,202.12,14.94ZM197,29.83a6.47,6.47,0,0,1-1.56.19,3,3,0,0,1-1.9-.49,1.66,1.66,0,0,1-.57-1.41,1.73,1.73,0,0,1,.22-.89,2,2,0,0,1,.68-.69,4.91,4.91,0,0,1,1.37-.61,23.75,23.75,0,0,1,2.44-.48,15.81,15.81,0,0,0,2.22-.48,7.33,7.33,0,0,0,1-.4v.32a4.94,4.94,0,0,1-.66,2.4,5.35,5.35,0,0,1-1.91,2,4.86,4.86,0,0,1-1.34.58Z"/><path class="cls-1" d="M220.4,14.55l-4.74,12.16-4.87-12.16h-5.26l7.69,18.09-.28.7A7.62,7.62,0,0,1,212,35a2.16,2.16,0,0,1-1,.7,7.8,7.8,0,0,1-.79.14,8.22,8.22,0,0,1-1,.06h-2.5v4.36h2.47a20.22,20.22,0,0,0,3.08-.19,5.13,5.13,0,0,0,2.17-.86,6.4,6.4,0,0,0,1.57-1.85,24.5,24.5,0,0,0,1.49-3.09l8.19-19.75Z"/><path class="cls-1" d="M117.65,62.13v9h-3.17V47.91h9c6.11,0,8.63,2.62,8.63,6.83a5.61,5.61,0,0,1-4.25,5.92c2.55.65,3.69,2.28,3.69,5.68V70a1.44,1.44,0,0,0,.52,1.17h-3.43a1.84,1.84,0,0,1-.39-1.21V66.41c0-3.21-1.37-4.28-5-4.28Zm0-11.44v8.69h5.65c3.46,0,5.55-1.47,5.55-4.44,0-2.71-1.63-4.25-5.45-4.25Z"/><path class="cls-1" d="M135.29,47.85c0-1.63.78-2.26,2.25-2.26s2.22.63,2.22,2.26-.75,2.25-2.22,2.25S135.29,49.52,135.29,47.85Zm.59,23.29V52.49h3.23V71.14Z"/><path class="cls-1" d="M150.64,79.7c-6.46,0-8.46-1.76-8.46-4.57,0-2.06,1.28-3.6,4.22-4.31-2.42-.36-3.53-1.57-3.53-3.34s1.4-3.13,4.15-3.62A5.12,5.12,0,0,1,143,58.47v0c0-3.43,2.45-5.65,6.76-6.07a12,12,0,0,1,1.66-.13c3.63-.2,4.22-1.11,4.22-3.47V48.4h3.59V49c0,2.65-1.17,3.79-5.29,3.92H154c3.43.42,5.26,2.84,5.26,5.49v.13c0,3.92-3.11,6.37-8.27,6.37h-.62c-3.82,0-4.67.69-4.67,1.8s.88,1.6,3.23,1.56h4.38c5,0,7.15,2,7.15,5.23,0,3.69-2.87,6.24-9.5,6.24Zm.33-2.64c4.67,0,6.53-1.41,6.53-3.43,0-1.64-1.17-2.72-4.34-2.72H149.7c-3,.23-4.41,1.44-4.41,3.24v0c0,1.6,1.5,2.88,5.09,2.88Zm5.1-18.53v-.06c0-3.14-2.26-4.15-4.84-4.15a5,5,0,0,0-.72.06c-2.68.17-4.41,1.64-4.37,4.12v.06c0,2.55,1.73,4,4.83,4C154.27,62.52,156.07,61.05,156.07,58.53Z"/><path class="cls-1" d="M165.84,71.14h-3v-25h3v10.1A7,7,0,0,1,172.6,52c4.77,0,7.15,3,7.15,7.77v11.4h-3.17V60.52c0-3.39-1.47-5.78-5.13-5.78s-5.61,2.75-5.61,6.6Z"/><path class="cls-1" d="M193.51,71.14h-2.06c-5,0-6.37-1.66-6.37-7.22V55.3h-3.66V52.59h1.8c1.69,0,1.92-.3,2.05-2.42,0-.56.07-2.22.07-2.61H188v4.93h5.49V55.3H188v8.17c0,4,.78,4.7,4.15,4.7h1.34Z"/><path class="cls-1" d="M195.14,65h3.43c.39,2.68,2.55,3.89,5.49,3.89,3.43,0,4.74-1.4,4.74-3.17,0-2.19-2.72-2.48-5.66-2.91-3.43-.49-7.18-1.17-7.18-5.22,0-3.07,2.35-5.65,7.41-5.65s7.68,2.31,8.17,5.91h-3.23c-.3-2.19-2-3.33-5-3.33-3.2,0-4.25,1.37-4.25,2.9,0,2.16,2.75,2.45,5.69,2.88,3.43.49,7.15,1.18,7.15,5.23,0,3.39-2.48,6.07-7.94,6.07C198.73,71.63,195.66,69.35,195.14,65Z"/></g></g></svg>