<?xml version="1.0" encoding="utf-8"?>
<!-- Generator: Adobe Illustrator 19.2.1, SVG Export Plug-In . SVG Version: 6.00 Build 0)  -->
<svg version="1.1" id="Layer_1" xmlns="http://www.w3.org/2000/svg" xmlns:xlink="http://www.w3.org/1999/xlink" x="0px" y="0px"
	 width="58px" height="59px" viewBox="0 0 58 59" enable-background="new 0 0 58 59" xml:space="preserve">
<g id="Layer_2">
	<g id="Banijay_Rights_Logo">
		<path fill="#FFFFFF" d="M43.8,28.3H0V1.8C0,0.8,0.8,0,1.8,0h41.9C51.6,0,58,6.3,58,14.2c0,0,0,0,0,0l0,0
			C58,23.9,51.6,28.3,43.8,28.3z"/>
		<path fill="#FFFFFF" d="M43.8,30.7H0v26.5c0,1,0.8,1.8,1.8,1.8c0,0,0,0,0,0h41.9C51.6,59,58,52.7,58,44.8c0,0,0,0,0,0l0,0
			C58,35.1,51.6,30.7,43.8,30.7z"/>
	</g>
</g>
</svg>
