<?xml version="1.0" encoding="utf-8"?>
<!-- Generator: Adobe Illustrator 19.2.1, SVG Export Plug-In . SVG Version: 6.00 Build 0)  -->
<svg version="1.1" id="Layer_1" xmlns="http://www.w3.org/2000/svg" xmlns:xlink="http://www.w3.org/1999/xlink" x="0px" y="0px"
	 width="32px" height="32px" viewBox="0 0 32 32" style="enable-background:new 0 0 32 32;" xml:space="preserve">
<style type="text/css">
	.st0{fill:#434A54;}
</style>
<title>icon/hero/mag glass</title>
<desc>Created with Sketch.</desc>
<g id="icon_x2F_hero_x2F_mag-glass">
	<path id="Fill-1" class="st0" d="M14.4,18.7c-2.4,0-4.5-2.1-4.5-4.5c0-2.4,1.9-4.3,4.3-4.3c2.4,0,4.5,2.1,4.5,4.5
		C18.7,16.7,16.7,18.7,14.4,18.7 M23.4,21.4l-3.8-3.8c0.6-0.9,0.9-2,0.9-3.2c0-3.4-3-6.4-6.4-6.4C10.8,8,8,10.8,8,14.2
		c0,3.4,3,6.4,6.4,6.4c1.1,0,2.2-0.3,3.1-0.8l3.8,3.8c0.4,0.4,1,0.4,1.3,0l0.9-0.9C24,22.2,23.8,21.7,23.4,21.4"/>
</g>
</svg>
