
<svg version="1.1" xmlns="http://www.w3.org/2000/svg" width="22" height="23" viewBox="0 0 30 32">
<title></title>
<g id="icomoon-ignore">
</g>
<path fill="#A2A29A" d="M15.091 5.272c4.571 0 8.443 2.852 9.991 6.875l4.986-1.756c-2.266-6.063-8.122-10.388-14.978-10.388-6.969 0-12.9 4.476-15.091 10.709l4.986 1.756c1.454-4.174 5.421-7.196 10.105-7.196z"></path>
<path fill="#A2A29A" d="M25.12 19.796c-1.53 4.042-5.44 6.932-10.010 6.932-4.59 0-8.499-2.89-10.029-6.969l-4.986 1.756c2.248 6.119 8.122 10.482 15.015 10.482 6.875 0 12.749-4.344 15.015-10.445l-5.005-1.756z"></path>
<path fill="#A2A29A" d="M15.091 21.968c2.512 0 4.646-1.549 5.534-3.74l-4.306-1.511c-0.246 0.416-0.699 0.699-1.228 0.699-0.793 0-1.417-0.642-1.417-1.417 0-0.793 0.642-1.435 1.417-1.435 0.51 0 0.963 0.264 1.209 0.68l4.306-1.53c-0.888-2.172-3.022-3.702-5.515-3.702-2.625 0-4.835 1.681-5.647 4.042-0.208 0.604-0.321 1.265-0.321 1.945 0 0.774 0.151 1.492 0.416 2.172 0.869 2.229 3.022 3.796 5.553 3.796z"></path>
</svg>
