<?xml version="1.0" encoding="UTF-8"?>
<svg width="545px" height="151px" viewBox="0 0 545 151" version="1.1" xmlns="http://www.w3.org/2000/svg" xmlns:xlink="http://www.w3.org/1999/xlink">
    <!-- Generator: Sketch 62 (91390) - https://sketch.com -->
    <title>cineflix_rights</title>
    <desc>Created with Sketch.</desc>
    <g id="Page-1" stroke="none" stroke-width="1" fill="none" fill-rule="evenodd">
        <path d="M420.987,122.846 C424.562,122.846 426.771,124.493 428.417,126.461 L428.417,123.288 L433.276,123.288 L433.276,140.156 C433.276,147.666 429.181,151 421.871,151 C418.377,151 415.124,150.116 412.393,148.469 L414.2,144.815 C416.449,146.22 418.858,147.064 421.751,147.064 C426.088,147.064 428.457,144.815 428.457,140.557 L428.457,138.911 C426.69,141.2 424.481,142.806 420.987,142.806 C416.008,142.806 411.349,139.152 411.349,132.846 C411.349,126.541 416.048,122.846 420.987,122.846 Z M536.586,122.927 C539.236,122.927 542.128,123.85 544.377,125.337 L542.449,128.79 C540.401,127.546 538.232,126.782 536.466,126.782 C534.578,126.782 533.493,127.666 533.493,128.911 L533.493,128.991 C533.493,130.517 535.782,131.16 538.272,131.963 C541.365,132.927 544.859,134.333 544.859,138.148 L544.859,138.228 C544.859,142.686 541.405,144.895 536.987,144.895 C533.976,144.895 530.642,143.811 527.991,141.722 L530.16,138.429 C532.449,140.156 534.939,141.04 537.108,141.04 C539.196,141.04 540.401,140.156 540.401,138.75 L540.401,138.67 C540.401,137.023 538.152,136.461 535.662,135.698 C532.529,134.815 529.035,133.53 529.035,129.473 L529.035,129.393 C529.035,125.377 532.369,122.927 536.586,122.927 Z M460.613,115.176 L460.613,126.582 C461.979,124.573 463.946,122.846 467.239,122.846 C472.019,122.846 474.79,126.059 474.79,130.999 L474.79,144.493 L469.931,144.493 L469.931,132.445 C469.931,129.152 468.284,127.264 465.392,127.264 C462.581,127.264 460.613,129.232 460.613,132.525 L460.613,144.493 L455.753,144.493 L455.753,115.176 L460.613,115.176 Z M352.726,116.381 C359.191,116.381 363.168,119.794 363.168,125.297 C363.168,129.955 360.396,132.766 356.461,133.851 L364.052,144.493 L358.228,144.493 L351.32,134.694 L345.136,134.694 L345.136,144.493 L340.195,144.493 L340.195,116.381 L352.726,116.381 Z M502.756,117.779 L502.756,123.518 L508.381,123.518 L508.381,127.636 L502.789,127.636 L502.789,127.636 L502.789,137.993 C502.789,139.634 503.688,140.236 505.744,140.236 L505.744,140.236 L506.803,140.236 L506.803,144.349 C506.732,144.373 506.664,144.4 506.596,144.422 C506.135,144.429 505.359,144.455 505.107,144.455 C500.361,144.455 498.045,142.4 498.045,138.179 L498.045,138.179 L498.045,127.636 L495.314,127.636 L495.314,123.518 L498.045,123.518 L498.045,123.518 L498.045,117.779 L502.756,117.779 Z M390.127,123.488 L390.127,144.388 L385.336,144.388 L385.336,123.488 L390.127,123.488 Z M422.272,126.943 C418.899,126.943 416.248,129.272 416.248,132.806 C416.248,136.341 418.939,138.71 422.272,138.71 C425.646,138.71 428.497,136.341 428.497,132.846 C428.497,129.272 425.646,126.943 422.272,126.943 Z M352.324,120.879 L345.136,120.879 L345.136,130.317 L352.364,130.317 C355.898,130.317 358.147,128.469 358.147,125.577 C358.147,122.485 355.979,120.879 352.324,120.879 Z M18.9,76.476 C24.582,91.635 39.153,102.437 56.291,102.437 C73.383,102.437 87.937,91.687 93.644,76.588 L93.644,76.588 L112.244,83.181 C103.824,105.91 81.953,122.113 56.291,122.113 C30.588,122.113 8.678,105.853 0.297,83.056 L0.297,83.056 Z M387.623,115.621 C389.035,115.621 390.182,116.766 390.182,118.177 C390.182,119.59 389.035,120.734 387.623,120.734 C386.213,120.734 385.066,119.59 385.066,118.177 C385.066,116.766 386.213,115.621 387.623,115.621 Z M338.932,25.597 C348.59,25.597 357.133,29.082 363.334,35.228 C368.271,40.025 371.713,46.424 373.025,54.049 L373.025,54.049 L372.859,54.039 L372.91,54.17 L322.098,72.135 C325.401,77.801 331.362,81.422 338.557,81.422 C342.609,81.422 345.998,80.572 348.751,78.937 C349.141,78.693 349.531,78.451 349.896,78.17 C350.023,78.08 350.138,77.984 350.259,77.888 C350.883,77.379 351.463,76.808 352.013,76.191 L352.013,76.191 L367.623,81.824 C365.393,85.373 362.603,88.363 359.349,90.734 C353.111,95.373 345.217,97.64 336.27,97.039 C334.631,96.924 333.063,96.683 331.518,96.387 C331.398,96.363 331.293,96.338 331.18,96.318 C330.117,96.101 329.079,95.845 328.062,95.541 C327.996,95.529 327.932,95.502 327.866,95.48 C321.512,93.558 316.044,89.963 311.584,84.756 C308.332,80.951 305.984,76.447 304.568,71.719 C304.517,71.55 304.477,71.381 304.43,71.213 C304.183,70.332 303.949,69.453 303.775,68.558 C303.693,68.199 303.639,67.834 303.576,67.465 C303.447,66.746 303.334,66.023 303.252,65.291 C303.204,64.849 303.174,64.402 303.139,63.953 C303.092,63.263 303.05,62.578 303.039,61.894 C303.039,61.771 303.018,61.637 303.018,61.509 C303.018,61.187 303.053,60.875 303.063,60.553 C303.074,60.088 303.053,59.631 303.083,59.172 C303.097,58.984 303.133,58.81 303.139,58.621 C303.204,57.824 303.299,57.033 303.412,56.244 C303.447,56 303.469,55.756 303.512,55.504 C303.676,54.461 303.893,53.433 304.146,52.422 C304.155,52.381 304.161,52.343 304.172,52.306 C304.436,51.246 304.764,50.209 305.125,49.187 C305.133,49.148 305.145,49.119 305.152,49.088 C305.5,48.137 305.884,47.201 306.312,46.293 C306.371,46.17 306.426,46.047 306.482,45.928 C306.863,45.133 307.279,44.357 307.726,43.599 C307.869,43.361 307.994,43.121 308.135,42.894 C308.529,42.248 308.964,41.615 309.407,40.994 C309.633,40.681 309.846,40.367 310.078,40.054 C310.512,39.49 310.979,38.939 311.453,38.39 C311.719,38.088 311.979,37.773 312.256,37.471 C312.416,37.295 312.555,37.109 312.722,36.939 C319.779,29.508 328.723,25.597 338.932,25.597 Z M177.742,25.66 C191.109,25.66 202.374,32.295 208.194,43.494 L208.194,43.494 L192.748,48.957 C189.008,43.775 183.775,41.164 176.861,41.164 C166.281,41.164 158.082,49.607 158.082,61.443 C158.082,72.92 166.281,81.488 177.365,81.488 C184.795,81.488 190.041,78.732 193.111,73.234 L193.111,73.234 L208.271,78.547 C202.582,90.297 191.555,97.115 177.486,97.115 C167.41,97.115 158.84,93.461 152.033,86.529 C145.481,79.853 141.83,70.523 141.83,61.576 C141.83,52.125 145.107,43.685 151.537,37.006 C158.59,29.57 167.533,25.66 177.742,25.66 Z M436.84,1.683 L436.84,73.679 L436.84,73.679 C436.84,79.222 439.867,81.244 446.803,81.244 L450.385,81.244 L450.385,81.244 L450.385,95.355 C449.09,95.355 445.66,95.48 444.658,95.48 C428.654,95.48 420.834,88.547 420.834,74.306 L420.834,1.683 L420.834,1.683 L436.84,1.683 Z M270.934,26.295 C280.765,26.295 287.945,30.076 292.73,37.385 C296.764,43.685 297.149,50.74 297.149,59.562 L297.149,95.355 L281.396,95.355 L281.396,65.359 C281.396,49.353 278.876,41.668 267.402,41.668 C256.05066,41.668 252.729279,49.8165514 252.663987,65.8759309 L252.663,95.355 L237.412,95.355 L237.412,27.679 L252.791,27.679 L252.791,35.367 C257.451,29.189 263.245,26.295 270.934,26.295 Z M229.367,27.679 L229.367,95.355 L213.99,95.355 L213.99,27.679 L229.367,27.679 Z M405.76,1.556 C406.77,1.556 410.193,1.683 414.287,1.683 L414.287,15.793 L407.902,15.793 L407.902,15.793 C400.971,15.793 397.945,17.814 397.945,23.363 L397.945,27.679 L397.945,27.679 L413.619,27.679 L413.619,41.668 L397.695,41.668 L397.695,95.355 L382.443,95.355 L382.443,41.668 L374.386,41.668 L374.386,27.679 L381.941,27.679 L381.941,22.728 L381.941,22.728 C381.941,8.49 389.756,1.556 405.76,1.556 Z M497.902,27.679 L509.621,46.957 L521.594,27.679 L539.994,27.679 L518.445,59.81 L540.246,95.355 L522.348,95.355 L508.863,73.804 L494.881,95.355 L477.619,95.355 L500.549,60.189 L480.262,27.679 L497.902,27.679 Z M472.182,27.679 L472.182,95.355 L456.807,95.355 L456.807,27.679 L472.182,27.679 Z M56.291,40.199 C65.59,40.207 73.549,45.91 76.883,54.01 L76.883,54.01 L60.805,59.685 C59.872,58.172 58.206,57.152 56.291,57.152 C53.354,57.152 50.982,59.533 50.982,62.474 C50.982,65.402 53.354,67.787 56.291,67.787 C58.234,67.787 59.918,66.732 60.852,65.179 L60.852,65.179 L76.922,70.806 C73.625,78.971 65.635,84.73 56.291,84.73 C46.861,84.73 38.823,78.863 35.58,70.578 C34.594,68.066 34.029,65.338 34.029,62.474 C34.029,59.937 34.475,57.51 35.254,55.242 C38.258,46.5 46.533,40.199 56.291,40.199 Z M339.156,41.164 C328.798,40.599 320.252,48.303 319.342,59.857 L319.342,59.857 L353.151,47.902 C352.938,47.642 352.74,47.359 352.523,47.109 C352.494,47.076 352.455,47.041 352.424,46.998 C351.932,46.461 351.397,45.974 350.865,45.512 C350.64,45.32 350.433,45.14 350.203,44.965 C349.854,44.695 349.501,44.451 349.137,44.211 C348.637,43.89 348.133,43.574 347.6,43.295 C347.491,43.246 347.383,43.193 347.275,43.138 C345.014,42.051 342.455,41.4 339.564,41.187 C339.432,41.178 339.293,41.166 339.156,41.164 Z M56.291,2.82 C81.868,2.82 103.676,18.922 112.156,41.535 L112.156,41.535 L93.559,48.111 C87.781,33.138 73.298,22.502 56.291,22.502 C38.828,22.502 24.022,33.721 18.58,49.328 L18.58,49.328 L-2.84217094e-14,42.74 C8.146,19.496 30.271,2.82 56.291,2.82 Z M464.561,0.74 C469.02,0.74 472.627,4.351 472.627,8.808 C472.627,13.269 469.02,16.881 464.561,16.881 C460.104,16.881 456.486,13.269 456.486,8.808 C456.486,4.351 460.104,0.74 464.561,0.74 Z M221.729,0.031 C226.188,0.031 229.801,3.644 229.801,8.103 C229.801,12.56 226.188,16.174 221.729,16.174 C217.272,16.174 213.658,12.56 213.658,8.103 C213.658,3.644 217.272,0.031 221.729,0.031 Z" id="cineflix_rights" fill="#FFFFFF"></path>
    </g>
</svg>