<?xml version="1.0" encoding="UTF-8"?>
<svg width="207px" height="58px" viewBox="0 0 207 58" version="1.1" xmlns="http://www.w3.org/2000/svg" xmlns:xlink="http://www.w3.org/1999/xlink">
    <!-- Generator: Sketch 51.2 (57519) - http://www.bohemiancoding.com/sketch -->
    <title>logo/rights white</title>
    <desc>Created with Sketch.</desc>
    <defs></defs>
    <g id="logo/rights-white" stroke="none" stroke-width="1" fill="none" fill-rule="evenodd">
        <g id="Page-1" transform="translate(2.000000, 0.000000)" fill="#FFFFFF">
            <path d="M21.0797639,8.61752817 C14.5402475,8.61752817 8.99534577,12.9596199 6.95780877,19 L0,16.4502451 C3.05050109,7.45411542 11.3358358,1 21.0797639,1 C30.6577981,1 38.8244231,7.23196009 42,15.9838737 L35.0358251,18.5289843 C32.8720889,12.7343683 27.4485181,8.61752817 21.0797639,8.61752817 Z" id="Fill-1"></path>
            <path d="M35.0213849,29.0413489 C32.8802658,34.6662942 27.4199807,38.6708081 21.0075035,38.6708081 C14.5781434,38.6708081 9.11110516,34.646551 6.97974059,29 L0,31.4511351 C3.14433487,39.9433123 11.3644013,46 21.0075035,46 C30.6355987,46 38.8410333,39.964173 42,31.4976992 L35.0213849,29.0413489 Z" id="Fill-3"></path>
            <path d="M21.3041988,32 C24.7897093,32 27.770149,29.8010824 29,26.6844221 L23.0055487,24.5362781 C22.6571469,25.129146 22.0289791,25.5318991 21.3041988,25.5318991 C20.2082624,25.5318991 19.3238291,24.6214098 19.3238291,23.5036267 C19.3238291,22.3808807 20.2082624,21.4719184 21.3041988,21.4719184 C22.0185345,21.4719184 22.6399879,21.8609283 22.9880167,22.4389077 L28.9854522,20.2720577 C27.7417994,17.1802115 24.7729233,15.0030541 21.3041988,15 C17.6642576,15 14.5775068,17.4054479 13.456951,20.7427635 C13.1663675,21.6082055 13,22.5351104 13,23.5036267 C13,24.5965956 13.210757,25.6384092 13.5785559,26.5973816 C14.7882638,29.7602344 17.7866085,32 21.3041988,32" id="Fill-5"></path>
            <polygon id="Fill-7" points="80 36 86 36 86 10 80 10"></polygon>
            <path d="M154.748878,15.9669506 L148.762562,15.9669506 L148.762562,36 L143.028871,36 L143.028871,15.9669506 L140,15.9669506 L140,10.747492 L142.840154,10.747492 L142.840154,8.90008422 C142.840154,3.58696788 145.778051,1 151.794441,1 C152.173755,1 153.460941,1.04738856 155,1.04738856 L155,6.31199693 L152.599684,6.31199693 C149.99411,6.31199693 148.856545,7.06610945 148.856545,9.13665391 L148.856545,10.747492 L154.748878,10.747492 L154.748878,15.9669506 Z" id="Fill-9"></path>
            <path d="M163.958039,1 L163.958039,27.8650383 C163.958039,29.9333881 165.084803,30.6878898 167.666644,30.6878898 L169,30.6878898 L169,35.9533567 C168.517952,35.9533567 167.241176,36 166.868194,36 C160.9109,36 158,33.4126038 158,28.099001 L158,1 L163.958039,1 Z" id="Fill-10"></path>
            <polygon id="Fill-11" points="171 36 177 36 177 10 171 10"></polygon>
            <polygon id="Fill-12" points="185.339534 36 179 36 187.421128 22.4898044 179.970652 10 186.449008 10 190.752854 17.4062888 195.149983 10 201.907452 10 193.993501 22.3441988 202 36 195.426893 36 190.474476 27.7204622"></polygon>
            <path d="M72.2956909,27.9763208 C71.1405307,30.0537961 69.1665989,31.0951788 66.3708854,31.0951788 C62.2002679,31.0951788 59.1152,27.8576727 59.1152,23.5209712 C59.1152,19.048618 62.2002679,15.8583444 66.1812435,15.8583444 C68.7827998,15.8583444 70.7514637,16.8449374 72.1591036,18.8030089 L77.9710269,16.7387587 C75.7811141,12.5071024 71.542391,10 66.5127406,10 C62.6713626,10 59.306347,11.4774333 56.6524887,14.2868239 C54.2330489,16.81093 53,20.00007 53,23.5712266 C53,26.9519418 54.3737752,30.4773774 56.8391204,32.999972 C59.4004154,35.6192989 62.6250809,37 66.4164146,37 C71.7098328,37 75.859379,34.4233714 78,29.9835141 L72.2956909,27.9763208 Z" id="Fill-13"></path>
            <path d="M126.421523,15.8750881 C126.472403,15.875843 126.523654,15.8803722 126.573049,15.883769 C127.646726,15.9641618 128.596732,16.2098693 129.436807,16.620514 C129.476917,16.6408953 129.517027,16.6608991 129.557136,16.6793932 C129.755457,16.7846964 129.942264,16.904342 130.127957,17.0251198 C130.263513,17.1157032 130.394241,17.2077964 130.524226,17.3097027 C130.609273,17.3761305 130.68615,17.4436906 130.770083,17.5161573 C130.967661,17.6909078 131.165981,17.8743392 131.349074,18.0770195 C131.360587,18.0932491 131.375071,18.1064591 131.385842,18.1189144 C131.466432,18.2132721 131.539967,18.3204624 131.619072,18.418217 L119.062879,22.9304024 C119.40084,18.5695668 122.574706,15.6622172 126.421523,15.8750881 Z M131.196063,29.0953574 C130.992172,29.3286097 130.776768,29.5437453 130.545023,29.736235 C130.499714,29.7720909 130.457376,29.8083243 130.41021,29.842293 C130.274654,29.9483511 130.129442,30.0396894 129.984973,30.1317825 C128.962547,30.7488819 127.70392,31.0696981 126.198692,31.0696981 C123.52694,31.0696981 121.313107,29.7030211 120.086047,27.564498 L138.957291,20.7839534 L138.93835,20.7345099 L139,20.7382842 C138.512741,17.8603742 137.23443,15.4451944 135.400897,13.6346588 C133.097932,11.314969 129.92518,10 126.337961,10 C122.54648,10 119.225174,11.4757545 116.603931,14.2804429 C116.541909,14.3446062 116.490658,14.4148083 116.431236,14.4812361 C116.327991,14.5952202 116.231802,14.7141109 116.133013,14.8284725 C115.956605,15.0353046 115.783168,15.2432689 115.622357,15.4565174 C115.535824,15.5742758 115.457091,15.6931665 115.373157,15.8109249 C115.208633,16.0453094 115.04708,16.2842231 114.900754,16.5280435 C114.848389,16.6137202 114.801965,16.7043036 114.748486,16.7945096 C114.582848,17.0802247 114.428351,17.3731111 114.286853,17.6731686 C114.266055,17.7180828 114.245629,17.7645068 114.223346,17.8109308 C114.064764,18.153638 113.922152,18.5069132 113.792909,18.8658499 C113.789938,18.8775503 113.785853,18.8884958 113.782882,18.9032156 C113.64844,19.2889499 113.526626,19.6803457 113.428951,20.0807998 C113.424866,20.0947647 113.422637,20.1087296 113.419295,20.1242043 C113.324963,20.5061643 113.244743,20.8937857 113.183465,21.2874461 C113.167495,21.3825587 113.159696,21.4746518 113.146698,21.5667449 C113.104731,21.8645378 113.069449,22.1630856 113.044938,22.4638979 C113.043081,22.5352324 113.02934,22.6009053 113.024511,22.6718623 C113.012999,22.8451031 113.021169,23.017589 113.016712,23.1930943 C113.012999,23.314627 113,23.4323854 113,23.5542956 C113,23.6022293 113.00817,23.652805 113.00817,23.699229 C113.012256,23.9573917 113.027854,24.2163092 113.044938,24.4763591 C113.058308,24.6458255 113.069449,24.8149145 113.087276,24.9813615 C113.117729,25.2576409 113.159696,25.5305234 113.207605,25.8018961 C113.230631,25.9411681 113.251057,26.0789303 113.281511,26.2148054 C113.346132,26.5522286 113.432665,26.8839903 113.524397,27.2165068 C113.541852,27.2799152 113.556708,27.3440784 113.57602,27.4074868 C114.101903,29.1919797 114.973917,30.8919281 116.181665,32.3280524 C117.838047,34.2933347 119.868415,35.6505759 122.228574,36.3756205 C122.252714,36.383924 122.276854,36.3941146 122.300994,36.3986438 C122.679065,36.5137602 123.064564,36.6103825 123.458976,36.6919075 C123.501314,36.6994562 123.54031,36.7088919 123.584505,36.7179503 C124.158668,36.8300472 124.741001,36.9206306 125.349332,36.9640352 C128.672495,37.1912485 131.604217,36.3352354 133.920552,34.5843339 C135.129042,33.6894454 136.16521,32.5609272 136.993772,31.2214253 L131.196063,29.0953574 Z" id="Fill-14"></path>
            <path d="M94.663793,13.4154648 C96.3799823,11.0895453 98.5138022,10 101.345515,10 C104.966085,10 107.610342,11.4234868 109.372566,14.17521 C110.858212,16.5470605 111,19.2031567 111,22.5245004 L111,36 L105.19847,36 L105.19847,24.7069794 C105.19847,18.6809731 104.270402,15.7876919 100.044746,15.7876919 C95.8220366,15.7876919 94.616653,18.9177816 94.616653,25.0857226 L94.616653,36 L89,36 L89,10.5214306 L94.663793,10.5214306 L94.663793,13.4154648 Z" id="Fill-15"></path>
            <path d="M86,3.0003717 C86,4.65704374 84.6574986,6 82.9998142,6 C81.3436164,6 80,4.65704374 80,3.0003717 C80,1.34295626 81.3436164,0 82.9998142,0 C84.6574986,0 86,1.34295626 86,3.0003717" id="Fill-16"></path>
            <path d="M177,2.99925651 C177,4.65762082 175.659191,6 174.001673,6 C172.344898,6 171,4.65762082 171,2.99925651 C171,1.34237918 172.344898,0 174.001673,0 C175.659191,0 177,1.34237918 177,2.99925651" id="Fill-17"></path>
            <path d="M131.575638,45.7599687 L128.863981,45.7599687 L128.863981,49.452851 L131.590728,49.452851 C132.923922,49.452851 133.772352,48.7297691 133.772352,47.5985843 C133.772352,46.3883613 132.954102,45.7599687 131.575638,45.7599687 Z M133.802532,55 L131.196881,51.165475 L128.863981,51.165475 L128.863981,55 L127,55 L127,44 L131.726915,44 C134.166199,44 135.666513,45.3358233 135.666513,47.4886352 C135.666513,49.3112083 134.620782,50.4114822 133.136312,50.8356276 L136,55 L133.802532,55 Z" id="Fill-18"></path>
            <path d="M157.985407,47.6007317 C156.754834,47.6007317 155.787669,48.5106912 155.787669,49.8914541 C155.787669,51.2722171 156.769427,52.1981956 157.985407,52.1981956 C159.216344,52.1981956 160.256476,51.2722171 160.256476,49.9070825 C160.256476,48.5106912 159.216344,47.6007317 157.985407,47.6007317 M157.83911,57 C156.564028,57 155.377599,56.6546139 154.380883,56.0111174 L155.040496,54.5834695 C155.861,55.1324146 156.739876,55.4621723 157.79533,55.4621723 C159.377235,55.4621723 160.241883,54.5834695 160.241883,52.9198338 L160.241883,52.276728 C159.597227,53.1710592 158.791317,53.7985366 157.5166,53.7985366 C155.699745,53.7985366 154,52.3708887 154,49.9070825 C154,47.443667 155.714338,46 157.5166,46 C158.820503,46 159.626414,46.6434965 160.227289,47.4124103 L160.227289,46.172693 L162,46.172693 L162,52.7631598 C162,55.6973787 160.505655,57 157.83911,57" id="Fill-19"></path>
            <path d="M172.787046,54 L171,54 L171,43 L172.787046,43 L172.787046,47.279487 C173.288964,46.5260932 174.012607,45.8781295 175.22346,45.8781295 C176.980722,45.8781295 178,47.0836346 178,48.9371035 L178,54 L176.212954,54 L176.212954,49.4796371 C176.212954,48.2441162 175.607711,47.535746 174.543941,47.535746 C173.51069,47.535746 172.787046,48.2741319 172.787046,49.5096528 L172.787046,54 Z" id="Fill-20"></path>
            <path d="M201.199905,54 C200.128527,54 198.942613,53.605244 198,52.8445011 L198.77152,51.6453023 C199.585724,52.274217 200.471425,52.5961398 201.242945,52.5961398 C201.985653,52.5961398 202.414276,52.274217 202.414276,51.7621996 L202.414276,51.7330663 C202.414276,51.1332848 201.614299,50.9286235 200.728599,50.6507647 C199.614181,50.328842 198.371354,49.8608886 198.371354,48.383831 L198.371354,48.3546977 C198.371354,46.8918427 199.557268,46 201.057268,46 C201.999881,46 203.028575,46.3361253 203.828551,46.877276 L203.142756,48.1351056 C202.414276,47.6817189 201.642756,47.4038602 201.014584,47.4038602 C200.343016,47.4038602 199.957078,47.725783 199.957078,48.1791697 L199.957078,48.208303 C199.957078,48.7640204 200.771283,48.9981792 201.656984,49.2906045 C202.757173,49.6416606 204,50.1533139 204,51.5429716 L204,51.5721049 C204,53.1955572 202.771401,54 201.199905,54" id="Fill-21"></path>
            <path d="M190,47.6952202 L190,46.1514527 L187.860095,46.1514527 L187.847467,46.1514527 L187.847467,44 L186.044696,44 L186.044696,46.1514527 L185,46.1514527 L185,47.6952202 L186.044696,47.6952202 L186.044696,51.6476101 C186.044696,53.2299906 186.930966,54 188.747513,54 C188.843946,54 189.140517,53.9906279 189.316929,53.9876289 C189.342951,53.9797563 189.369356,53.9692596 189.396143,53.9606373 L189.396143,52.4551078 L189.396143,52.4187441 L188.990892,52.4187441 C188.204118,52.4187441 187.860095,52.1926898 187.860095,51.577507 L187.860095,47.6952202 L190,47.6952202 Z" id="Fill-22"></path>
            <polygon id="Fill-23" points="144 55 146 55 146 47 144 47"></polygon>
            <path d="M146,44.9996089 C146,45.5522096 145.551906,46 144.999413,46 C144.448094,46 144,45.5522096 144,44.9996089 C144,44.4481815 144.448094,44 144.999413,44 C145.551906,44 146,44.4481815 146,44.9996089" id="Fill-24"></path>
        </g>
    </g>
</svg>