<?xml version="1.0" encoding="UTF-8"?>
<svg width="27px" height="12px" viewBox="0 0 27 12" version="1.1" xmlns="http://www.w3.org/2000/svg" xmlns:xlink="http://www.w3.org/1999/xlink">
    <!-- Generator: Sketch 52.3 (67297) - http://www.bohemiancoding.com/sketch -->
    <title>Fill 1</title>
    <desc>Created with Sketch.</desc>
    <g id="Symbols" stroke="none" stroke-width="1" fill="none" fill-rule="evenodd">
        <g id="all3-div" transform="translate(-577.000000, 0.000000)" fill="rgba(230,233,237,.25)">
            <path d="M596.779745,9.22023203 C596.533836,9.48480859 596.17767,9.65264701 595.780623,9.65264701 C595.040572,9.65264701 594.438574,9.07318709 594.438574,8.36099173 L594.438574,0 L592,0 L592,8.36099173 C592,10.3675999 593.695969,12 595.780623,12 C596.609405,12 597.376245,11.7413112 598,11.30435 C597.396609,10.7523166 596.962009,10.0311778 596.779745,9.22023203 M604,3.56865003 C604,1.60086226 602.412068,0 600.460157,0 C598.855239,0 597.447948,1.09144355 597.037825,2.65416554 C596.878398,3.26147025 597.237565,3.88413394 597.840065,4.04485217 C598.442638,4.20564388 599.060228,3.84349509 599.219583,3.23604341 C599.368075,2.6703329 599.878214,2.27518801 600.460157,2.27518801 C601.167557,2.27518801 601.743085,2.85544913 601.743085,3.56953188 C601.743085,4.28192441 601.168869,4.86159763 600.462417,4.86284692 C600.461615,4.86284692 600.460886,4.86277344 600.460084,4.86277344 L600.460084,4.86292041 C599.836881,4.86292041 599.331626,5.37226563 599.331626,6.0005879 C599.331626,6.6287632 599.836881,7.13810842 600.460084,7.13810842 C600.460886,7.13810842 600.461615,7.13803493 600.462417,7.13803493 C601.168869,7.13935772 601.743085,7.71895745 601.743085,8.43149695 C601.743085,9.14462435 601.167557,9.72481199 600.460157,9.72481199 C599.878214,9.72481199 599.368075,9.3296671 599.219583,8.76388311 C599.060228,8.15650491 598.442638,7.79442961 597.840065,7.95507435 C597.237565,8.11586606 596.878398,8.73845626 597.037825,9.34583446 C597.40851,10.7582 598.593609,11.7852681 600.003015,11.9700169 C600.103395,11.9902996 600.252034,12 600.460084,12 L600.460157,12 L600.46023,12 C602.412068,11.999853 604,10.3990643 604,8.43149695 C604,7.49276143 603.638135,6.63809617 603.048247,6.00044093 C603.638135,5.36256522 604,4.50775298 604,3.56865003 M591.779404,9.22082826 C591.533488,9.4851067 591.177545,9.65264701 590.780798,9.65264701 C590.040728,9.65264701 589.438715,9.07318709 589.438715,8.36099173 L589.438715,0 L587,0 L587,8.36099173 C587,10.3675999 588.69609,12 590.780798,12 C591.609524,12 592.376229,11.7413112 593,11.304499 C592.396438,10.7526147 591.96175,10.0316995 591.779404,9.22082826 M588,11.3308686 C587.383839,11.7505991 586.626465,11.9992114 585.80798,11.9997849 C585.806754,11.9997849 585.805606,12 585.80438,12 C583.867677,12 582.298174,10.5790099 582.07257,8.62108023 C581.996909,7.96449419 581.547309,7.25787027 580.738779,7.25787027 C580.007136,7.25787027 579.411881,7.81509739 579.411881,8.5 C579.411881,9.18483092 580.006983,9.74198636 580.73855,9.74212973 L580.73855,9.74198636 C581.129566,9.74198636 581.480531,9.58190812 581.723672,9.32928128 C581.902333,10.1088831 582.332405,10.8021732 582.930493,11.3328042 C582.315175,11.7511009 581.559562,11.998853 580.742915,11.9997849 C580.741536,11.9997849 580.740158,12 580.738779,12 C578.677174,12 577,10.4298282 577,8.5 C577,6.57017185 578.677174,5 580.738779,5 C582.675559,5 584.244986,6.42113348 584.47059,8.37899146 C584.546251,9.03543412 584.995927,9.74212973 585.80438,9.74212973 L585.80507,9.74212973 L585.80507,9.74198636 C586.197465,9.74198636 586.549578,9.5808328 586.792796,9.32662884 C586.973141,10.1065891 587.40306,10.8000225 588,11.3308686" id="Fill-1"></path>
        </g>
    </g>
</svg>