<?xml version="1.0" encoding="utf-8"?>
<!-- Generator: Adobe Illustrator 19.2.1, SVG Export Plug-In . SVG Version: 6.00 Build 0)  -->
<svg version="1.1" id="Layer_1" xmlns="http://www.w3.org/2000/svg" xmlns:xlink="http://www.w3.org/1999/xlink" x="0px" y="0px"
	 width="28px" height="16.7px" viewBox="0 0 28 16.7" style="enable-background:new 0 0 28 16.7;" xml:space="preserve">
<style type="text/css">
	.st0{fill:#F6A200;}
</style>
<title>icon/chevron_down</title>
<g id="v5">
	<g id="Base" transform="translate(-823.000000, -3269.000000)">
		<g id="Page-1" transform="translate(815.000000, 3257.000000)">
			<path class="st0" d="M8.8,12.8c1-1.1,2.5-1.2,3.8,0l9.4,9l9.4-9c1.3-1.2,2.7-1.1,3.8,0c1,1.1,1,2.9,0,3.9
				c-1,1-11.3,10.8-11.3,10.8c-0.5,0.5-1.2,0.8-1.9,0.8c-0.7,0-1.4-0.3-1.9-0.8c0,0-10.3-9.8-11.3-10.8C7.8,15.7,7.7,13.9,8.8,12.8"
				/>
		</g>
	</g>
</g>
</svg>
