<?xml version="1.0" encoding="UTF-8"?>
<svg width="672px" height="152px" viewBox="0 0 672 152" version="1.1" xmlns="http://www.w3.org/2000/svg" xmlns:xlink="http://www.w3.org/1999/xlink">
    <!-- Generator: Sketch 51.2 (57519) - http://www.bohemiancoding.com/sketch -->
    <title>logo white</title>
    <desc>Created with Sketch.</desc>
    <defs></defs>
    <g id="Symbols" stroke="none" stroke-width="1" fill="none" fill-rule="evenodd">
        <g id="logo/RTV-hero-white" transform="translate(-5.000000, -72.000000)" fill="#FFFFFF">
            <g id="logo-white" transform="translate(5.000000, 72.000000)">
                <path d="M242.939484,117.336692 C239.974211,120.635747 235.679421,122.728556 230.891663,122.728556 C221.967836,122.728556 214.708707,115.503161 214.708707,106.622663 L214.708707,2.36788496 L185.303398,2.36788496 L185.303398,106.622663 C185.303398,131.643438 205.754069,151.998141 230.891663,151.998141 C240.885454,151.998141 250.132324,148.772502 257.653809,143.323951 C250.377874,136.440542 245.137296,127.448527 242.939484,117.336692 M338,45.1282816 C338,20.2441154 317.6623,0 292.662886,0 C272.107646,0 254.083531,13.8021301 248.830816,33.5639329 C246.788923,41.2437608 251.389017,49.1178147 259.105635,51.1502183 C266.823187,53.1835512 274.73307,48.6039056 276.774029,40.9222191 C278.675874,33.7683814 285.209557,28.771475 292.662886,28.771475 C301.723026,28.771475 309.094194,36.1093163 309.094194,45.1394334 C309.094194,54.1481762 301.739832,61.478583 292.691829,61.4943813 C292.681559,61.4943813 292.672223,61.493452 292.661952,61.493452 L292.661952,61.4953106 C284.680178,61.4953106 278.209049,67.9363666 278.209049,75.8819775 C278.209049,83.8257297 284.680178,90.2667857 292.661952,90.2667857 C292.672223,90.2667857 292.681559,90.2658564 292.691829,90.2658564 C301.739832,90.282584 309.094194,97.6120615 309.094194,106.622663 C309.094194,115.640699 301.723026,122.977611 292.662886,122.977611 C285.209557,122.977611 278.675874,117.980705 276.774029,110.825938 C274.73307,103.14518 266.823187,98.5664641 259.105635,100.597938 C251.389017,102.631271 246.788923,110.504396 248.830816,118.185153 C253.578427,136.045585 268.756776,149.033639 286.807966,151.369927 C288.093603,151.626417 289.997315,151.749086 292.661952,151.749086 L292.662886,151.749086 L292.66382,151.749086 C317.6623,151.747227 338,131.504041 338,106.622663 C338,94.7516416 333.365361,83.9437522 325.810265,75.8801189 C333.365361,67.8136976 338,57.0039496 338,45.1282816 M181.16266,117.344126 C178.197387,120.639464 173.905397,122.728556 169.121375,122.728556 C160.197547,122.728556 152.938418,115.503161 152.938418,106.622663 L152.938418,2.36788496 L123.532175,2.36788496 L123.532175,106.622663 C123.532175,131.643438 143.98378,151.998141 169.121375,151.998141 C179.114231,151.998141 188.359234,148.772502 195.880719,143.325809 C188.602917,136.44426 183.361405,127.455032 181.16266,117.344126 M134.11043,143.325809 C126.598282,148.766926 117.364483,151.989778 107.385631,151.997212 C107.370692,151.997212 107.356687,152 107.341749,152 C83.7297387,152 64.5945804,133.579193 61.8440473,108.197845 C60.921601,99.6862841 55.4401414,90.5260635 45.5826639,90.5260635 C36.6625711,90.5260635 29.4053091,97.7495995 29.4053091,106.628239 C29.4053091,115.505949 36.6607038,122.728556 45.579863,122.730414 L45.579863,122.728556 C50.3470803,122.728556 54.6259986,120.653404 57.5903376,117.378511 C59.7685432,127.48477 65.011922,136.472139 72.3037291,143.350901 C64.8018507,148.773431 55.5895254,151.985131 45.633081,151.997212 C45.6162753,151.997212 45.5994696,152 45.5826639,152 C20.4478703,152 0,131.645297 0,106.628239 C0,81.6111811 20.4478703,61.2564777 45.5826639,61.2564777 C69.195608,61.2564777 88.3298326,79.6791431 91.0803657,105.059562 C92.002812,113.569264 97.4852052,122.730414 107.341749,122.730414 L107.350152,122.730414 L107.350152,122.728556 C112.134175,122.728556 116.427098,120.639464 119.392371,117.344126 C121.591117,127.455032 126.832628,136.44426 134.11043,143.325809" id="Fill-1"></path>
                <path d="M671.112365,147.506108 C669.886406,147.841934 668.557278,148.027153 667.369427,148.027153 C665.786555,148.027153 664.732547,147.536042 664.732547,145.137554 L664.732547,108.770144 L660.135434,108.770144 L660.135434,145.196487 C660.135434,147.042126 660.135434,151.941067 666.423236,151.941067 C667.345261,151.941067 669.617792,151.761461 671.625427,151.088874 L671.91356,150.992523 L671.540846,147.387306 L671.112365,147.506108 Z M647.130421,124.843946 C645.002885,124.250872 643.287101,123.987076 641.598271,123.987076 C634.908013,123.987076 631.514552,128.221849 631.514552,136.573528 C631.514552,144.267587 634.380079,147.850353 640.534968,147.850353 C642.835383,147.850353 644.935964,147.257279 647.130421,145.990682 L647.130421,124.843946 Z M654.618156,147.839128 L655.009459,150.739016 L654.804977,150.870914 C653.926637,151.438731 652.796413,151.761461 651.706156,151.761461 C649.916944,151.761461 648.539483,150.964459 647.860977,149.55661 C645.224097,151.12255 642.51286,151.882134 639.587847,151.882134 C630.9829,151.882134 626.799398,146.75775 626.799398,136.215251 C626.799398,122.873893 634.846668,120.074097 641.598271,120.074097 C644.78725,120.074097 648.014338,120.603561 651.464496,121.694293 L651.729392,121.78129 L651.729392,145.732499 C651.729392,147.492076 651.839068,148.207694 652.945127,148.207694 C653.212811,148.207694 653.64594,148.169341 654.186886,147.985993 L654.618156,147.839128 Z M610.330284,119.775689 C605.523113,119.775689 600.372042,121.404304 596.895859,122.772865 L596.655129,122.866409 L596.655129,151.167451 L601.13513,151.167451 L601.13513,125.784072 C603.044242,124.68492 606.318732,123.925336 609.207495,123.925336 C613.791596,123.925336 616.275114,125.041326 616.275114,130.920616 L616.275114,151.167451 L620.697488,151.167451 L620.697488,129.970201 C620.697488,120.934709 615.156044,119.775689 610.330284,119.775689 Z M586.425485,135.916844 C586.425485,125.932808 583.111028,123.925336 577.763841,123.925336 C573.674214,123.925336 568.980437,125.287349 568.980437,135.916844 C568.980437,144.392937 571.506711,147.850353 577.704355,147.850353 C583.491177,147.850353 586.425485,143.834475 586.425485,135.916844 Z M591.144357,135.85791 C591.144357,146.720332 586.70897,152 577.585384,152 C568.124404,152 564.264354,147.339598 564.264354,135.916844 C564.264354,125.095582 568.718329,119.833687 577.880023,119.833687 C587.0538,119.833687 591.144357,124.776594 591.144357,135.85791 Z M552.798527,151.167451 L557.278527,151.167451 L557.278527,120.551176 L552.798527,120.551176 L552.798527,151.167451 Z M552.798527,115.360375 L557.278527,115.360375 L557.278527,109.246287 L552.798527,109.246287 L552.798527,115.360375 Z M546.515373,147.147832 C544.596036,147.67636 542.451771,147.911157 541.176551,147.911157 C537.536783,147.911157 537.536783,146.273188 537.536783,144.006597 L537.536783,124.400544 L546.869497,124.400544 L547.60563,120.551176 L537.596268,120.551176 L537.596268,112.401553 L533.056782,113.044206 L533.056782,120.551176 L528.919753,120.551176 L528.919753,124.400544 L533.056782,124.400544 L533.056782,143.410717 C533.056782,149.072048 534.236268,151.761461 540.940468,151.761461 C543.322675,151.761461 545.350759,151.456505 547.325862,150.791401 L547.644667,150.685696 L546.904817,147.042126 L546.515373,147.147832 Z M518.396399,124.843946 C516.269793,124.250872 514.553079,123.987076 512.864249,123.987076 C506.173991,123.987076 502.782389,128.221849 502.782389,136.573528 C502.782389,144.267587 505.647916,147.850353 511.800946,147.850353 C514.101361,147.850353 516.202872,147.257279 518.396399,145.990682 L518.396399,124.843946 Z M525.885993,147.839128 L526.275437,150.739016 L526.072815,150.870914 C525.192615,151.438731 524.06425,151.761461 522.971204,151.761461 C521.181993,151.761461 519.805461,150.964459 519.126025,149.55661 C516.491004,151.12255 513.779768,151.882134 510.855684,151.882134 C502.247949,151.882134 498.065376,146.75775 498.065376,136.215251 C498.065376,122.873893 506.113576,120.074097 512.864249,120.074097 C516.053228,120.074097 519.280316,120.603561 522.730474,121.694293 L522.9963,121.78129 L522.9963,145.732499 C522.9963,147.492076 523.105047,148.207694 524.212034,148.207694 C524.479719,148.207694 524.912848,148.169341 525.452864,147.985993 L525.885993,147.839128 Z M481.596262,119.775689 C476.789092,119.775689 471.637091,121.404304 468.161838,122.772865 L467.921107,122.866409 L467.921107,151.167451 L472.401108,151.167451 L472.401108,125.784072 C474.31022,124.68492 477.585639,123.925336 480.474403,123.925336 C485.057574,123.925336 487.541093,125.041326 487.541093,130.920616 L487.541093,151.167451 L491.963467,151.167451 L491.963467,129.970201 C491.963467,120.934709 486.422022,119.775689 481.596262,119.775689 Z M460.851629,120.191028 C457.85133,120.191028 454.941189,121.161088 452.583147,122.938439 L452.324757,120.551176 L448.297404,120.551176 L448.297404,151.167451 L452.778334,151.167451 L452.778334,126.535236 C454.123263,125.610078 456.681139,124.579215 459.727911,124.579215 C460.082965,124.579215 461.317289,124.598859 462.309953,124.809335 L462.705903,124.894461 L463.346302,120.443599 L462.989389,120.377182 C462.328542,120.254639 461.589621,120.191028 460.851629,120.191028 Z M426.355626,135.745657 C431.343112,135.745657 436.749784,133.563257 436.829718,128.774699 C436.829718,125.925324 434.797917,123.925336 431.888705,123.925336 C425.256074,123.925336 422.55599,129.896301 422.232538,135.124519 C423.343244,135.523955 424.793202,135.745657 426.354696,135.745657 L426.355626,135.745657 Z M427.049933,139.520189 C425.29697,139.520189 423.630447,139.318132 422.19536,138.934599 C422.519742,143.039344 424.295941,147.671682 430.646946,147.671682 C434.045983,147.671682 437.279577,146.992547 439.514001,145.812012 L439.966648,145.571602 L440.707428,149.523869 L440.435096,149.646413 C436.938465,151.233868 433.8099,151.941067 430.291892,151.941067 C422.014115,151.941067 417.26643,146.317154 417.26643,136.514595 C417.26643,126.67836 423.333949,120.074097 432.359942,120.074097 C438.868955,120.074097 441.782814,124.176972 441.782814,128.243364 C441.782814,136.032839 434.383378,139.519254 427.049933,139.520189 Z M413.053185,147.147832 C411.133848,147.67636 408.989582,147.911157 407.714362,147.911157 C404.074594,147.911157 404.074594,146.273188 404.074594,144.006597 L404.074594,124.400544 L413.40638,124.400544 L414.142512,120.551176 L404.13408,120.551176 L404.13408,112.401553 L399.593664,113.044206 L399.593664,120.551176 L395.456635,120.551176 L395.456635,124.400544 L399.593664,124.400544 L399.593664,143.410717 C399.593664,149.072048 400.774079,151.761461 407.47735,151.761461 C409.859558,151.761461 411.8895,151.456505 413.864604,150.791401 L414.182479,150.685696 L413.442629,147.042126 L413.053185,147.147832 Z M380.52392,119.775689 C375.716749,119.775689 370.565678,121.404304 367.089495,122.772865 L366.848765,122.866409 L366.848765,151.167451 L371.327836,151.167451 L371.327836,125.784072 C373.236948,124.68492 376.513297,123.925336 379.401131,123.925336 C383.985231,123.925336 386.46875,125.041326 386.46875,130.920616 L386.46875,151.167451 L390.892054,151.167451 L390.892054,129.970201 C390.892054,120.934709 385.350609,119.775689 380.52392,119.775689 Z M355.145925,151.167451 L359.624996,151.167451 L359.624996,120.551176 L355.145925,120.551176 L355.145925,151.167451 Z M355.145925,115.360375 L359.624996,115.360375 L359.624996,109.246287 L355.145925,109.246287 L355.145925,115.360375 Z M656.760563,34.6358954 C652.313093,33.357138 648.249491,32.594748 644.058553,32.594748 C631.739481,32.594748 621.580476,39.3636492 621.580476,60.4589357 C621.580476,76.435451 627.168394,85.5102315 641.774868,85.5102315 C646.344097,85.5102315 651.171716,84.4887223 656.760563,81.1622694 L656.760563,34.6358954 Z M665.777261,92.2856809 C662.34848,92.2856809 659.172513,90.7534172 657.90194,87.1706516 C651.550936,91.1350799 645.584728,92.5419936 639.741208,92.5419936 C620.944725,92.5419936 613.069405,80.7852839 613.069405,59.6899975 C613.069405,33.4909071 627.678668,25.820234 644.058553,25.820234 C651.171716,25.820234 658.154754,27.096185 665.013244,29.2682951 L665.013244,80.1407603 C665.013244,83.3399922 665.013244,86.2772988 668.442025,86.2772988 C669.204182,86.2772988 670.222871,86.1491424 671.36239,85.7674796 L672,90.4980399 C670.222871,91.6458345 667.93361,92.2856809 665.777261,92.2856809 Z M589.19063,91.007859 L597.197005,91.007859 L597.197005,26.8417431 L589.19063,26.8417431 L589.19063,91.007859 Z M589.19063,14.0625889 L597.197005,14.0625889 L597.197005,2.55470832 L589.19063,2.55470832 L589.19063,14.0625889 Z M527.598989,61.4785739 C527.598989,80.2707876 537.122243,85.8965715 550.078925,85.8965715 C554.524535,85.8965715 559.349366,85.0004123 564.051507,83.5906923 L563.795906,35.7930445 C559.729515,34.382389 552.365398,32.9764107 547.282178,32.9764107 C532.677562,32.9764107 527.598989,43.8407031 527.598989,61.4785739 Z M518.582291,61.6076657 C518.582291,41.5451138 525.817213,25.9437131 547.535921,25.9437131 C552.746477,25.9437131 558.968287,26.9698995 564.051507,28.1214359 L564.051507,0 L572.048587,0 L572.048587,89.2155407 C564.174196,91.007859 555.538577,92.67015 547.535921,92.67015 C531.789927,92.67015 518.582291,86.1491424 518.582291,61.6076657 Z M466.512045,57.9042274 C476.289971,61.8639785 499.277393,58.9210593 499.531135,43.7116112 C499.531135,37.0643182 494.704446,32.467527 488.100628,32.467527 C472.605589,32.467527 467.016742,46.7817514 466.512045,57.9042274 Z M484.671848,92.67015 C465.62348,92.67015 457.493488,78.609432 457.493488,60.3307793 C457.493488,40.7733693 468.921207,25.820234 489.119317,25.820234 C502.070422,25.820234 508.548763,33.743478 508.548763,42.5628812 C508.548763,64.8022205 480.227167,68.7657134 466.38285,64.4196223 C466.888476,74.5168473 471.084991,85.1257624 485.434005,85.1257624 C492.671716,85.1257624 499.783949,83.7207196 504.86531,81.0341131 L506.135883,87.8104979 C499.659401,90.7534172 493.053724,92.67015 484.671848,92.67015 Z M444.668789,46.2700614 L444.668789,91.007859 L436.79254,91.007859 L436.79254,48.3140151 C436.79254,34.8950144 430.57073,32.467527 420.791874,32.467527 C414.058861,32.467527 406.947557,34.382389 402.883955,36.3019281 C403.897997,38.9838574 404.408271,42.3046975 404.408271,46.2700614 L404.408271,91.007859 L396.532021,91.007859 L396.532021,48.3140151 C396.532021,34.8950144 390.309282,32.467527 380.528567,32.467527 C373.672865,32.467527 366.94264,34.382389 363.001727,36.8108118 L363.001727,91.007859 L355,91.007859 L355,31.5704325 C363.767603,28.1214359 373.672865,25.1794521 382.943306,25.1794521 C389.800867,25.1794521 395.768934,26.4582095 399.58344,30.671467 C407.204088,26.7126513 415.457699,25.1794521 423.202895,25.1794521 C435.522896,25.1794521 444.668789,29.2682951 444.668789,46.2700614 Z" id="Fill-4"></path>
            </g>
        </g>
    </g>
</svg>