<?xml version="1.0" encoding="UTF-8"?>
<svg width="180px" height="76px" viewBox="0 0 180 76" version="1.1" xmlns="http://www.w3.org/2000/svg" xmlns:xlink="http://www.w3.org/1999/xlink">
    <title>Combined Shape</title>
    <g id="Symbols" stroke="none" stroke-width="1" fill="none" fill-rule="evenodd">
        <g id="A3MI_LOGO_RGB_WHITE" fill="#040203">
            <path d="M33.9170213,0.0345842697 C37.1289362,0.0345842697 40.1821277,2.04132584 41.4629787,5.00020225 C43.9722553,10.7964874 48.4355962,21.1151089 52.9471703,31.5470294 L53.6413821,33.1522395 C60.4664855,48.9339011 67.1782979,64.4573933 67.1782979,64.4573933 C68.987234,68.6395281 67.0744681,73.5009663 62.9068085,75.315573 C61.84,75.7801124 60.7293617,76 59.6361702,76 C56.4578723,76 53.4310638,74.1409888 52.0855319,71.0296854 L52.0855319,71.0296854 L33.9165957,29.0208989 L27.493617,43.8814607 C29.587234,43.5164045 31.7340426,43.3268315 33.9170213,43.3268315 C35.2910638,43.3268315 36.6710638,43.3848989 38.0344681,43.5676404 C38.0348936,43.5676404 47.227234,64.8220225 47.227234,64.8220225 C40.3008511,58.8035056 29.9089362,58.3107865 22.36,63.4898876 C20.5021277,64.7639551 18.8344681,66.3569663 17.5148936,68.1895056 C17.0933511,68.7747163 16.7277842,69.4050837 16.3704429,70.0425862 L15.9425255,70.8085809 C15.2974036,71.95541 14.6170479,73.0760815 13.6229787,73.9488539 C11.4034043,75.8979551 8.19021277,76.5341348 5.41361702,75.5008764 C0.913191489,73.8250337 -1.31021277,68.4439775 0.808085106,64.0884944 L0.808085106,64.0884944 L7.06595745,49.6339775 C7.06595745,49.6339775 11.772445,38.7589174 16.7123394,27.3392873 L17.2329971,26.1356558 C17.4067082,25.7340724 17.5805135,25.3322648 17.7542196,24.9306793 L18.2748475,23.7270352 C21.4811697,16.3141752 24.5874426,9.13005079 26.3702128,5.00020225 C27.6497872,2.03577528 30.7012766,0.0345842697 33.9170213,0.0345842697 Z M77.7285106,0.71858427 C81.9085106,-1.10285393 86.7697872,0.819775281 88.5851064,5.0147191 C88.5851064,5.0147191 94.175217,17.9716773 99.7773991,30.9233172 L100.61712,32.864403 C104.063944,40.8309362 107.409298,48.5489836 109.345106,52.9788315 C110.305106,55.176 110.674468,55.9436854 111.62766,58.1434157 C114.06383,63.764427 116.426809,69.7586067 124.269362,75.4197528 C122.499149,75.7933483 120.668511,76 118.789362,76 C108.00766,76 98.3902128,69.5737303 94.2242553,59.6130337 C94.2187234,59.6002247 94.2119149,59.5882697 94.206383,59.5754607 L94.206383,59.5754607 L73.446383,11.6113483 C71.6314894,7.41683146 73.5485106,2.53959551 77.7285106,0.71858427 Z M54.08,0.71858427 C58.26,-1.10285393 63.1212766,0.819775281 64.9365957,5.0147191 C64.9365957,5.0147191 69.8062032,16.3016694 75.0102658,28.336759 L75.5689171,29.6286156 C75.7554231,30.0598686 75.9421491,30.4915959 76.1288885,30.9233172 L76.9686091,32.864403 C80.415433,40.8309362 83.7607872,48.5489836 85.6965957,52.9788315 C86.6565957,55.176 88.6144681,59.5532584 89.5680851,61.7529888 C92.0038298,67.374 95.8344681,72.0710562 100.621277,75.4197528 C98.8506383,75.7933483 97.0204255,76 95.1408511,76 C84.3595745,76 74.7421277,69.5737303 70.5761702,59.6130337 C70.5702128,59.6002247 70.5634043,59.5882697 70.5578723,59.5754607 L70.5578723,59.5754607 L49.7982979,11.6113483 C47.9829787,7.41683146 49.9,2.53959551 54.08,0.71858427 Z M179.055319,73.9146966 C179.341277,73.9146966 179.56766,74.1422697 179.56766,74.428764 C179.56766,74.7242247 179.341277,74.9517978 179.055319,74.9517978 L174.114894,74.9517978 C173.829362,74.9517978 173.602553,74.7242247 173.602553,74.428764 C173.602553,74.1422697 173.829362,73.9146966 174.114894,73.9146966 L179.055319,73.9146966 Z M166.922979,57.481618 C167.783404,57.481618 168.466383,58.1673258 168.466383,59.0562697 C168.466383,59.8944045 167.757872,60.6053034 166.922979,60.6053034 L156.294043,60.6053034 L162.797872,64.9471236 C163.30383,65.2771685 163.607234,65.6832135 163.607234,66.2677303 C163.607234,66.8262022 163.30383,67.2322472 162.797872,67.5627191 L156.344681,71.8793483 L166.948511,71.8793483 C167.808511,71.8793483 168.466383,72.5654831 168.466383,73.428382 C168.466383,74.2917079 167.808511,74.9517978 166.948511,74.9517978 L152.093191,74.9517978 C151.23234,74.9517978 150.52383,74.2665169 150.52383,73.377573 L150.52383,73.0471011 C150.52383,72.3618202 150.878298,71.9049663 151.359149,71.6001124 L159.761277,66.2164944 L151.333617,60.8081124 C150.802128,60.4780674 150.52383,60.0212135 150.52383,59.3863146 L150.52383,59.0562697 C150.52383,58.1673258 151.23234,57.481618 152.093191,57.481618 L166.922979,57.481618 Z M128.900851,2.67238202 C131.551064,-0.206651685 136.008511,-0.782202247 139.306809,1.3248764 C143.583404,4.05788764 144.379149,10.2023596 140.934468,13.9366067 C140.93234,13.9387416 130.487234,25.2618876 130.487234,25.2618876 C139.327234,29.6156629 145.427234,38.7420674 145.427234,49.2719101 C145.427234,61.2043371 137.591489,71.3345393 126.811915,74.7575281 C117.893912,69.4122617 114.337757,59.6515285 113.880148,58.3001765 L113.841296,58.1833082 C113.832731,58.1569473 113.828511,58.1434157 113.828511,58.1434157 C115.309787,58.976 117.007234,59.4388315 118.789362,59.4388315 C124.377021,59.4388315 128.922128,54.8779775 128.922128,49.2719101 C128.922128,43.6649888 124.377021,39.1041348 118.789362,39.1041348 C116.975745,39.1041348 115.108511,39.2424719 113.303404,39.0648539 C112.297872,38.9653708 111.311489,38.6788764 110.408936,38.2233034 C105.619574,35.8032584 104.412766,29.2715281 108.058298,25.3114157 C108.060251,25.309456 113.48136,19.4210825 118.793578,13.650947 L119.417709,12.9730152 C124.297577,7.67249572 128.900851,2.67238202 128.900851,2.67238202 Z M179.046809,67.0179101 C179.332766,67.0179101 179.56,67.2369438 179.56,67.5234382 L179.56,67.5657079 C179.56,67.8103596 179.433617,67.9619326 179.248936,68.1049663 L175.333617,71.1406966 L179.064255,71.1406966 C179.341277,71.1406966 179.56766,71.3682697 179.56766,71.6466517 C179.56766,71.9331461 179.341277,72.1607191 179.064255,72.1607191 L174.131489,72.1607191 C173.845957,72.1607191 173.610638,71.9331461 173.610638,71.6381124 L173.610638,71.528382 C173.610638,71.275191 173.736596,71.1317303 173.913191,70.9886966 L177.719574,68.0379326 L174.106809,68.0379326 C173.829362,68.0379326 173.602553,67.8103596 173.602553,67.5319775 C173.602553,67.2459101 173.829362,67.0179101 174.106809,67.0179101 L179.046809,67.0179101 Z M174.122979,60.9122921 C174.383404,60.9122921 174.602128,61.1227865 174.602128,61.3840899 L174.602128,62.8259551 L179.055319,62.8259551 C179.341277,62.8259551 179.56766,63.0620674 179.56766,63.3485618 C179.56766,63.6350562 179.341277,63.8711685 179.055319,63.8711685 L174.602128,63.8711685 L174.602128,65.3044944 C174.602128,65.5743371 174.383404,65.7852584 174.122979,65.7852584 C173.862979,65.7852584 173.644255,65.5743371 173.644255,65.3044944 L173.644255,61.3840899 C173.644255,61.1227865 173.862979,60.9122921 174.122979,60.9122921 Z M179.064255,55.2199775 C179.324681,55.2199775 179.525957,55.4304719 179.525957,55.683236 L179.525957,59.1570337 C179.525957,59.4520674 179.299149,59.6796404 179.005106,59.6796404 L174.165532,59.6796404 C173.871064,59.6796404 173.644255,59.4520674 173.644255,59.1570337 L173.644255,55.7255056 C173.644255,55.4723146 173.854468,55.2618202 174.106809,55.2618202 C174.366809,55.2618202 174.568936,55.4723146 174.568936,55.7255056 L174.568936,58.6425393 L176.098298,58.6425393 L176.098298,56.1050787 C176.098298,55.8518876 176.308085,55.6413933 176.568511,55.6413933 C176.820426,55.6413933 177.022553,55.8518876 177.022553,56.1050787 L177.022553,58.6425393 L178.602128,58.6425393 L178.602128,55.683236 C178.602128,55.4304719 178.811915,55.2199775 179.064255,55.2199775 Z M166.948511,42.1970787 C167.732766,42.1970787 168.34,42.8324045 168.34,43.5936854 L168.34,54.0552135 C168.34,54.9441573 167.657021,55.6294382 166.771064,55.6294382 L152.194043,55.6294382 C151.308511,55.6294382 150.625106,54.9441573 150.625106,54.0552135 L150.625106,43.7204944 C150.625106,42.9592135 151.257872,42.3238876 152.017447,42.3238876 C152.801702,42.3238876 153.408936,42.9592135 153.408936,43.7204944 L153.408936,52.5061798 L158.014894,52.5061798 L158.014894,44.8634831 C158.014894,44.1013483 158.64766,43.4668764 159.43234,43.4668764 C160.191489,43.4668764 160.798723,44.1013483 160.798723,44.8634831 L160.798723,52.5061798 L165.55617,52.5061798 L165.55617,43.5936854 C165.55617,42.8324045 166.188936,42.1970787 166.948511,42.1970787 Z M175.517872,49.0298202 C176.459149,49.0298202 177.030213,49.5784719 177.274043,50.3704944 L178.694043,49.2411685 C178.82,49.1395506 178.929362,49.0725169 179.089362,49.0725169 C179.374894,49.0725169 179.56766,49.3167416 179.56766,49.5695056 C179.56766,49.805618 179.458723,49.957191 179.299149,50.0758876 L177.47617,51.5087865 L177.47617,52.8157303 L179.055319,52.8157303 C179.341277,52.8157303 179.56766,53.0433034 179.56766,53.3302247 C179.56766,53.6252584 179.341277,53.8528315 179.055319,53.8528315 L174.165532,53.8528315 C173.871064,53.8528315 173.644255,53.6252584 173.644255,53.3302247 L173.644255,51.2222921 C173.644255,50.4806517 173.862979,49.8986966 174.23234,49.5191236 C174.551915,49.2074382 174.988511,49.0298202 175.500851,49.0298202 L175.517872,49.0298202 Z M175.576596,50.084 L175.56,50.084 C174.930213,50.084 174.585106,50.539573 174.585106,51.3064045 L174.585106,52.8157303 L176.560426,52.8157303 L176.560426,51.2982921 C176.560426,50.5566517 176.174043,50.084 175.576596,50.084 Z M179.046809,42.4357528 C179.332766,42.4357528 179.56,42.6552135 179.56,42.9417079 L179.56,42.9835506 C179.56,43.2282022 179.433617,43.3797753 179.248936,43.523236 L175.333617,46.5581124 L179.064255,46.5581124 C179.341277,46.5581124 179.56766,46.7861124 179.56766,47.0644944 C179.56766,47.3509888 179.341277,47.5785618 179.064255,47.5785618 L174.131489,47.5785618 C173.845957,47.5785618 173.610638,47.3509888 173.610638,47.0559551 L173.610638,46.9462247 C173.610638,46.6930337 173.736596,46.55 173.913191,46.4065393 L177.719574,43.4557753 L174.106809,43.4557753 C173.829362,43.4557753 173.602553,43.2282022 173.602553,42.9498202 C173.602553,42.6633258 173.829362,42.4357528 174.106809,42.4357528 L179.046809,42.4357528 Z M179.07234,35.3438427 C179.349362,35.3438427 179.56766,35.5543371 179.56766,35.8322921 C179.56766,36.0769438 179.425106,36.2455955 179.206383,36.3382472 L178.105957,36.8190112 L178.105957,39.6856629 L179.240851,40.1830787 C179.450638,40.267191 179.56766,40.444382 179.56766,40.6638427 C179.56766,40.9332584 179.357872,41.1441798 179.089362,41.1441798 C179.013617,41.1441798 178.938298,41.1185618 178.854043,41.0762921 L173.98,38.8846742 C173.72,38.7659775 173.560426,38.5554831 173.560426,38.2604494 L173.560426,38.2104944 C173.560426,37.9146067 173.72,37.7126517 173.98,37.594809 L178.854043,35.402764 C178.929362,35.3604944 179.005106,35.3438427 179.07234,35.3438427 Z M159.482979,24.7542247 C164.468085,24.7542247 168.34,28.613573 168.34,34.200427 L168.34,39.2531461 C168.34,40.1420899 167.657021,40.8273708 166.771064,40.8273708 L152.194043,40.8273708 C151.308511,40.8273708 150.625106,40.1420899 150.625106,39.2531461 L150.625106,34.200427 C150.625106,28.613573 154.446383,24.7542247 159.43234,24.7542247 L159.482979,24.7542247 Z M177.189787,37.2156629 L174.811915,38.2523371 L177.189787,39.2894382 L177.189787,37.2156629 Z M159.533191,28.0299101 L159.482979,28.0299101 C156.015319,28.0299101 153.459574,30.4674607 153.459574,34.200427 L153.459574,37.7041124 L165.505532,37.7041124 L165.505532,34.200427 C165.505532,30.4674607 163.000426,28.0299101 159.533191,28.0299101 Z M174.122979,30.3090562 C174.383404,30.3090562 174.602128,30.5195506 174.602128,30.7812809 L174.602128,32.2227191 L179.055319,32.2227191 C179.341277,32.2227191 179.56766,32.4588315 179.56766,32.7453258 C179.56766,33.0322472 179.341277,33.2683596 179.055319,33.2683596 L174.602128,33.2683596 L174.602128,34.7012584 C174.602128,34.9715281 174.383404,35.1820225 174.122979,35.1820225 C173.862979,35.1820225 173.644255,34.9715281 173.644255,34.7012584 L173.644255,30.7812809 C173.644255,30.5195506 173.862979,30.3090562 174.122979,30.3090562 Z M179.055319,27.980382 C179.341277,27.980382 179.56766,28.2079551 179.56766,28.4944494 C179.56766,28.7899101 179.341277,29.0174831 179.055319,29.0174831 L174.114894,29.0174831 C173.829362,29.0174831 173.602553,28.7899101 173.602553,28.4944494 C173.602553,28.2079551 173.829362,27.980382 174.114894,27.980382 L179.055319,27.980382 Z M176.585106,20.3163371 C178.240426,20.3163371 179.627234,21.5976629 179.627234,23.4105618 C179.627234,25.2234607 178.257447,26.4877079 176.601702,26.4877079 L176.585106,26.4877079 C174.930213,26.4877079 173.543404,25.206382 173.543404,23.3939101 C173.543404,21.5810112 174.913191,20.3163371 176.568511,20.3163371 L176.585106,20.3163371 Z M176.601702,21.4038202 L176.585106,21.4038202 C175.442553,21.4038202 174.493191,22.2385393 174.493191,23.4105618 C174.493191,24.5821573 175.425532,25.4002247 176.568511,25.4002247 L176.585106,25.4002247 C177.72766,25.4002247 178.668936,24.5655056 178.668936,23.3939101 C178.668936,22.2218876 177.744681,21.4038202 176.601702,21.4038202 Z M166.922979,20.0490562 C167.783404,20.0490562 168.466383,20.734764 168.466383,21.5980899 C168.466383,22.4866067 167.783404,23.1718876 166.922979,23.1718876 L152.042553,23.1718876 C151.182128,23.1718876 150.498723,22.4866067 150.498723,21.5980899 C150.498723,20.734764 151.182128,20.0490562 152.042553,20.0490562 L166.922979,20.0490562 Z M179.046809,13.7384944 C179.332766,13.7384944 179.56,13.9575281 179.56,14.2440225 L179.56,14.2858652 C179.56,14.5305169 179.433617,14.6825169 179.248936,14.8255506 L175.333617,17.8608539 L179.064255,17.8608539 C179.341277,17.8608539 179.56766,18.088427 179.56766,18.367236 C179.56766,18.6533034 179.341277,18.8813034 179.064255,18.8813034 L174.131489,18.8813034 C173.845957,18.8813034 173.610638,18.6533034 173.610638,18.3582697 L173.610638,18.2489663 C173.610638,17.9957753 173.736596,17.8527416 173.913191,17.7092809 L177.719574,14.7580899 L174.106809,14.7580899 C173.829362,14.7580899 173.602553,14.5305169 173.602553,14.2525618 C173.602553,13.9660674 173.829362,13.7384944 174.106809,13.7384944 L179.046809,13.7384944 Z M166.973617,1.1387191 C167.808511,1.1387191 168.466383,1.77361798 168.466383,2.61132584 C168.466383,3.3478427 168.03617,3.85550562 167.378723,4.13474157 L164.063404,5.58258427 L164.063404,14.2154157 L167.479574,15.7140674 C168.111915,15.9676854 168.466383,16.5009663 168.466383,17.1610562 C168.466383,17.974 167.833617,18.6084719 167.024255,18.6084719 C166.79617,18.6084719 166.568511,18.5320449 166.315745,18.405236 L151.637021,11.8034831 C150.853191,11.4478202 150.37234,10.8133483 150.37234,9.92440449 L150.37234,9.77240449 C150.37234,8.88346067 150.853191,8.27375281 151.637021,7.91851685 L166.315745,1.31633708 C166.543404,1.18952809 166.771064,1.1387191 166.973617,1.1387191 Z M128.869362,0.0320224719 C128.355745,0.411595506 127.871489,0.835146067 127.432766,1.31121348 L113.364681,16.5923371 L104.555745,16.5923371 C99.9987234,16.5923371 96.3034043,12.8845618 96.3034043,8.31217978 C96.3034043,3.73937079 99.9987234,0.0320224719 104.555745,0.0320224719 L128.869362,0.0320224719 Z M161.304681,6.77552809 L154.142979,9.89921348 L161.304681,13.0224719 L161.304681,6.77552809 Z M179.07234,6.6461573 C179.349362,6.6461573 179.56766,6.85707865 179.56766,7.13546067 C179.56766,7.37968539 179.425106,7.54833708 179.206383,7.64098876 L178.105957,8.12175281 L178.105957,10.9884045 L179.240851,11.4853933 C179.450638,11.5699326 179.56766,11.7471236 179.56766,11.9661573 C179.56766,12.235573 179.357872,12.4469213 179.089362,12.4469213 C179.013617,12.4469213 178.938298,12.4213034 178.854043,12.3790337 L173.98,10.1869888 C173.72,10.0687191 173.560426,9.85822472 173.560426,9.56319101 L173.560426,9.51280899 C173.560426,9.21734831 173.72,9.01539326 173.98,8.89755056 L178.854043,6.70507865 C178.929362,6.66323596 179.005106,6.6461573 179.07234,6.6461573 Z M177.189787,8.51797753 L174.811915,9.55465169 L177.189787,10.5921798 L177.189787,8.51797753 Z M179.055319,1.16476404 C179.31617,1.16476404 179.525957,1.37525843 179.525957,1.63698876 L179.525957,4.82386517 C179.525957,5.11889888 179.299149,5.34647191 179.005106,5.34647191 L174.114894,5.34647191 C173.829362,5.34647191 173.602553,5.11889888 173.602553,4.82386517 C173.602553,4.53694382 173.829362,4.30937079 174.114894,4.30937079 L178.585106,4.30937079 L178.585106,1.63698876 C178.585106,1.37525843 178.795319,1.16476404 179.055319,1.16476404 Z" id="Combined-Shape"></path>
        </g>
    </g>
</svg>