<?xml version="1.0" encoding="UTF-8"?>
<svg width="26px" height="26px" viewBox="0 0 26 26" version="1.1" xmlns="http://www.w3.org/2000/svg" xmlns:xlink="http://www.w3.org/1999/xlink">
    <title>icon/mag_glass</title>
    <g id="v5" stroke="none" stroke-width="1" fill="none" fill-rule="evenodd">
        <g id="Base" transform="translate(-818.000000, -3014.000000)" fill="#F6A200">
            <g id="Fill-1" transform="translate(815.000000, 3011.000000)">
                <path d="M13.4939523,20.5437154 C9.6004771,20.5420697 6.13321077,17.0728247 6.13321077,13.1806215 C6.13321077,9.28677261 9.28781426,6.13186626 13.1796438,6.13186626 C17.073119,6.13186626 20.5420309,9.59946546 20.5420309,13.4949602 C20.5420309,17.3871633 17.3857818,20.5437154 13.4939523,20.5437154 M28.4161977,24.99712 L22.1974983,18.7778237 C23.1354869,17.2390457 23.6752417,15.4287186 23.6752417,13.4949602 C23.6752417,7.87142599 18.8026381,3 13.1796438,3 C7.55664949,2.99835469 3,7.55708739 3,13.1806215 C3,18.8025099 7.87260351,23.6755812 13.4939523,23.6755812 C15.3649925,23.6755812 17.1142588,23.1686897 18.6199772,22.2882124 L24.8715884,28.5420695 C25.4837493,29.1526435 26.4760425,29.1526435 27.0865578,28.5420695 L28.6383528,26.9901255 C29.2488682,26.3795516 29.026713,25.6076939 28.4161977,24.99712"></path>
            </g>
        </g>
    </g>
</svg>