<?xml version="1.0" encoding="UTF-8"?>
<svg width="681px" height="295px" viewBox="0 0 681 295" version="1.1" xmlns="http://www.w3.org/2000/svg" xmlns:xlink="http://www.w3.org/1999/xlink">
    <!-- Generator: Sketch 64 (93537) - https://sketch.com -->
    <title>Endeavor_logo</title>
    <desc>Created with Sketch.</desc>
    <g id="Endeavor_logo" stroke="none" stroke-width="1" fill="none" fill-rule="evenodd">
        <path d="M392.002214,34 L394.7477,34.8382081 L360.503126,146.393742 C362.52339,145.706928 364.691658,145.322904 367.00793,145.322904 C378.8002,145.322904 384.198669,152.977553 385.615813,156.311923 L385.615813,156.311923 L383.27734,158.368672 C381.571587,155.178311 376.88354,148.443106 367.289139,148.443106 C364.295745,148.443106 361.598361,149.189 359.237687,150.525702 L359.237687,150.525702 L349.991097,180.656885 C352.096463,190.626761 358.349659,196.224662 367.932959,196.224662 C379.011106,196.224662 382.848127,188.56632 384.272671,185.449811 L384.272671,185.449811 L386.685147,187.857351 C385.978425,190.338743 379.43662,199.415023 367.862657,199.415023 C359.060081,199.415023 351.785653,195.198134 348.100338,186.819745 L348.100338,186.819745 L325.019014,262 L322.273528,261.161792 L354.55704,155.994364 L346.694293,140.655524 L328.71543,140.655524 L328.71543,164.815859 L325.285422,164.815859 L325.285422,114.471674 L345.787765,114.471674 C354.742046,114.471674 360.902739,119.777864 360.902739,127.52852 C360.902739,131.232145 359.363491,134.511126 356.421898,136.955592 C354.601441,138.491692 353.343402,139.119425 349.987397,140.09795 L349.987397,140.09795 L355.866881,151.71101 L392.002214,34 Z M417.516363,145.321057 C430.79978,145.321057 440.101871,156.594403 440.101871,172.756681 C440.101871,188.213682 430.588873,199.413177 417.516363,199.413177 C404.373551,199.413177 394.927155,188.069673 394.927155,172.332038 C394.927155,156.520552 404.232947,145.321057 417.516363,145.321057 Z M538.632999,146.598678 L538.632999,149.859197 L522.086081,149.859197 L522.086081,197.714605 L518.674574,197.714605 L518.674574,149.859197 L502.120255,149.859197 L502.120255,146.598678 L538.632999,146.598678 Z M580.833192,146.597571 L579.338345,149.787931 L553.907448,149.787931 L553.907448,169.853231 L576.356052,169.853231 L576.356052,173.039899 L553.907448,173.039899 L553.907448,194.523137 L580.048767,194.523137 L581.262405,197.713497 L550.495941,197.713497 L550.495941,146.597571 L580.833192,146.597571 Z M680,146.597571 L680,149.85809 L663.449381,149.85809 L663.449381,197.713497 L660.037874,197.713497 L660.037874,149.85809 L643.487256,149.85809 L643.487256,146.597571 L680,146.597571 Z M456.585888,146.596463 L486.423623,193.104091 L486.423623,146.596463 L489.901732,146.596463 L489.901732,197.712389 L485.572596,197.712389 L455.165043,150.425634 L455.165043,197.712389 L451.757236,197.712389 L451.757236,146.596463 L456.585888,146.596463 Z M597.952888,146.596463 L627.786924,193.104091 L627.786924,146.596463 L631.268733,146.596463 L631.268733,197.712389 L626.939597,197.712389 L596.532044,150.425634 L596.532044,197.712389 L593.124237,197.712389 L593.124237,146.596463 L597.952888,146.596463 Z M417.231454,148.511418 C406.009003,148.511418 398.549569,158.082499 398.549569,172.261879 C398.549569,186.367408 406.293911,196.292974 417.231454,196.292974 C433.856075,196.292974 436.55346,178.782917 436.55346,172.970848 C436.55346,158.082499 429.020024,148.511418 417.231454,148.511418 Z M293.93619,113.212885 C307.0198,113.212885 316.184987,124.316374 316.184987,140.234943 C316.184987,155.455621 306.812593,166.488952 293.93619,166.488952 C280.989484,166.488952 271.687393,155.318997 271.687393,139.817685 C271.687393,124.246215 280.85258,113.212885 293.93619,113.212885 Z M205.077165,114.678826 L225.923618,165.026703 L222.637915,165.026703 L203.116103,118.101817 L190.591211,148.196074 L211.441364,148.196074 L210.442333,151.201807 L189.333171,151.201807 L183.527689,165.026703 L180.164284,165.026703 L201.08844,114.678826 L205.077165,114.678826 Z M226.412404,114.678826 L245.934215,161.603712 L265.526329,114.678826 L268.882335,114.678826 L247.961879,165.026703 L243.976854,165.026703 L223.123,114.678826 L226.412404,114.678826 Z M46.5826973,114.470936 L75.9690184,160.27698 L75.9690184,114.470936 L79.3990259,114.470936 L79.3990259,164.81512 L75.129092,164.81512 L45.1840535,118.241026 L45.1840535,164.81512 L41.8243482,164.81512 L41.8243482,114.470936 L46.5826973,114.470936 Z M110.292774,114.471674 C123.938802,114.471674 132.756178,124.666796 132.756178,140.585366 C132.756178,148.336022 130.443606,154.48042 125.966465,158.881936 C121.696532,162.999125 116.383165,164.815859 108.124506,164.815859 L108.124506,164.815859 L92.9392302,164.815859 L92.9392302,114.471674 Z M31.8784365,114.472413 L30.8313036,117.61477 L5.3597053,117.61477 L5.3597053,138.07148 L27.6085026,138.07148 L27.6085026,141.213837 L5.3597053,141.213837 L5.3597053,161.67424 L32.3002497,161.67424 L32.3002497,164.812904 L2,164.812904 L2,114.472413 L31.8784365,114.472413 Z M172.080271,114.472413 L171.033138,117.61477 L145.56154,117.61477 L145.56154,138.07148 L167.810337,138.07148 L167.810337,141.213837 L145.56154,141.213837 L145.56154,161.67424 L172.502084,161.67424 L172.502084,164.812904 L142.201834,164.812904 L142.201834,114.472413 L172.080271,114.472413 Z M293.654981,116.355242 C282.602735,116.355242 275.254304,125.782315 275.254304,139.747527 C275.254304,153.642581 282.880243,163.416753 293.654981,163.416753 C310.027994,163.416753 312.688378,146.168866 312.688378,140.445418 C312.688378,125.782315 305.269645,116.355242 293.654981,116.355242 Z M108.823828,117.473715 L96.3692377,117.473715 L96.3692377,161.673501 L108.542619,161.673501 C115.680143,161.673501 120.090681,160.137402 123.657593,156.507628 C127.294807,152.733845 129.255868,147.010397 129.255868,140.238266 C129.255868,132.904868 127.0839,126.483529 123.309782,122.713439 C119.879775,119.22029 115.121425,117.473715 108.823828,117.473715 L108.823828,117.473715 Z M345.787765,117.337091 L328.71543,117.337091 L328.71543,137.727335 L344.248517,137.727335 C352.225967,137.727335 357.472731,133.672918 357.472731,127.458362 C357.472731,121.731221 352.433173,117.337091 345.787765,117.337091 L345.787765,117.337091 Z" id="Combined-Shape" fill="#454A54"></path>
    </g>
</svg>